<svg id="svgcontent" width="955.2" height="626.4" x="0" y="0" overflow="visible" xmlns="http://www.w3.org/2000/svg" xmlns:se="http://imprintnext.com" xmlns:xlink="http://www.w3.org/1999/xlink" viewBox="0 0 955.2 626.4"><!-- Made with luv in USA by ImprintNext - https://imprintnext.com--><defs><clipPath id="bound_0" xe_id="bound_0"><rect id="xe_mmlj06" x="235.72000000000003" y="71.32" pointer-events="all" width="483.76" height="483.76"></rect></clipPath></defs><g id="bounds" display="none"><path d="M235.72000000000003 71.32 L719.48 71.32 L719.48 555.0799999999999 L235.72000000000003 555.0799999999999  Z" x="235.72000000000003" y="71.32" width="483.76" height="483.76" aWidth="2.00" aHeight="2" fill="none" stroke="#006400" isBleed="0" safeVal="0" cropVal="0" stroke-miterlimit="null" stroke-width="1" pointer-events="all" id="bound_0" xe_id="bound_0"></path></g><g class="layer" id="Layer_0" xe_id="Layer_0" style="pointer-events:all" clip-path="url(#bound_0)"><title>Layer_0</title><g id="background" type="bg_area_0" pointer-events="none" style="color-interpolation-filters:sRGB;pointer-events: none;" x="235.72000000000003" y="71.32" width="483.76" height="483.76"></g><g id="xe_kythf8" type="image" style="pointer-events: bounding-box;" pointer-events="bounding-box" xe-props="&amp;#35;&amp;#103;&amp;#76;&amp;#73;&amp;#65;&amp;#101;&amp;#122;&amp;#127;&amp;#26;&amp;#89;&amp;#92;&amp;#97;&amp;#63;&amp;#32;&amp;#26;&amp;#28;&amp;#19;&amp;#111;&amp;#58;&amp;#47;&amp;#93;&amp;#83;&amp;#69;&amp;#84;&amp;#49;&amp;#49;&amp;#84;&amp;#85;&amp;#19;&amp;#58;&amp;#122;&amp;#103;&amp;#20;&amp;#18;&amp;#88;&amp;#115;&amp;#12;&amp;#32;&amp;#85;&amp;#64;&amp;#93;&amp;#97;&amp;#44;&amp;#32;&amp;#113;&amp;#93;&amp;#86;&amp;#34;&amp;#98;&amp;#35;&amp;#89;&amp;#92;&amp;#66;&amp;#101;&amp;#116;&amp;#103;&amp;#91;&amp;#95;&amp;#95;&amp;#116;&amp;#61;&amp;#43;&amp;#76;&amp;#100;&amp;#72;&amp;#112;&amp;#61;&amp;#103;&amp;#2;&amp;#18;&amp;#88;&amp;#109;&amp;#57;&amp;#34;&amp;#93;&amp;#31;&amp;#66;&amp;#118;&amp;#63;&amp;#110;&amp;#64;&amp;#93;&amp;#93;&amp;#34;&amp;#116;&amp;#103;&amp;#81;&amp;#93;&amp;#86;&amp;#69;&amp;#32;&amp;#49;&amp;#93;&amp;#94;&amp;#66;&amp;#105;&amp;#55;&amp;#43;&amp;#26;&amp;#10;&amp;#19;&amp;#115;&amp;#46;&amp;#34;&amp;#26;&amp;#28;&amp;#19;&amp;#111;&amp;#54;&amp;#32;&amp;#123;&amp;#95;&amp;#93;&amp;#111;&amp;#42;&amp;#3;&amp;#81;&amp;#92;&amp;#93;&amp;#34;&amp;#98;&amp;#103;&amp;#27;&amp;#118;&amp;#119;&amp;#48;&amp;#104;&amp;#117;&amp;#8;&amp;#18;&amp;#29;&amp;#34;&amp;#49;&amp;#40;&amp;#95;&amp;#100;&amp;#72;&amp;#112;&amp;#61;&amp;#103;&amp;#2;&amp;#18;&amp;#66;&amp;#118;&amp;#63;&amp;#103;&amp;#20;&amp;#18;&amp;#88;&amp;#109;&amp;#63;&amp;#22;&amp;#93;&amp;#92;&amp;#84;&amp;#99;&amp;#44;&amp;#44;&amp;#87;&amp;#94;&amp;#101;&amp;#121;&amp;#40;&amp;#32;&amp;#26;&amp;#10;&amp;#19;&amp;#117;&amp;#40;&amp;#41;&amp;#87;&amp;#81;&amp;#85;&amp;#34;&amp;#116;&amp;#103;&amp;#84;&amp;#95;&amp;#82;&amp;#107;&amp;#122;&amp;#127;&amp;#67;&amp;#18;&amp;#82;&amp;#111;&amp;#52;&amp;#42;&amp;#74;&amp;#117;&amp;#85;&amp;#105;&amp;#44;&amp;#103;&amp;#2;&amp;#86;&amp;#80;&amp;#108;&amp;#43;&amp;#32;&amp;#20;&amp;#18;&amp;#85;&amp;#101;&amp;#52;&amp;#32;&amp;#76;&amp;#85;&amp;#19;&amp;#58;&amp;#62;&amp;#36;&amp;#84;&amp;#67;&amp;#84;&amp;#44;&amp;#122;&amp;#40;&amp;#87;&amp;#70;&amp;#84;&amp;#34;&amp;#98;&amp;#35;&amp;#89;&amp;#92;&amp;#66;&amp;#101;&amp;#116;&amp;#103;&amp;#74;&amp;#95;&amp;#69;&amp;#97;&amp;#44;&amp;#32;&amp;#26;&amp;#10;&amp;#87;&amp;#97;&amp;#52;&amp;#54;&amp;#93;&amp;#28;&amp;#19;&amp;#114;&amp;#61;&amp;#54;&amp;#81;&amp;#74;&amp;#84;&amp;#34;&amp;#98;&amp;#35;&amp;#89;&amp;#92;&amp;#66;&amp;#101;&amp;#116;&amp;#103;&amp;#93;&amp;#84;&amp;#88;&amp;#116;&amp;#122;&amp;#127;&amp;#94;&amp;#81;&amp;#93;&amp;#115;&amp;#61;&amp;#56;&amp;#20;&amp;#18;&amp;#82;&amp;#111;&amp;#52;&amp;#42;&amp;#74;&amp;#67;&amp;#19;&amp;#58;&amp;#3;&amp;#103;&amp;#27;&amp;#84;&amp;#83;&amp;#97;&amp;#58;&amp;#35;&amp;#90;&amp;#18;&amp;#29;&amp;#34;&amp;#123;&amp;#119;&amp;#12;&amp;#0;&amp;#5;&amp;#53;&amp;#108;&amp;#103;&amp;#101;&amp;#28;&amp;#19;&amp;#105;&amp;#53;&amp;#36;&amp;#95;&amp;#85;&amp;#102;&amp;#97;&amp;#42;&amp;#43;&amp;#81;&amp;#94;&amp;#86;&amp;#34;&amp;#98;&amp;#35;&amp;#89;&amp;#92;&amp;#66;&amp;#101;&amp;#116;&amp;#103;&amp;#77;&amp;#64;&amp;#93;&amp;#111;&amp;#57;&amp;#33;&amp;#93;&amp;#84;&amp;#120;&amp;#109;&amp;#63;&amp;#103;&amp;#2;&amp;#18;&amp;#89;&amp;#116;&amp;#44;&amp;#53;&amp;#75;&amp;#10;&amp;#30;&amp;#47;&amp;#49;&amp;#40;&amp;#72;&amp;#66;&amp;#88;&amp;#110;&amp;#44;&amp;#43;&amp;#93;&amp;#72;&amp;#69;&amp;#46;&amp;#49;&amp;#42;&amp;#23;&amp;#72;&amp;#84;&amp;#116;&amp;#55;&amp;#42;&amp;#84;&amp;#31;&amp;#80;&amp;#115;&amp;#43;&amp;#32;&amp;#76;&amp;#67;&amp;#30;&amp;#98;&amp;#42;&amp;#42;&amp;#79;&amp;#67;&amp;#84;&amp;#114;&amp;#7;&amp;#44;&amp;#85;&amp;#81;&amp;#86;&amp;#101;&amp;#43;&amp;#106;&amp;#10;&amp;#0;&amp;#3;&amp;#51;&amp;#104;&amp;#118;&amp;#9;&amp;#7;&amp;#1;&amp;#50;&amp;#107;&amp;#117;&amp;#8;&amp;#0;&amp;#7;&amp;#49;&amp;#111;&amp;#115;&amp;#22;&amp;#67;&amp;#71;&amp;#103;&amp;#122;&amp;#56;"><g id="xe_i4kikk" style="pointer-events: bounding-box;"><g id="svgPath" transform="matrix(0.944844 0 0 0.944844 0 0)"><path d="M390.69047253417966,162.9091096801758 C378.4414725341797,167.2791096801758 369.2894725341797,179.53110968017577 359.12347253417965,205.17410968017577 C345.0094725341797,240.77110968017578 324.7064725341797,314.40510968017577 312.99347253417966,372.4671096801758 C306.22647253417966,406.0151096801758 303.9724725341797,422.1031096801758 303.3294725341797,441.4671096801758 C302.51947253417967,465.87410968017576 305.5044725341797,477.3511096801758 314.7874725341797,485.5221096801758 C321.4104725341797,491.3521096801758 329.0574725341797,493.5791096801758 344.5734725341797,494.19610968017577 C355.7174725341797,494.6401096801758 358.20947253417967,494.45610968017576 361.3674725341797,492.9571096801758 C366.8714725341797,490.34510968017577 367.6404725341797,487.8921096801758 368.4194725341797,470.4671096801758 C370.6074725341797,421.5511096801758 377.5594725341797,377.2241096801758 396.4904725341797,291.4671096801758 C415.5384725341797,205.18110968017578 418.2564725341797,187.47210968017578 414.43147253417965,174.5891096801758 C413.5404725341797,171.5891096801758 411.3524725341797,167.66210968017577 409.3144725341797,165.40710968017578 C405.9574725341797,161.69210968017578 405.4334725341797,161.47010968017577 400.1214725341797,161.51110968017576 C397.02247253417966,161.53510968017576 392.7784725341797,162.16410968017578 390.69047253417966,162.9091096801758 M550.7444725341797,163.00110968017577 C514.5864725341796,167.93110968017578 479.30547253417967,185.88810968017577 459.0524725341797,209.6711096801758 C445.5924725341797,225.47710968017577 444.2104725341797,234.46710968017578 455.2404725341797,234.46710968017578 C460.84147253417973,234.46710968017578 467.7894725341797,231.90610968017577 486.0734725341797,223.10210968017577 C512.8204725341798,210.22310968017578 525.7104725341796,206.4451096801758 550.2224725341797,204.29810968017577 C560.8254725341797,203.3701096801758 566.5274725341797,203.36410968017577 575.2224725341797,204.2721096801758 C605.1614725341797,207.40110968017578 620.6554725341797,217.22010968017577 627.6004725341797,237.46710968017578 C630.5194725341796,245.97610968017577 630.2704725341797,267.3521096801758 627.1344725341796,277.4671096801758 C624.6494725341797,285.48310968017574 620.2494725341796,294.0151096801758 617.1564725341797,296.81410968017576 C615.4674725341797,298.3421096801758 614.4624725341797,298.4031096801758 607.8754725341796,297.37210968017575 C599.3844725341796,296.0431096801758 582.0974725341797,296.7971096801758 574.4874725341797,298.82810968017577 C560.4424725341796,302.5761096801758 554.3884725341798,310.0961096801758 556.4654725341798,321.2171096801758 C557.4374725341797,326.42510968017575 563.9634725341797,332.50910968017575 571.0244725341797,334.79210968017577 C580.2574725341797,337.7761096801758 595.9104725341797,339.0251096801758 605.8744725341796,337.5721096801758 L614.4874725341797,336.3171096801758 L618.7224725341797,340.9721096801758 C629.3424725341797,352.64610968017575 634.2134725341797,369.9311096801758 634.3614725341797,396.4671096801758 C634.4474725341797,411.8301096801758 634.2754725341797,413.45610968017576 631.8724725341797,420.06910968017576 C627.0574725341796,433.3151096801758 620.0434725341797,441.6471096801758 607.0514725341798,449.55710968017576 C593.9444725341797,457.5361096801758 574.2164725341797,461.33110968017576 555.3154725341797,459.50910968017575 C546.2064725341797,458.63110968017577 523.3234725341797,454.1371096801758 522.1894725341797,453.0031096801758 C521.9444725341797,452.7581096801758 522.9104725341797,435.5491096801758 524.3354725341796,414.7621096801758 C526.6664725341797,380.7551096801758 527.2754725341797,375.4141096801758 530.4044725341796,361.4671096801758 C534.8924725341797,341.46310968017576 541.2464725341797,310.36710968017576 545.1164725341797,289.4671096801758 C548.9734725341797,268.63610968017576 550.3504725341797,236.6181096801758 547.6634725341796,230.21710968017578 C546.2354725341797,226.8141096801758 545.7374725341797,226.4681096801758 542.2884725341796,226.47710968017577 C531.0734725341797,226.50610968017577 518.0154725341797,238.9681096801758 506.6004725341797,260.53510968017576 C485.2714725341797,300.83410968017574 467.1754725341797,370.02810968017576 464.4184725341797,421.8271096801758 L463.7344725341797,434.6881096801758 L460.6104725341797,434.1161096801758 C458.8934725341797,433.80210968017576 453.2124725341797,432.6331096801758 447.9874725341797,431.5191096801758 C435.6784725341797,428.8941096801758 430.97947253417965,428.8991096801758 427.6224725341797,431.54010968017576 C425.51747253417966,433.1951096801758 424.9914725341797,434.45310968017577 425.0094725341797,437.79010968017576 C425.1174725341797,458.30410968017577 462.5624725341797,481.3231096801758 517.9484725341797,494.9231096801758 C540.6214725341797,500.4901096801758 551.9954725341797,501.8921096801758 574.4874725341797,501.89310968017577 C595.8674725341797,501.8941096801758 606.2104725341796,500.80210968017576 622.9484725341797,496.7771096801758 C669.2014725341796,485.65310968017576 699.7694725341796,458.4091096801758 706.6834725341797,422.14610968017575 C707.8754725341796,415.8921096801758 708.0924725341797,410.67210968017577 707.6014725341797,399.9671096801758 C706.6514725341797,379.2241096801758 703.7734725341797,368.1521096801758 695.8424725341797,354.7341096801758 C691.0874725341797,346.6901096801758 675.1044725341796,330.9771096801758 664.7374725341797,324.15510968017577 C659.9254725341797,320.98810968017574 655.9874725341797,318.26110968017576 655.9874725341797,318.09510968017577 C655.9874725341797,317.92910968017577 659.5064725341797,315.47810968017575 663.8064725341796,312.6471096801758 C677.0034725341798,303.96310968017576 689.0794725341797,289.9181096801758 693.9284725341797,277.6151096801758 C697.7404725341796,267.9471096801758 699.3104725341797,256.9641096801758 698.6644725341797,244.49010968017578 C697.9894725341796,231.46010968017578 696.2874725341796,224.18110968017578 691.4714725341796,213.73910968017577 C682.2974725341796,193.84710968017578 665.3784725341798,179.97710968017577 638.9874725341797,170.71310968017576 C616.2934725341797,162.74710968017578 577.4874725341797,159.3551096801758 550.7444725341797,163.00110968017577 " stroke="none" fill="#dbabfb" fill-rule="evenodd" id="xe_a95h87" oldFill="#dbabfb"></path><path d="M284.9874725341797,77.35310968017578 C275.9054725341797,80.28910968017578 270.8304725341797,83.41810968017577 263.8774725341797,90.37010968017579 C256.9294725341797,97.31810968017578 253.2744725341797,103.38110968017578 250.59947253417968,112.39910968017578 C249.1384725341797,117.31910968017579 248.9874725341797,137.91010968017576 248.9874725341797,331.4671096801758 C248.9874725341797,565.7811096801759 248.5604725341797,548.7601096801758 254.7394725341797,560.9611096801758 C257.9904725341797,567.3811096801758 269.0734725341797,578.4641096801759 275.49347253417966,581.7151096801758 C287.6944725341797,587.8941096801758 270.67347253417967,587.4671096801758 504.9874725341797,587.4671096801758 C698.5444725341797,587.4671096801758 719.1354725341797,587.3161096801757 724.0554725341797,585.8551096801757 C733.0744725341797,583.1801096801757 739.1364725341797,579.5251096801758 746.0904725341798,572.5701096801758 C752.8664725341797,565.7951096801758 756.7794725341796,559.4201096801758 759.0434725341797,551.4671096801758 C759.7484725341797,548.9921096801758 760.6984725341797,546.5391096801758 761.1564725341797,546.0171096801757 C762.2924725341796,544.7191096801757 762.2334725341797,115.19710968017577 761.0974725341797,115.89910968017578 C760.6074725341797,116.20210968017578 759.9324725341796,114.99110968017578 759.5974725341797,113.20810968017578 C757.5614725341798,102.38310968017578 745.2104725341796,86.65210968017578 734.4814725341797,81.21910968017578 C722.2754725341797,75.03810968017578 739.3754725341796,75.46210968017579 504.55547253417967,75.52110968017578 C302.2014725341797,75.57210968017579 290.1864725341797,75.67210968017578 284.9874725341797,77.35310968017578 M249.4784725341797,331.4671096801758 C249.4784725341797,449.99210968017576 249.5944725341797,498.4791096801758 249.7374725341797,439.2171096801758 C249.87947253417968,379.9541096801758 249.87947253417968,282.9791096801758 249.7374725341797,223.71710968017578 C249.5944725341797,164.45410968017578 249.4784725341797,212.94210968017578 249.4784725341797,331.4671096801758 M390.69047253417966,162.9091096801758 C378.4414725341797,167.2791096801758 369.2894725341797,179.53110968017577 359.12347253417965,205.17410968017577 C345.0094725341797,240.77110968017578 324.7064725341797,314.40510968017577 312.99347253417966,372.4671096801758 C306.22647253417966,406.0151096801758 303.9724725341797,422.1031096801758 303.3294725341797,441.4671096801758 C302.51947253417967,465.87410968017576 305.5044725341797,477.3511096801758 314.7874725341797,485.5221096801758 C321.4104725341797,491.3521096801758 329.0574725341797,493.5791096801758 344.5734725341797,494.19610968017577 C355.7174725341797,494.6401096801758 358.20947253417967,494.45610968017576 361.3674725341797,492.9571096801758 C366.8714725341797,490.34510968017577 367.6404725341797,487.8921096801758 368.4194725341797,470.4671096801758 C370.6074725341797,421.5511096801758 377.5594725341797,377.2241096801758 396.4904725341797,291.4671096801758 C415.5384725341797,205.18110968017578 418.2564725341797,187.47210968017578 414.43147253417965,174.5891096801758 C413.5404725341797,171.5891096801758 411.3524725341797,167.66210968017577 409.3144725341797,165.40710968017578 C405.9574725341797,161.69210968017578 405.4334725341797,161.47010968017577 400.1214725341797,161.51110968017576 C397.02247253417966,161.53510968017576 392.7784725341797,162.16410968017578 390.69047253417966,162.9091096801758 M550.7444725341797,163.00110968017577 C514.5864725341796,167.93110968017578 479.30547253417967,185.88810968017577 459.0524725341797,209.6711096801758 C445.5924725341797,225.47710968017577 444.2104725341797,234.46710968017578 455.2404725341797,234.46710968017578 C460.84147253417973,234.46710968017578 467.7894725341797,231.90610968017577 486.0734725341797,223.10210968017577 C512.8204725341798,210.22310968017578 525.7104725341796,206.4451096801758 550.2224725341797,204.29810968017577 C560.8254725341797,203.3701096801758 566.5274725341797,203.36410968017577 575.2224725341797,204.2721096801758 C605.1614725341797,207.40110968017578 620.6554725341797,217.22010968017577 627.6004725341797,237.46710968017578 C630.5194725341796,245.97610968017577 630.2704725341797,267.3521096801758 627.1344725341796,277.4671096801758 C624.6494725341797,285.48310968017574 620.2494725341796,294.0151096801758 617.1564725341797,296.81410968017576 C615.4674725341797,298.3421096801758 614.4624725341797,298.4031096801758 607.8754725341796,297.37210968017575 C599.3844725341796,296.0431096801758 582.0974725341797,296.7971096801758 574.4874725341797,298.82810968017577 C560.4424725341796,302.5761096801758 554.3884725341798,310.0961096801758 556.4654725341798,321.2171096801758 C557.4374725341797,326.42510968017575 563.9634725341797,332.50910968017575 571.0244725341797,334.79210968017577 C580.2574725341797,337.7761096801758 595.9104725341797,339.0251096801758 605.8744725341796,337.5721096801758 L614.4874725341797,336.3171096801758 L618.7224725341797,340.9721096801758 C629.3424725341797,352.64610968017575 634.2134725341797,369.9311096801758 634.3614725341797,396.4671096801758 C634.4474725341797,411.8301096801758 634.2754725341797,413.45610968017576 631.8724725341797,420.06910968017576 C627.0574725341796,433.3151096801758 620.0434725341797,441.6471096801758 607.0514725341798,449.55710968017576 C593.9444725341797,457.5361096801758 574.2164725341797,461.33110968017576 555.3154725341797,459.50910968017575 C546.2064725341797,458.63110968017577 523.3234725341797,454.1371096801758 522.1894725341797,453.0031096801758 C521.9444725341797,452.7581096801758 522.9104725341797,435.5491096801758 524.3354725341796,414.7621096801758 C526.6664725341797,380.7551096801758 527.2754725341797,375.4141096801758 530.4044725341796,361.4671096801758 C534.8924725341797,341.46310968017576 541.2464725341797,310.36710968017576 545.1164725341797,289.4671096801758 C548.9734725341797,268.63610968017576 550.3504725341797,236.6181096801758 547.6634725341796,230.21710968017578 C546.2354725341797,226.8141096801758 545.7374725341797,226.4681096801758 542.2884725341796,226.47710968017577 C531.0734725341797,226.50610968017577 518.0154725341797,238.9681096801758 506.6004725341797,260.53510968017576 C485.2714725341797,300.83410968017574 467.1754725341797,370.02810968017576 464.4184725341797,421.8271096801758 L463.7344725341797,434.6881096801758 L460.6104725341797,434.1161096801758 C458.8934725341797,433.80210968017576 453.2124725341797,432.6331096801758 447.9874725341797,431.5191096801758 C435.6784725341797,428.8941096801758 430.97947253417965,428.8991096801758 427.6224725341797,431.54010968017576 C425.51747253417966,433.1951096801758 424.9914725341797,434.45310968017577 425.0094725341797,437.79010968017576 C425.1174725341797,458.30410968017577 462.5624725341797,481.3231096801758 517.9484725341797,494.9231096801758 C540.6214725341797,500.4901096801758 551.9954725341797,501.8921096801758 574.4874725341797,501.89310968017577 C595.8674725341797,501.8941096801758 606.2104725341796,500.80210968017576 622.9484725341797,496.7771096801758 C669.2014725341796,485.65310968017576 699.7694725341796,458.4091096801758 706.6834725341797,422.14610968017575 C707.8754725341796,415.8921096801758 708.0924725341797,410.67210968017577 707.6014725341797,399.9671096801758 C706.6514725341797,379.2241096801758 703.7734725341797,368.1521096801758 695.8424725341797,354.7341096801758 C691.0874725341797,346.6901096801758 675.1044725341796,330.9771096801758 664.7374725341797,324.15510968017577 C659.9254725341797,320.98810968017574 655.9874725341797,318.26110968017576 655.9874725341797,318.09510968017577 C655.9874725341797,317.92910968017577 659.5064725341797,315.47810968017575 663.8064725341796,312.6471096801758 C677.0034725341798,303.96310968017576 689.0794725341797,289.9181096801758 693.9284725341797,277.6151096801758 C697.7404725341796,267.9471096801758 699.3104725341797,256.9641096801758 698.6644725341797,244.49010968017578 C697.9894725341796,231.46010968017578 696.2874725341796,224.18110968017578 691.4714725341796,213.73910968017577 C682.2974725341796,193.84710968017578 665.3784725341798,179.97710968017577 638.9874725341797,170.71310968017576 C616.2934725341797,162.74710968017578 577.4874725341797,159.3551096801758 550.7444725341797,163.00110968017577 " stroke="none" fill="#240454" fill-rule="evenodd" id="xe_b169v6" oldFill="#240454"></path></g></g></g></g><g id="borderG" clip-path="url(#bound_0)" display="none"><rect id="border" x="235.72000000000003" y="71.32" width="483.76" height="483.76" aWidth="2.00" aHeight="2" fill="none" stroke-width="1" stroke="#000" pointer-events="none"></rect></g></svg>