<svg xmlns="http://www.w3.org/2000/svg" xmlns:xlink="http://www.w3.org/1999/xlink" version="1.1" width="1000" height="1000" viewBox="0 0 1000 1000" xml:space="preserve">
<desc>Created with Fabric.js 3.5.0</desc>
<defs>
</defs>
<rect x="0" y="0" width="100%" height="100%" fill="rgba(255,255,204,0)"/>
<g transform="matrix(0.9814 0 0 0.9823 501.0047 502.4464)" id="130693">
<g style="" vector-effect="non-scaling-stroke">
		<g transform="matrix(1 0 0 1 6.6088 -18.5271)" id="svgPath">
<path style="stroke: none; stroke-width: 1; stroke-dasharray: none; stroke-linecap: butt; stroke-dashoffset: 0; stroke-linejoin: miter; stroke-miterlimit: 4; is-custom-font: none; font-file-url: none; fill: rgb(171,172,155); fill-rule: evenodd; opacity: 1;" transform=" translate(-517.1088, -492.9729)" d="M 786 202.642 C 775.679 211.097 726.541 247.678 707.812 260.851 C 602.336 335.033 500.71 388.294 376.5 434.488 C 351.806 443.672 342.344 447.769 321.939 458.111 C 256.549 491.252 227.017 529.814 220.934 590 C 217.825 620.761 224.931 658.677 239.29 687.938 L 243.491 696.5 L 244.216 689 C 245.666 673.994 251.052 657.895 258.331 646.813 C 264.002 638.177 279.402 621.672 294.344 608.215 C 317.83 587.062 341.651 569.047 390.5 535.495 C 403.15 526.807 420.25 514.89 428.5 509.014 C 436.75 503.138 454.525 490.527 468 480.99 C 578.829 402.552 674.482 321.011 762.811 229.673 C 784.489 207.256 793.193 197.773 791.818 198.068 C 791.643 198.106 789.025 200.164 786 202.642 M 811.872 206.75 C 810.629 208.336 810.664 208.371 812.25 207.128 C 813.916 205.821 814.445 205 813.622 205 C 813.415 205 812.627 205.787 811.872 206.75 M 800.405 219.25 L 798.5 221.5 L 800.75 219.595 C 802.864 217.805 803.455 217 802.655 217 C 802.465 217 801.453 218.012 800.405 219.25 M 784.924 235.75 L 782.5 238.5 L 785.25 236.076 C 786.763 234.742 788 233.505 788 233.326 C 788 232.541 787.19 233.18 784.924 235.75 M 722.437 298.25 L 719.5 301.5 L 722.75 298.563 C 724.538 296.948 726 295.485 726 295.313 C 726 294.54 725.175 295.221 722.437 298.25 M 704.872 314.75 C 703.629 316.336 703.664 316.371 705.25 315.128 C 706.916 313.821 707.445 313 706.622 313 C 706.415 313 705.627 313.788 704.872 314.75 M 691.872 326.75 C 690.629 328.336 690.664 328.371 692.25 327.128 C 693.916 325.821 694.445 325 693.622 325 C 693.415 325 692.627 325.788 691.872 326.75 M 538.872 718.75 C 537.629 720.336 537.664 720.371 539.25 719.128 C 540.916 717.821 541.445 717 540.622 717 C 540.415 717 539.627 717.788 538.872 718.75 M 277.5 744 C 278.495 745.1 279.535 746 279.81 746 C 280.085 746 279.495 745.1 278.5 744 C 277.505 742.9 276.465 742 276.19 742 C 275.915 742 276.505 742.9 277.5 744 M 384.75 787.706 C 385.988 787.944 388.012 787.944 389.25 787.706 C 390.488 787.467 389.475 787.272 387 787.272 C 384.525 787.272 383.512 787.467 384.75 787.706" stroke-linecap="round"/>
</g>
		<g transform="matrix(1 0 0 1 0.5145 -0.242)" id="svgPath">
<path style="stroke: none; stroke-width: 1; stroke-dasharray: none; stroke-linecap: butt; stroke-dashoffset: 0; stroke-linejoin: miter; stroke-miterlimit: 4; is-custom-font: none; font-file-url: none; fill: rgb(4,92,12); fill-rule: evenodd; opacity: 1;" transform=" translate(-511.0146, -511.2579)" d="M 53.611 1.977 C 33.127 7.497 16.119 21.558 7.015 40.5 C -0.787 56.731 -0.112 9.684 0.211 514.5 L 0.5 966.5 L 3.577 974.665 C 8.004 986.415 12.477 993.423 21.007 1001.974 C 29.587 1010.575 37.904 1015.768 49.452 1019.735 L 57.5 1022.5 L 510.5 1022.5 L 963.5 1022.5 L 971.548 1019.735 C 983.018 1015.795 991.288 1010.617 999.953 1001.953 C 1008.955 992.95 1014.11 984.512 1017.639 973 C 1019.073 968.325 1020.64 963.719 1021.123 962.764 C 1022.218 960.595 1022.306 58.693 1021.211 59.37 C 1020.777 59.638 1019.843 57.302 1019.136 54.179 C 1014.749 34.809 999.412 16.091 980.5 7.025 C 964.39 -0.698 1011.081 -0.007 509.936 0.06 C 75.309 0.118 60.273 0.182 53.611 1.977 M 0.496 511.5 C 0.496 760.1 0.61 861.651 0.75 737.168 C 0.89 612.686 0.89 409.286 0.75 285.168 C 0.61 161.051 0.496 262.9 0.496 511.5 M 863.392 147.22 C 813.256 209.272 734.358 289.867 660 354.984 C 584.334 421.247 522.195 468.533 396.5 555.501 C 337.565 596.278 320.079 609.915 296.496 633.497 C 275.252 654.739 269.244 663.983 264.403 682.878 C 261.729 693.316 261.173 707.909 263.097 717.201 C 265.163 727.184 270.574 736.699 278.879 744.956 C 300.221 766.177 327.302 779.769 360 785.67 C 371.773 787.795 400.834 788.043 412.5 786.119 C 462.401 777.889 516.63 745.583 560.854 697.738 C 584.737 671.9 600.257 651.936 628.672 610.5 C 664.158 558.755 693.686 508.037 727.938 440 C 750.117 395.945 759.629 375.961 796.486 296 C 831.347 220.367 847.954 185.093 860.685 159.642 C 865.873 149.271 869.928 140.595 869.696 140.362 C 869.464 140.13 866.627 143.216 863.392 147.22 M 785.924 202.138 C 719.658 253.872 655.043 297.886 593.354 333.312 C 525.323 372.381 459.403 402.889 373.865 434.892 C 288.337 466.891 246.318 500.742 228.126 552.301 C 222.872 567.19 220.915 578.636 220.298 598.086 C 219.273 630.353 224.888 658.933 237.46 685.443 C 244.345 699.96 244.592 700.054 245.26 688.4 C 245.941 676.506 249.204 665.397 255.765 652.633 C 262.614 639.311 282.878 617.943 311 594.392 C 328.577 579.672 349.33 564.491 391.5 535.507 C 404.15 526.812 421.25 514.89 429.5 509.014 C 437.75 503.138 455.525 490.518 469 480.97 C 573.378 407.008 663.298 331.096 747.5 245.853 C 774.47 218.55 797.804 194 796.786 194 C 796.545 194 791.658 197.662 785.924 202.138" stroke-linecap="round"/>
</g>
		<g transform="matrix(1 0 0 1 33.8228 -46.5635)" id="svgPath">
<path style="stroke: none; stroke-width: 1; stroke-dasharray: none; stroke-linecap: butt; stroke-dashoffset: 0; stroke-linejoin: miter; stroke-miterlimit: 4; is-custom-font: none; font-file-url: none; fill: rgb(92,143,96); fill-rule: evenodd; opacity: 1;" transform=" translate(-544.3228, -464.9365)" d="M 866.603 142.833 C 866.32 143.292 866.723 143.667 867.5 143.667 C 868.277 143.667 868.68 143.292 868.397 142.833 C 868.114 142.375 867.71 142 867.5 142 C 867.29 142 866.886 142.375 866.603 142.833 M 839.872 174.75 C 838.629 176.336 838.664 176.371 840.25 175.128 C 841.916 173.821 842.445 173 841.622 173 C 841.415 173 840.627 173.787 839.872 174.75 M 825.872 190.75 C 824.629 192.336 824.664 192.371 826.25 191.128 C 827.916 189.821 828.445 189 827.622 189 C 827.415 189 826.627 189.787 825.872 190.75 M 794.441 195.468 C 793.374 196.276 793.007 196.951 793.628 196.968 C 794.248 196.986 795.315 196.325 796 195.5 C 797.581 193.595 796.935 193.582 794.441 195.468 M 817.405 200.25 L 815.5 202.5 L 817.75 200.595 C 819.864 198.805 820.455 198 819.655 198 C 819.465 198 818.453 199.012 817.405 200.25 M 783.924 207.75 L 781.5 210.5 L 784.25 208.076 C 786.82 205.81 787.459 205 786.674 205 C 786.495 205 785.258 206.238 783.924 207.75 M 807.405 211.25 L 805.5 213.5 L 807.75 211.595 C 809.864 209.805 810.455 209 809.655 209 C 809.465 209 808.453 210.012 807.405 211.25 M 767 225.5 C 764.571 227.975 762.809 230 763.084 230 C 763.359 230 765.571 227.975 768 225.5 C 770.429 223.025 772.191 221 771.916 221 C 771.641 221 769.429 223.025 767 225.5 M 794.924 224.75 L 792.5 227.5 L 795.25 225.076 C 796.763 223.742 798 222.505 798 222.326 C 798 221.541 797.19 222.18 794.924 224.75 M 776 244.5 C 773.571 246.975 771.809 249 772.084 249 C 772.359 249 774.571 246.975 777 244.5 C 779.429 242.025 781.191 240 780.916 240 C 780.641 240 778.429 242.025 776 244.5 M 709.453 283.25 L 705.5 287.5 L 709.75 283.547 C 713.702 279.871 714.46 279 713.703 279 C 713.54 279 711.627 280.913 709.453 283.25 M 732.462 288.25 L 727.5 293.5 L 732.75 288.538 C 737.628 283.926 738.459 283 737.712 283 C 737.554 283 735.192 285.363 732.462 288.25 M 691.437 300.25 L 688.5 303.5 L 691.75 300.563 C 693.538 298.948 695 297.485 695 297.313 C 695 296.54 694.175 297.221 691.437 300.25 M 710.924 308.75 L 708.5 311.5 L 711.25 309.076 C 712.763 307.742 714 306.505 714 306.326 C 714 305.541 713.19 306.18 710.924 308.75 M 678.437 312.25 L 675.5 315.5 L 678.75 312.563 C 680.538 310.948 682 309.485 682 309.313 C 682 308.54 681.175 309.221 678.437 312.25 M 697.405 321.25 L 695.5 323.5 L 697.75 321.595 C 699.864 319.805 700.455 319 699.655 319 C 699.465 319 698.453 320.012 697.405 321.25 M 667.405 322.25 L 665.5 324.5 L 667.75 322.595 C 669.864 320.805 670.455 320 669.655 320 C 669.465 320 668.453 321.012 667.405 322.25 M 657.405 331.25 L 655.5 333.5 L 657.75 331.595 C 659.864 329.805 660.455 329 659.655 329 C 659.465 329 658.453 330.012 657.405 331.25 M 685.405 332.25 L 683.5 334.5 L 685.75 332.595 C 687.864 330.805 688.455 330 687.655 330 C 687.465 330 686.453 331.012 685.405 332.25 M 648.872 338.75 C 647.629 340.336 647.664 340.371 649.25 339.128 C 650.916 337.821 651.445 337 650.622 337 C 650.415 337 649.627 337.788 648.872 338.75 M 674.872 341.75 C 673.629 343.336 673.664 343.371 675.25 342.128 C 676.916 340.821 677.445 340 676.622 340 C 676.415 340 675.627 340.788 674.872 341.75 M 640.872 345.75 C 639.629 347.336 639.664 347.371 641.25 346.128 C 642.916 344.821 643.445 344 642.622 344 C 642.415 344 641.627 344.788 640.872 345.75 M 632.872 352.75 C 631.629 354.336 631.664 354.371 633.25 353.128 C 634.916 351.821 635.445 351 634.622 351 C 634.415 351 633.627 351.788 632.872 352.75 M 657.872 356.75 C 656.629 358.336 656.664 358.371 658.25 357.128 C 659.916 355.821 660.445 355 659.622 355 C 659.415 355 658.627 355.788 657.872 356.75 M 625.872 358.75 C 624.629 360.336 624.664 360.371 626.25 359.128 C 627.212 358.373 628 357.585 628 357.378 C 628 356.555 627.179 357.084 625.872 358.75 M 619.872 363.75 C 618.629 365.336 618.664 365.371 620.25 364.128 C 621.916 362.821 622.445 362 621.622 362 C 621.415 362 620.627 362.788 619.872 363.75 M 606.872 374.75 C 605.629 376.336 605.664 376.371 607.25 375.128 C 608.916 373.821 609.445 373 608.622 373 C 608.415 373 607.627 373.788 606.872 374.75 M 274.872 486.75 C 273.629 488.336 273.664 488.371 275.25 487.128 C 276.916 485.821 277.445 485 276.622 485 C 276.415 485 275.627 485.788 274.872 486.75 M 268.405 492.25 L 266.5 494.5 L 268.75 492.595 C 270.864 490.805 271.455 490 270.655 490 C 270.465 490 269.453 491.012 268.405 492.25 M 254.872 505.75 C 253.629 507.336 253.664 507.371 255.25 506.128 C 256.212 505.373 257 504.585 257 504.378 C 257 503.555 256.179 504.084 254.872 505.75 M 221.079 580.583 C 221.127 581.748 221.364 581.985 221.683 581.188 C 221.972 580.466 221.936 579.603 221.604 579.271 C 221.272 578.939 221.036 579.529 221.079 580.583 M 220.195 589.5 C 220.215 591.15 220.439 591.704 220.693 590.731 C 220.947 589.758 220.93 588.408 220.656 587.731 C 220.382 587.054 220.175 587.85 220.195 589.5 M 302.872 600.75 C 301.629 602.336 301.664 602.371 303.25 601.128 C 304.916 599.821 305.445 599 304.622 599 C 304.415 599 303.627 599.788 302.872 600.75 M 293.437 609.25 L 290.5 612.5 L 293.75 609.563 C 296.779 606.825 297.46 606 296.687 606 C 296.515 606 295.052 607.462 293.437 609.25 M 312.872 617.75 C 311.629 619.336 311.664 619.371 313.25 618.128 C 314.916 616.821 315.445 616 314.622 616 C 314.415 616 313.627 616.788 312.872 617.75 M 220.158 620 C 220.158 621.375 220.385 621.938 220.662 621.25 C 220.94 620.563 220.94 619.438 220.662 618.75 C 220.385 618.063 220.158 618.625 220.158 620 M 295.971 633.75 L 289.5 640.5 L 296.25 634.029 C 302.52 628.018 303.457 627 302.721 627 C 302.568 627 299.53 630.038 295.971 633.75 M 221.079 629.583 C 221.127 630.748 221.364 630.985 221.683 630.188 C 221.972 629.466 221.936 628.603 221.604 628.271 C 221.272 627.939 221.036 628.529 221.079 629.583 M 267.946 634.75 L 264.5 638.5 L 268.25 635.054 C 271.74 631.846 272.46 631 271.696 631 C 271.529 631 269.842 632.688 267.946 634.75 M 281.872 648.75 C 280.629 650.336 280.664 650.371 282.25 649.128 C 283.916 647.821 284.445 647 283.622 647 C 283.415 647 282.627 647.788 281.872 648.75 M 244.3 693 C 244.3 696.025 244.487 697.263 244.716 695.75 C 244.945 694.237 244.945 691.763 244.716 690.25 C 244.487 688.737 244.3 689.975 244.3 693 M 550 708.5 C 547.571 710.975 545.809 713 546.084 713 C 546.359 713 548.571 710.975 551 708.5 C 553.429 706.025 555.191 704 554.916 704 C 554.641 704 552.429 706.025 550 708.5 M 534.872 722.75 C 533.629 724.336 533.664 724.371 535.25 723.128 C 536.916 721.821 537.445 721 536.622 721 C 536.415 721 535.627 721.788 534.872 722.75 M 281 747.378 C 281 747.585 281.788 748.373 282.75 749.128 C 284.336 750.371 284.371 750.336 283.128 748.75 C 281.821 747.084 281 746.555 281 747.378 M 377.269 787.693 C 378.242 787.947 379.592 787.93 380.269 787.656 C 380.946 787.382 380.15 787.175 378.5 787.195 C 376.85 787.215 376.296 787.439 377.269 787.693 M 395.269 787.693 C 396.242 787.947 397.592 787.93 398.269 787.656 C 398.946 787.382 398.15 787.175 396.5 787.195 C 394.85 787.215 394.296 787.439 395.269 787.693" stroke-linecap="round"/>
</g>
		<g transform="matrix(1 0 0 1 54.6533 -46.5537)" id="svgPath">
<path style="stroke: none; stroke-width: 1; stroke-dasharray: none; stroke-linecap: butt; stroke-dashoffset: 0; stroke-linejoin: miter; stroke-miterlimit: 4; is-custom-font: none; font-file-url: none; fill: rgb(230,239,231); fill-rule: evenodd; opacity: 1;" transform=" translate(-565.1533, -464.9463)" d="M 863.966 147.25 C 856.729 156.381 825.465 192.399 809.933 209.5 C 791.093 230.244 725.374 296.363 703.977 316.102 C 648.418 367.358 588.824 416.887 526.5 463.605 C 488.861 491.819 471.276 504.339 401 552.953 C 338.085 596.476 321.072 609.72 296.989 633.919 C 279.67 651.321 273.169 659.757 269.056 670.165 C 264.019 682.912 262.616 690.223 262.658 703.5 C 262.691 713.749 263.07 716.56 265.255 722.766 C 268.776 732.769 272.832 738.693 282.182 747.489 C 301.201 765.381 326.148 777.977 354.5 784.004 C 367.463 786.76 393.832 787.769 407.654 786.038 C 444.722 781.398 486.582 761.811 524.5 731.365 C 538.661 719.994 563.598 695.079 577.411 678.5 C 609.399 640.106 650.424 579.82 682.225 524.478 C 715.142 467.194 743.026 411.084 798.008 291.5 C 828.221 225.786 845.392 189.212 855.685 168.642 C 863.114 153.797 868.136 143 867.612 143 C 867.46 143 865.819 144.912 863.966 147.25" stroke-linecap="round"/>
</g>
		<g transform="matrix(1 0 0 1 -3.4944 -19.0608)" id="svgPath">
<path style="stroke: none; stroke-width: 1; stroke-dasharray: none; stroke-linecap: butt; stroke-dashoffset: 0; stroke-linejoin: miter; stroke-miterlimit: 4; is-custom-font: none; font-file-url: none; fill: rgb(133,152,124); fill-rule: evenodd; opacity: 1;" transform=" translate(-507.0056, -492.4392)" d="M 791.099 199.25 C 789.722 201.492 789.724 201.493 791.858 199.595 C 794.15 197.557 794.446 197 793.241 197 C 792.823 197 791.859 198.012 791.099 199.25 M 778.924 212.75 L 776.5 215.5 L 779.25 213.076 C 780.763 211.742 782 210.505 782 210.326 C 782 209.541 781.19 210.18 778.924 212.75 M 755 237.5 C 750.903 241.625 747.775 245 748.05 245 C 748.325 245 751.903 241.625 756 237.5 C 760.097 233.375 763.225 230 762.95 230 C 762.675 230 759.097 233.375 755 237.5 M 721.477 271.25 L 713.5 279.5 L 721.75 271.523 C 726.288 267.136 730 263.424 730 263.273 C 730 262.544 728.885 263.588 721.477 271.25 M 697.437 294.25 L 694.5 297.5 L 697.75 294.563 C 699.538 292.948 701 291.485 701 291.313 C 701 290.54 700.175 291.221 697.437 294.25 M 683.405 307.25 L 681.5 309.5 L 683.75 307.595 C 685.864 305.805 686.455 305 685.655 305 C 685.465 305 684.453 306.012 683.405 307.25 M 670.872 318.75 C 669.629 320.336 669.664 320.371 671.25 319.128 C 672.916 317.821 673.445 317 672.622 317 C 672.415 317 671.627 317.788 670.872 318.75 M 660.872 327.75 C 659.629 329.336 659.664 329.371 661.25 328.128 C 662.916 326.821 663.445 326 662.622 326 C 662.415 326 661.627 326.788 660.872 327.75 M 651.872 335.75 C 650.629 337.336 650.664 337.371 652.25 336.128 C 653.916 334.821 654.445 334 653.622 334 C 653.415 334 652.627 334.788 651.872 335.75 M 635.872 349.75 C 634.629 351.336 634.664 351.371 636.25 350.128 C 637.916 348.821 638.445 348 637.622 348 C 637.415 348 636.627 348.788 635.872 349.75 M 261.462 499.25 L 256.5 504.5 L 261.75 499.538 C 264.637 496.808 267 494.446 267 494.288 C 267 493.541 266.074 494.372 261.462 499.25 M 220.079 593.583 C 220.127 594.748 220.364 594.985 220.683 594.188 C 220.972 593.466 220.936 592.603 220.604 592.271 C 220.272 591.939 220.036 592.529 220.079 593.583 M 280.971 620.75 L 274.5 627.5 L 281.25 621.029 C 287.52 615.018 288.457 614 287.721 614 C 287.568 614 284.53 617.038 280.971 620.75 M 220.079 616.583 C 220.127 617.748 220.364 617.985 220.683 617.188 C 220.972 616.466 220.936 615.603 220.604 615.271 C 220.272 614.939 220.036 615.529 220.079 616.583 M 391.813 787.683 C 392.534 787.972 393.397 787.936 393.729 787.604 C 394.061 787.272 393.471 787.036 392.417 787.079 C 391.252 787.127 391.015 787.364 391.813 787.683" stroke-linecap="round"/>
</g>
</g>
</g>
</svg>