<svg xmlns="http://www.w3.org/2000/svg" xmlns:xlink="http://www.w3.org/1999/xlink" version="1.1" width="1000" height="1000" viewBox="0 0 1000 1000" xml:space="preserve">
<desc>Created with Fabric.js 3.5.0</desc>
<defs>
</defs>
<rect x="0" y="0" width="100%" height="100%" fill="#ffffff"/>
<g transform="matrix(0.8038 0 0 0.8037 499.9965 500.0155)" id="144499">
<g style="" vector-effect="non-scaling-stroke">
		<g transform="matrix(1 0 0 1 0.249 -160.9216)" id="422262">
<path style="stroke: none; stroke-width: 1; stroke-dasharray: none; stroke-linecap: butt; stroke-dashoffset: 0; stroke-linejoin: miter; stroke-miterlimit: 4; is-custom-font: none; font-file-url: none; fill: rgb(36,92,172); fill-rule: evenodd; opacity: 1;" transform=" translate(-600.249, -389.5784)" d="M 554.5 1.127 C 468.916 10.326 391.145 41.011 324 92.073 C 228.349 164.812 164.615 272.11 147.631 389 C 144.101 413.291 143.5 423.045 143.5 456 C 143.5 495.888 144.472 506.503 152.012 549 C 155.938 571.123 168.82 611.736 180.242 638 C 199.022 681.182 227.995 726.367 258.694 760.347 L 262.23 764.26 L 274.207 752.283 L 286.184 740.305 L 275.342 727.32 C 241.825 687.176 214.232 637.996 198.577 590.5 C 172.296 510.76 169.576 429.749 190.485 349.5 C 193.576 337.637 200.285 316.148 202.817 310 C 203.384 308.625 205.531 303.225 207.589 298 C 237.499 222.073 295.085 151.422 365.5 104.261 C 459.155 41.534 574.53 18.906 684.5 41.696 C 706.814 46.32 713.51 48.11 734.056 54.943 C 767.993 66.228 805.081 84.54 835.794 105.176 C 873.775 130.696 910.561 165.881 939.636 204.5 C 962.016 234.227 983.659 274.018 996.475 309 C 997.987 313.125 999.828 318.075 1000.567 320 C 1004.611 330.528 1011.803 357.605 1014.944 374.124 C 1020.731 404.561 1023.014 427.961 1022.981 456.5 C 1022.865 557.066 988.367 650.914 922.679 729.359 L 912.749 741.217 L 924.108 752.609 C 930.356 758.874 935.982 764 936.611 764 C 939.714 764 965.974 731.251 980.713 709 C 1031.04 633.019 1057.006 546.926 1056.998 456.063 C 1056.996 434.541 1054.671 402.373 1052.077 388 C 1051.532 384.975 1050.34 378.225 1049.43 373 C 1042.946 335.793 1029.194 293.875 1011.536 257.5 C 957.963 147.137 859.829 60.792 744.5 22.542 C 710.486 11.261 679.669 4.718 643.214 1.038 C 631.117 -0.183 566.081 -0.118 554.5 1.127 M 315.228 595.667 L 315.5 614.335 L 319.5 615.566 C 321.7 616.243 330.09 618.656 338.145 620.929 C 390.958 635.832 440.326 655.374 473.401 674.468 C 500.542 690.138 541.386 719.82 568.25 743.398 L 574 748.445 L 574 761.134 L 574 773.822 L 577.077 776.411 L 580.153 779 L 599.654 779 L 619.154 779 L 622.077 776.077 L 625 773.154 L 625 760.192 L 625 747.229 L 631.345 741.293 C 639.096 734.043 663.429 714.563 675 706.345 C 714.79 678.086 759.633 653.5 798.97 638.377 C 802.562 636.996 807.075 635.261 809 634.52 C 817.706 631.171 821.485 629.915 835.528 625.701 C 849.549 621.494 860.229 618.738 874.5 615.644 L 880.5 614.343 L 880.773 595.533 L 881.045 576.722 L 876.489 577.346 C 863.934 579.067 820.434 591.1 794.75 599.956 C 751.591 614.838 718.641 631.287 677.5 658.489 C 650.711 676.202 633.616 689.061 605.991 712.28 L 599.482 717.751 L 594.991 713.781 C 566.249 688.373 518.563 655.692 477.5 633.258 C 447.723 616.991 411.533 602.42 370.5 590.178 C 351.707 584.572 321.26 577.05 317.228 577.018 L 314.956 577 L 315.228 595.667" stroke-linecap="round"/>
</g>
		<g transform="matrix(1 0 0 1 0 126.5)" id="53449">
<path style="stroke: none; stroke-width: 1; stroke-dasharray: none; stroke-linecap: butt; stroke-dashoffset: 0; stroke-linejoin: miter; stroke-miterlimit: 4; is-custom-font: none; font-file-url: none; fill: rgb(4,4,4); fill-rule: evenodd; opacity: 1;" transform=" translate(-600, -677)" d="M 671.19 254.271 C 670.314 255.326 665.829 265.591 647.059 309.5 C 646.589 310.6 645.532 313.075 644.71 315 C 614.075 386.762 613.193 388.505 606.104 391.342 C 600.921 393.415 597.799 393.426 590.96 391.395 C 579.962 388.129 576.13 384.35 557.096 358 C 549.746 347.825 542.226 337.525 540.386 335.111 L 537.039 330.722 L 543.546 328.449 C 555.791 324.17 563.541 317.637 567.981 307.852 C 571.038 301.117 570.813 286.215 567.554 279.5 C 563.109 270.341 554.72 263.307 544.085 259.819 C 537.899 257.79 535.123 257.634 498.25 257.233 L 459 256.807 L 459 259.903 C 459 262.997 459.006 263 464.599 263 C 472.516 263 476.376 265.085 478.105 270.295 C 480.018 276.062 480.174 381.988 478.275 386.25 C 476.368 390.529 471.431 392.992 464.75 392.996 C 459.029 393 459 393.015 459 396 L 459 399 L 490 399 L 521 399 L 521 396.116 C 521 393.278 520.899 393.227 514.532 392.821 C 502.196 392.036 501 388.785 501 356.057 L 501 333 L 507.401 333 L 513.802 333 L 525.088 348.75 C 535.234 362.909 543.013 373.591 554.038 388.5 C 556.072 391.25 558.522 394.738 559.483 396.25 L 561.23 399 L 603.115 399 L 645 399 L 645 396 C 645 393.395 644.638 392.999 642.25 392.994 C 638.243 392.986 632.302 391.159 630.534 389.391 C 627.324 386.181 628.197 382.703 637.976 359.75 L 641.277 352 L 667.53 352 L 693.783 352 L 695.329 355.75 C 696.179 357.813 698.636 363.775 700.789 369 C 705.014 379.252 706.45 385.008 705.517 387.947 C 704.775 390.285 699.177 393 695.099 393 C 692.322 393 692 393.312 692 396 L 692 399 L 720.5 399 L 749 399 L 749 396.132 C 749 393.533 748.617 393.212 744.928 392.717 C 735.231 391.417 731.671 386.529 720.005 358.5 C 716.571 350.25 710.926 336.75 707.461 328.5 C 703.996 320.25 697.502 304.725 693.03 294 C 676.734 254.916 675.844 253 673.995 253 C 673.033 253 671.77 253.572 671.19 254.271 M 820.193 254.154 C 804.612 256.152 792.294 261.984 780.847 272.784 C 770.002 283.014 763.326 294.547 759.593 309.5 C 756.988 319.932 757.16 341.379 759.928 351.469 C 768.591 383.048 793.325 402 825.874 402 C 843.86 402 857.408 397.072 869.047 386.296 C 875.334 380.475 885 367.801 885 365.378 C 885 364.659 884.008 363.54 882.796 362.891 C 880.834 361.841 880.315 362.083 878.058 365.106 C 876.663 366.973 872.387 371.78 868.554 375.789 C 860.079 384.655 852.547 388.703 841.692 390.226 C 819.453 393.347 799.241 383.387 790.217 364.859 C 779.973 343.829 780.855 309.342 792.217 286.624 C 798.538 273.986 810.143 265.761 824.496 263.747 C 847.95 260.456 865.694 272.226 875.004 297.25 C 876.849 302.209 877.498 303 879.72 303 L 882.296 303 L 881.634 294.75 C 881.269 290.212 880.507 279.336 879.939 270.579 C 879.372 261.823 878.676 254.286 878.395 253.829 C 878.113 253.373 876.896 253.002 875.691 253.004 C 874.036 253.007 873.047 254.11 871.648 257.51 C 869.401 262.975 866.501 264.086 861.148 261.533 C 853.777 258.019 845.268 255.227 839.955 254.58 C 829.17 253.268 827.396 253.23 820.193 254.154 M 318.175 259.666 C 318.489 262.401 318.737 262.52 325.312 263.085 C 339.083 264.268 339.286 265.327 338.813 333.586 C 338.515 376.509 338.271 382.951 336.816 386.184 C 334.698 390.887 330.586 393 323.55 393 C 318.021 393 318 393.012 318 396.072 L 318 399.144 L 363.25 398.736 C 402.594 398.381 409.283 398.099 414.5 396.577 C 427.913 392.664 437.032 385.558 442.83 374.5 C 445.151 370.074 445.452 368.353 445.452 359.5 C 445.452 350.625 445.154 348.93 442.804 344.437 C 438.64 336.476 430.887 330.27 421.672 327.522 L 417.844 326.381 L 423.914 322.634 C 430.281 318.704 433.373 315.285 436.886 308.29 C 438.575 304.926 439 302.249 439 294.977 C 439 287.136 438.629 285.117 436.324 280.409 C 431.704 270.974 422.305 263.759 409 259.436 C 404.16 257.863 398.36 257.6 360.675 257.241 L 317.851 256.832 L 318.175 259.666 M 364.782 266.663 L 361.063 267.117 L 360.782 293.518 L 360.5 319.92 L 365.8 320.581 C 374.2 321.63 393.915 320.45 399.056 318.591 C 409.642 314.764 415.491 306.178 415.468 294.5 C 415.452 286.065 413.421 281.327 407.244 275.311 C 400.79 269.026 393.986 266.822 380 266.486 C 373.675 266.334 366.827 266.414 364.782 266.663 M 503.75 267.716 L 501 268.133 L 501 296.703 L 501 325.274 L 510.654 324.565 C 523.55 323.619 530.019 321.111 536.636 314.494 C 544.859 306.272 547.077 295.627 542.897 284.456 C 540.199 277.242 535.802 272.282 529.507 269.351 C 525.324 267.403 523.018 267.043 515.5 267.16 C 510.55 267.237 505.262 267.487 503.75 267.716 M 656.325 317.088 L 645.175 343 L 667.601 343 L 690.027 343 L 688.645 339.75 C 687.886 337.962 684.922 330.875 682.059 324 C 670.671 296.651 668.612 291.878 668.055 291.534 C 667.736 291.337 662.457 302.836 656.325 317.088 M 364.5 330.719 L 360.5 331.089 L 360.78 358.98 L 361.06 386.871 L 366.78 388.099 C 375.317 389.931 391.412 389.732 398.124 387.711 C 405.977 385.346 412.884 380.406 416.459 374.597 C 418.915 370.608 419.541 368.373 419.823 362.597 C 420.932 339.912 399.38 327.493 364.5 330.719 M 145.079 405.583 C 145.127 406.748 145.364 406.985 145.683 406.188 C 145.972 405.466 145.936 404.603 145.604 404.271 C 145.272 403.939 145.036 404.529 145.079 405.583 M 179.079 406.583 C 179.127 407.748 179.364 407.985 179.683 407.188 C 179.972 406.466 179.936 405.603 179.604 405.271 C 179.272 404.939 179.036 405.529 179.079 406.583 M 1020.079 408.583 C 1020.127 409.748 1020.364 409.985 1020.683 409.188 C 1020.972 408.466 1020.936 407.603 1020.604 407.271 C 1020.272 406.939 1020.036 407.529 1020.079 408.583 M 142.365 456.5 C 142.368 462 142.536 464.122 142.738 461.216 C 142.941 458.311 142.939 453.811 142.734 451.216 C 142.528 448.622 142.363 451 142.365 456.5 M 733 455.006 C 725.356 456.001 718.163 460.966 715.05 467.396 C 712.641 472.374 712.309 481.41 714.356 486.31 C 716.347 491.074 724.319 497.709 736.105 504.412 C 749.147 511.829 752.679 514.426 755.081 518.366 C 760.554 527.341 753.422 537.015 741.349 536.99 C 735.332 536.978 727.383 533.432 723.783 529.155 C 721.495 526.435 718 517.334 718 514.096 C 718 513.493 717.1 513 716 513 C 714.086 513 714 513.667 714 528.5 C 714 543.037 714.117 544 715.892 544 C 717.075 544 718.018 543.064 718.411 541.5 C 719.17 538.473 720.033 538.429 727.593 541.037 C 744.743 546.952 759.346 543.321 767.118 531.209 C 769.912 526.854 770.113 525.936 769.793 519 C 769.226 506.713 765.635 502.848 743.657 490.866 C 738.244 487.915 731.832 483.669 729.407 481.43 C 725.595 477.909 725 476.814 725 473.315 C 725 468.524 727.46 464.959 732.374 462.627 C 737.051 460.408 740.589 460.596 746.571 463.381 C 753.042 466.394 757.351 471.628 758.992 478.465 C 760.601 485.174 761.382 486.451 763.399 485.677 C 764.772 485.15 765 482.85 765 469.531 C 765 454.603 764.921 454 762.975 454 C 761.736 454 760.582 454.969 760 456.5 C 758.863 459.491 757.577 459.585 751.287 457.137 C 745.641 454.94 739.237 454.194 733 455.006 M 229 458.5 C 229 460.742 229.405 461 232.929 461 C 236.142 461 238.374 462.029 240.137 464.321 C 240.213 464.42 240.574 477.775 240.939 494 C 241.674 526.606 241.837 527.493 248.411 534.77 C 250.394 536.965 254.375 539.81 257.258 541.093 C 261.762 543.097 264.119 543.425 274 543.425 C 287.597 543.425 293.166 541.533 299.704 534.692 C 306.929 527.132 307.307 525.207 307.939 492.667 C 308.586 459.428 308.074 461 318.241 461 C 324.571 461 328.19 462.408 331.802 466.275 L 334.104 468.74 L 333.802 501.218 C 333.462 537.813 333.63 537 326.378 537 C 322.363 537 322 537.209 322 539.525 L 322 542.051 L 337.75 541.775 C 352.742 541.513 353.5 541.404 353.5 539.5 C 353.5 537.829 352.733 537.45 348.83 537.198 C 346.08 537.021 343.613 536.239 342.83 535.296 C 341.808 534.066 341.436 527.177 341.224 505.597 C 340.998 482.684 341.183 477.791 342.224 479.079 C 374.311 518.781 394.745 543 396.155 543 C 397.769 543 397.913 540.253 398.196 504.104 C 398.541 460.019 398.282 461.391 406.358 460.802 C 409.733 460.556 410.5 460.129 410.5 458.5 C 410.5 456.596 409.742 456.487 394.75 456.225 L 379 455.949 L 379 458.475 C 379 460.799 379.356 461 383.477 461 C 390.963 461 391.08 461.481 390.767 490.982 L 390.5 516.261 L 378.5 501.488 C 371.9 493.363 364.025 483.727 361 480.076 C 357.975 476.424 352.35 469.514 348.5 464.719 L 341.5 456.001 L 314.75 456.001 L 288 456 L 288 458.5 C 288 460.794 288.368 461 292.477 461 C 300.153 461 300.221 461.303 299.83 493.701 C 299.465 523.99 299.376 524.49 293.339 530.173 C 284.098 538.873 265.586 538.384 259.236 529.273 C 255.676 524.164 255 518.101 255 491.28 C 255 461.694 255.088 461.327 262.267 460.807 C 265.783 460.552 266.554 460.119 266.82 458.25 L 267.139 456 L 248.07 456 L 229 456 L 229 458.5 M 414 458.5 C 414 460.733 414.41 461 417.845 461 C 425.128 461 425 460.325 425 498.894 C 425 520.583 424.621 533.84 423.965 535.066 C 423.179 536.535 421.856 537 418.465 537 C 414.369 537 414 537.207 414 539.5 L 414 542 L 432.5 542 L 451 542 L 451 539.555 C 451 537.349 450.537 537.08 446.274 536.805 C 438.996 536.335 439.032 536.52 439.015 499.815 C 438.997 461.916 439.181 461.048 447.25 461.015 C 450.579 461.002 451 460.719 451 458.5 L 451 456 L 432.5 456 L 414 456 L 414 458.5 M 453.18 458.213 C 453.411 459.809 454.418 460.613 456.791 461.095 C 461.024 461.956 463.681 464.408 466.078 469.67 C 467.135 471.991 468 474.133 468 474.429 C 468 474.726 469.35 477.755 471 481.161 C 472.65 484.568 474 487.727 474 488.182 C 474 488.637 475.142 491.37 476.538 494.255 C 477.935 497.14 480.696 503.325 482.675 508 C 484.654 512.675 487.478 519.2 488.95 522.5 C 490.422 525.8 493.15 532.007 495.013 536.293 C 499.819 547.352 501.021 546.882 507.272 531.5 C 531.442 472.024 534.03 466.153 537.274 463.423 C 538.858 462.09 541.019 461 542.077 461 C 543.462 461 544 460.3 544 458.5 L 544 456 L 530 456 L 516 456 L 516 458.5 C 516 460.469 516.507 461 518.389 461 C 519.703 461 521.801 461.828 523.051 462.84 C 526.256 465.435 526.547 464.467 511.376 501.676 C 504.013 519.732 503.489 520.695 502.386 518.176 C 478.95 464.639 479.514 466.139 481.672 463.058 C 482.652 461.658 484.215 461 486.557 461 C 489.563 461 490 460.683 490 458.5 L 490 456 L 471.43 456 L 452.861 456 L 453.18 458.213 M 546 458.5 C 546 460.792 546.37 461 550.443 461 C 558.117 461 558 460.403 558 499.568 C 558 537.94 558.278 536.546 550.5 537.176 C 547.233 537.441 546.441 537.912 546.18 539.75 L 545.861 542 L 579.232 542 L 612.604 542 L 616.052 531.75 C 620.608 518.207 620.498 518.989 617.823 519.07 C 616.113 519.121 614.433 520.771 611.459 525.32 C 605.666 534.181 603.593 534.997 586.857 534.998 C 575.338 535 573.119 534.754 572.607 533.418 C 572.273 532.548 572 524.898 572 516.418 L 572 501 L 583.889 501 C 597.568 501 599.443 501.833 600.78 508.5 C 601.392 511.555 602.103 512.575 603.791 512.82 C 605.989 513.137 606 513.06 606 497.57 C 606 482.848 605.895 482 604.067 482 C 602.918 482 601.878 482.912 601.5 484.25 C 599.005 493.1 597.21 493.986 581.75 493.994 L 572 494 L 572 478.5 L 572 463 L 586.05 463 C 604.402 463 606.171 463.893 608.454 474.315 C 608.935 476.512 609.557 477.061 611.285 476.815 C 613.423 476.511 613.488 476.171 613.146 467 C 612.951 461.775 612.587 457.163 612.337 456.75 C 612.087 456.337 597.059 456 578.941 456 L 546 456 L 546 458.5 M 623 458.5 C 623 460.729 623.413 461 626.809 461 C 628.904 461 631.491 461.639 632.559 462.419 C 634.416 463.777 634.5 465.345 634.5 498.765 C 634.5 538.121 634.709 537 627.378 537 C 623.365 537 623 537.21 623 539.522 L 623 542.044 L 641.75 541.772 C 659.743 541.511 660.5 541.419 660.5 539.5 C 660.5 537.824 659.732 537.451 655.756 537.195 C 649.148 536.771 648.652 535.496 648.175 517.687 L 647.779 502.874 L 651.809 503.187 C 655.797 503.497 655.981 503.695 669.718 522.5 L 683.598 541.5 L 695.872 541.781 C 708.128 542.062 708.147 542.059 707.824 539.795 C 707.575 538.056 706.662 537.392 703.905 536.946 C 697.2 535.863 693.773 532.775 682.271 517.456 C 676.095 509.23 671.032 502.224 671.021 501.887 C 671.009 501.55 673.864 499.865 677.364 498.141 C 686.598 493.596 689.487 489.019 689.494 478.927 C 689.499 472.494 689.124 470.798 687 467.663 C 680.664 458.311 672.141 456.042 643.25 456.017 L 623 456 L 623 458.5 M 778 458.5 C 778 460.794 778.368 461 782.477 461 C 790.219 461 790.12 460.466 789.788 500.3 C 789.629 519.295 789.144 535.192 788.708 535.627 C 788.272 536.061 785.797 536.661 783.208 536.959 C 779.286 537.41 778.447 537.876 778.18 539.75 L 777.861 542 L 797 542 L 816.139 542 L 815.82 539.75 C 815.556 537.892 814.72 537.413 811.024 537 C 803.891 536.203 803.937 536.468 804.238 497.902 C 804.533 460.063 804.346 461 811.622 461 C 815.625 461 816 460.786 816 458.5 L 816 456 L 797 456 L 778 456 L 778 458.5 M 821.667 456.667 C 821.3 457.033 821 461.983 821 467.667 C 821 477.139 821.158 478 822.893 478 C 824.867 478 826 476.16 826 472.953 C 826 471.917 827.397 469.479 829.104 467.535 L 832.207 464 L 841.192 464 L 850.177 464 L 849.838 498.847 C 849.57 526.53 849.218 534.035 848.128 535.347 C 847.234 536.424 845.228 537 842.378 537 C 838.365 537 838 537.21 838 539.522 L 838 542.044 L 856.75 541.772 C 874.743 541.511 875.5 541.419 875.5 539.5 C 875.5 537.84 874.734 537.449 871 537.203 C 868.283 537.024 866.005 536.255 865.25 535.262 C 864.305 534.019 864 525.112 864 498.809 L 864 464 L 872.423 464 C 879.937 464 881.166 464.269 883.801 466.486 C 885.662 468.052 887.176 470.643 887.892 473.486 C 888.795 477.071 889.467 478 891.161 478 C 893.208 478 893.268 477.694 892.647 470.349 C 892.291 466.141 892 461.191 892 459.349 L 892 456 L 857.167 456 C 838.008 456 822.033 456.3 821.667 456.667 M 895.38 457.452 C 894.579 459.54 895.563 460.663 898.756 461.301 C 903.735 462.297 906.527 465.607 919.872 486.338 L 933 506.733 L 933 520.175 C 933 529.386 932.606 534.135 931.75 535.262 C 930.995 536.255 928.717 537.024 926 537.203 C 922.266 537.449 921.5 537.84 921.5 539.5 C 921.5 541.43 922.167 541.5 940.5 541.5 C 958.833 541.5 959.5 541.43 959.5 539.5 C 959.5 537.845 958.727 537.445 955.02 537.181 C 952.555 537.006 949.968 536.388 949.27 535.809 C 948.347 535.043 948 530.678 948 519.856 L 948 504.957 L 953.75 495.948 C 973.62 464.818 975.549 462.449 982.123 461.113 C 984.578 460.613 985.587 459.822 985.82 458.213 C 986.138 456.01 986.068 456 970.57 456 L 955 456 L 955 458.5 C 955 460.48 955.505 461 957.429 461 C 960.922 461 963.288 463.717 962.506 466.831 C 961.612 470.396 944.707 496.995 943.555 496.652 C 942.122 496.224 924 466.937 924 465.048 C 924 462.485 926.091 461 929.7 461 C 932.553 461 933 460.662 933 458.5 L 933 456 L 914.469 456 C 899.19 456 895.839 456.255 895.38 457.452 M 650.75 463.66 L 648 464.133 L 648 480.705 L 648 497.276 L 654.729 496.587 C 663.188 495.72 668.726 492.755 671.703 487.497 C 675.784 480.291 673.709 470.777 667.016 466.011 C 663.935 463.818 656.274 462.71 650.75 463.66 M 179.079 506.583 C 179.127 507.748 179.364 507.985 179.683 507.188 C 179.972 506.466 179.936 505.603 179.604 505.271 C 179.272 504.939 179.036 505.529 179.079 506.583 M 145.079 507.583 C 145.127 508.748 145.364 508.985 145.683 508.188 C 145.972 507.466 145.936 506.603 145.604 506.271 C 145.272 505.939 145.036 506.529 145.079 507.583 M 315.228 698.167 L 315.5 717.293 L 328 720.739 C 389.292 737.639 442.773 758.759 478 779.974 C 505.544 796.562 537.019 819.522 564.75 843.256 L 574 851.172 L 574 863.912 C 574 876.31 574.069 876.716 576.578 879.076 C 579.101 881.448 579.578 881.507 598.934 881.807 L 618.711 882.114 L 621.856 879.468 L 625 876.822 L 625 863.491 L 625 850.16 L 630.25 845.161 C 649.577 826.758 684.36 801.329 717 781.741 C 756.998 757.737 798.85 739.098 839.5 727.183 C 854.689 722.731 874.759 718 878.456 718 L 881 718 L 881 698.481 L 881 678.962 L 878.75 679.466 C 859.939 683.684 852.899 685.316 848.62 686.451 C 776.77 705.501 729.106 726.47 674 763.274 C 651.87 778.053 606.297 813.105 601.176 819.285 C 600.003 820.7 598.639 819.837 589.176 811.691 C 556.892 783.896 504.959 749.491 465.173 729.541 C 433.361 713.589 397.344 700.148 355.5 688.615 C 347.943 686.532 322.581 680.42 318.228 679.633 L 314.957 679.041 L 315.228 698.167 M 257.381 1020.541 C 254.191 1025.41 259.654 1030.861 264.907 1028.05 C 267.276 1026.782 267.836 1021.236 265.8 1019.2 C 263.665 1017.065 259.192 1017.777 257.381 1020.541 M 360.381 1020.541 C 357.191 1025.41 362.654 1030.861 367.907 1028.05 C 370.276 1026.782 370.836 1021.236 368.8 1019.2 C 366.665 1017.065 362.192 1017.777 360.381 1020.541 M 875 1020.669 C 868.41 1023.672 868.805 1023.327 869.595 1025.387 C 870.032 1026.526 870.877 1026.856 872.243 1026.423 C 873.452 1026.039 874.592 1026.326 875.11 1027.143 C 876.36 1029.117 876.228 1074.706 874.965 1077.066 C 874.395 1078.13 873.045 1079 871.965 1079 C 870.667 1079 870 1079.679 870 1081 C 870 1082.879 870.667 1083 881 1083 C 891.333 1083 892 1082.879 892 1081 C 892 1079.528 891.333 1079 889.475 1079 C 887.685 1079 886.667 1078.254 885.975 1076.435 C 885.426 1074.99 885 1061.665 885 1045.935 L 885 1018 L 882.75 1018.082 C 881.513 1018.127 878.025 1019.291 875 1020.669 M 923.71 1020.763 C 919.711 1022.545 918.02 1023.832 918.245 1024.922 C 918.459 1025.959 919.455 1026.409 921.152 1026.233 C 923.427 1025.998 923.807 1026.413 924.355 1029.733 C 925.359 1035.805 925.091 1073.63 924.025 1076.435 C 923.421 1078.023 922.278 1079 921.025 1079 C 919.667 1079 919 1079.659 919 1081 C 919 1082.879 919.667 1083 930 1083 C 940.333 1083 941 1082.879 941 1081 C 941 1079.541 940.333 1079 938.535 1079 C 937.122 1079 935.629 1078.175 935.035 1077.066 C 934.391 1075.862 934 1064.344 934 1046.566 L 934 1018 L 931.75 1018.092 C 930.513 1018.142 926.894 1019.345 923.71 1020.763 M 0 1022.421 C 0 1023.202 1.377 1024.144 3.06 1024.513 C 5.038 1024.948 6.452 1026.059 7.06 1027.658 C 7.577 1029.018 8 1040.126 8 1052.343 C 8 1076.561 7.492 1079 2.443 1079 C 0.667 1079 0 1079.546 0 1081 C 0 1082.897 0.667 1083 13 1083 C 25.333 1083 26 1082.897 26 1081 C 26 1079.549 25.333 1079 23.571 1079 C 18.226 1079 18 1077.901 18 1051.929 C 18 1029.333 18.111 1027.889 20 1026 C 21.1 1024.9 22.9 1024 24 1024 C 25.111 1024 26 1023.333 26 1022.5 C 26 1021.244 23.889 1021 13 1021 C 2.434 1021 0 1021.266 0 1022.421 M 592 1022.5 C 592 1023.4 592.923 1024 594.309 1024 C 595.579 1024 597.491 1024.639 598.559 1025.419 C 600.391 1026.759 600.5 1028.247 600.5 1051.956 C 600.5 1079.315 600.577 1078.952 594.75 1078.985 C 592.664 1078.996 592 1079.487 592 1081.018 C 592 1082.993 592.507 1083.03 616.158 1082.768 L 640.316 1082.5 L 642.658 1075.555 C 643.946 1071.736 645 1068.023 645 1067.305 C 645 1064.409 641.32 1066.39 638.5 1070.804 C 636.428 1074.048 634.418 1075.869 632 1076.694 C 627.338 1078.283 613.756 1078.356 612.2 1076.8 C 611.408 1076.008 611 1071.756 611 1064.3 L 611 1053 L 619.345 1053 C 628.475 1053 630.101 1053.852 631.401 1059.316 C 631.864 1061.261 632.602 1062.031 633.786 1061.803 C 635.281 1061.515 635.5 1060.068 635.5 1050.5 C 635.5 1041.076 635.266 1039.482 633.842 1039.208 C 632.697 1038.988 631.98 1039.814 631.527 1041.875 C 630.536 1046.389 628.626 1047.326 619.427 1047.809 L 611 1048.251 L 611 1037.125 L 611 1026 L 620.25 1026.1 C 632.912 1026.236 634.194 1026.7 635.969 1031.789 C 636.954 1034.611 638.026 1036 639.219 1036 C 640.703 1036 640.998 1035.123 640.986 1030.75 C 640.979 1027.862 640.701 1024.487 640.37 1023.25 L 639.767 1021 L 615.883 1021 C 595.32 1021 592 1021.209 592 1022.5 M 57.5 1041.647 C 50.348 1044.705 50.811 1044.344 51.556 1046.284 C 51.923 1047.242 53.2 1047.786 54.829 1047.677 L 57.5 1047.5 L 57.778 1061.864 C 58.068 1076.822 57.572 1079 53.878 1079 C 52.667 1079 52 1079.71 52 1081 C 52 1082.879 52.667 1083 63 1083 C 73.333 1083 74 1082.879 74 1081 C 74 1079.541 73.333 1079 71.535 1079 C 67.809 1079 67 1076.259 67 1063.637 C 67 1051.142 67.258 1050.469 73.233 1047.379 C 77.307 1045.273 80.491 1046.707 81.358 1051.039 C 81.711 1052.805 82 1059.279 82 1065.425 C 82 1077.29 81.408 1079 77.3 1079 C 75.654 1079 75 1079.578 75 1081.033 C 75 1082.973 75.514 1083.053 86.25 1082.783 C 95.299 1082.555 97.5 1082.215 97.5 1081.045 C 97.5 1080.245 96.391 1079.328 95.036 1079.009 C 91.712 1078.224 91.218 1075.886 91.1 1060.398 C 91.01 1048.554 90.784 1046.977 88.75 1043.975 C 84.644 1037.915 76.844 1037.564 70.479 1043.153 L 67 1046.207 L 67 1042.604 C 67 1038.182 65.87 1038.069 57.5 1041.647 M 131.24 1040.541 C 127.216 1042.233 124.009 1047.389 124.004 1052.173 C 123.999 1057.183 127.337 1060.878 135.964 1065.412 C 139.825 1067.44 143.475 1070.02 144.077 1071.143 C 145.687 1074.153 144.397 1077.862 141.485 1078.593 C 135.92 1079.99 129.831 1075.907 128.647 1069.986 C 128.22 1067.851 127.473 1067 126.025 1067 C 124.162 1067 124 1067.634 124 1074.941 C 124 1082.798 124.925 1085.115 127.294 1083.194 C 128.082 1082.555 130.243 1082.578 133.53 1083.26 C 140.321 1084.67 145.446 1083.534 149.642 1079.689 C 152.209 1077.336 153.271 1075.401 153.684 1072.316 C 154.53 1066.016 151.641 1062.099 142.743 1057.481 C 133.896 1052.89 132 1051.313 132 1048.545 C 132 1045.491 133.886 1044 137.748 1044 C 141.67 1044 145.522 1047.549 146.517 1052.079 C 146.955 1054.07 147.77 1055 149.079 1055 C 150.808 1055 151 1054.226 151 1047.25 L 151 1039.5 L 142.72 1039.348 C 137.696 1039.255 133.182 1039.725 131.24 1040.541 M 185.25 1041.728 C 180.794 1043.6 179 1044.882 179 1046.196 C 179 1047.659 179.512 1047.91 181.485 1047.414 C 183.534 1046.9 184.148 1047.259 184.985 1049.46 C 186.286 1052.883 186.32 1092.028 185.025 1095.435 C 184.275 1097.408 183.351 1098 181.025 1098 C 179.003 1098 178 1098.497 178 1099.5 C 178 1100.746 179.944 1101 189.5 1101 C 198.819 1101 201 1100.728 201 1099.566 C 201 1098.746 199.824 1097.998 198.25 1097.816 C 195.544 1097.505 195.495 1097.375 195.209 1089.788 L 194.917 1082.075 L 198.028 1083.16 C 209.518 1087.165 221.583 1077.156 222.734 1062.665 C 223.35 1054.901 221.762 1048.937 217.908 1044.548 C 212.436 1038.316 204.11 1037.512 198.029 1042.629 L 195 1045.178 L 195 1042.089 C 195 1038.236 193.683 1038.187 185.25 1041.728 M 257 1041.446 C 253.24 1043.063 251.401 1044.457 251.187 1045.852 C 250.93 1047.533 251.372 1047.859 253.687 1047.697 L 256.5 1047.5 L 256.778 1061.864 C 257.068 1076.822 256.572 1079 252.878 1079 C 251.667 1079 251 1079.71 251 1081 C 251 1082.879 251.667 1083 262 1083 C 272.089 1083 273 1082.845 273 1081.125 C 273 1079.842 272.053 1079.061 270 1078.65 L 267 1078.05 L 267 1058.525 L 267 1039 L 264.75 1039.04 C 263.512 1039.062 260.025 1040.145 257 1041.446 M 303.5 1041.647 C 296.348 1044.705 296.811 1044.344 297.556 1046.284 C 297.923 1047.242 299.2 1047.786 300.829 1047.677 L 303.5 1047.5 L 303.778 1061.864 C 304.068 1076.822 303.572 1079 299.878 1079 C 298.667 1079 298 1079.71 298 1081 C 298 1082.879 298.667 1083 309 1083 C 318.882 1083 320 1082.819 320 1081.219 C 320 1080.159 318.786 1078.98 317 1078.306 L 314 1077.174 L 314 1064.722 C 314 1053.633 314.227 1051.981 316.076 1049.631 C 317.999 1047.185 318.308 1047.102 320.298 1048.496 C 324.868 1051.697 329 1049.78 329 1044.461 C 329 1042.067 328.395 1041.045 326.453 1040.161 C 322.613 1038.411 320.464 1038.738 317.077 1041.589 L 314 1044.178 L 314 1041.589 C 314 1038.213 311.501 1038.227 303.5 1041.647 M 360.497 1041.29 C 357.746 1042.506 354.953 1043.852 354.291 1044.282 C 352.274 1045.593 353.974 1047.867 356.829 1047.677 L 359.5 1047.5 L 359.778 1061.864 C 360.068 1076.822 359.572 1079 355.878 1079 C 354.667 1079 354 1079.71 354 1081 C 354 1082.879 354.667 1083 365 1083 C 375.207 1083 376 1082.861 376 1081.066 C 376 1079.7 375.193 1079.04 373.25 1078.816 L 370.5 1078.5 L 370.229 1058.75 C 369.959 1039.058 369.951 1039 367.729 1039.04 C 366.503 1039.062 363.249 1040.075 360.497 1041.29 M 406.5 1041.647 C 399.348 1044.705 399.811 1044.344 400.556 1046.284 C 400.923 1047.242 402.2 1047.786 403.829 1047.677 L 406.5 1047.5 L 406.778 1061.864 C 407.068 1076.822 406.572 1079 402.878 1079 C 401.667 1079 401 1079.71 401 1081 C 401 1082.879 401.667 1083 412 1083 C 422.207 1083 423 1082.861 423 1081.066 C 423 1079.7 422.193 1079.04 420.25 1078.816 L 417.5 1078.5 L 417.5 1064.54 L 417.5 1050.58 L 420.898 1048.29 C 424.862 1045.618 425.93 1045.497 428.559 1047.419 C 430.273 1048.671 430.541 1050.356 430.847 1061.803 C 431.231 1076.103 430.492 1079 426.465 1079 C 424.667 1079 424 1079.541 424 1081 C 424 1082.879 424.667 1083 435 1083 C 445.333 1083 446 1082.879 446 1081 C 446 1079.659 445.333 1079 443.975 1079 C 440.835 1079 440 1075.13 440 1060.583 C 440 1048.454 439.804 1047.006 437.75 1043.975 C 433.803 1038.149 426.053 1037.56 420.029 1042.629 L 417 1045.178 L 417 1042.089 C 417 1038.164 414.859 1038.073 406.5 1041.647 M 485.594 1040.041 C 479.068 1041.993 474.382 1049.151 474.865 1056.43 C 475.078 1059.637 478.371 1065.624 480.272 1066.257 C 481.038 1066.513 480.511 1067.792 478.803 1069.823 C 477.337 1071.564 475.857 1073.875 475.514 1074.957 C 474.817 1077.153 476.488 1081 478.139 1081 C 478.726 1081 477.78 1082.625 476.037 1084.611 C 471.493 1089.786 470.577 1092.705 472.551 1095.719 C 475.11 1099.624 479.858 1101 490.772 1101 C 499.968 1101 500.914 1100.806 505.306 1098.021 C 515.671 1091.447 516.957 1081.132 507.989 1076.494 C 506.091 1075.513 502.186 1075 496.615 1075 C 491.948 1075 486.958 1074.554 485.525 1074.009 C 483.264 1073.15 483.067 1072.743 484.035 1070.934 C 484.976 1069.176 485.748 1068.951 488.963 1069.494 C 494.083 1070.359 500.378 1068.527 504.289 1065.034 C 507.331 1062.317 507.5 1061.795 507.5 1055.086 L 507.5 1048.005 L 510.75 1048.002 C 513.694 1048 514 1047.717 514 1045 C 514 1042.05 513.913 1042 508.75 1041.985 C 505.863 1041.977 501.7 1041.321 499.5 1040.529 C 495.026 1038.917 489.948 1038.739 485.594 1040.041 M 755.791 1039.988 C 751.359 1041.324 747.174 1044.847 744.405 1049.573 C 742.032 1053.621 741.832 1054.796 742.151 1062.845 C 742.455 1070.544 742.854 1072.186 745.264 1075.661 C 753.775 1087.936 769.332 1086.253 775.688 1072.37 C 777.034 1069.431 777.853 1066.571 777.508 1066.013 C 776.305 1064.067 774.44 1065.027 772.528 1068.577 C 770.527 1072.293 766.552 1075 763.097 1075 C 754.027 1075 747.775 1059.832 752.639 1049.631 C 755.78 1043.044 765 1041.935 765 1048.144 C 765 1049.104 766.078 1051.142 767.396 1052.674 C 769.503 1055.124 770.135 1055.339 772.646 1054.462 C 774.86 1053.688 775.57 1052.749 775.81 1050.278 C 776.244 1045.82 774.716 1043.525 769.701 1041.097 C 765.239 1038.937 760.525 1038.561 755.791 1039.988 M 819.243 1039.792 C 815.128 1041.083 809.796 1046.207 807.746 1050.842 C 805.308 1056.352 805.11 1066.783 807.345 1072 C 809.144 1076.201 814.433 1081.475 818.315 1082.939 C 827.794 1086.512 839.542 1079.538 841.63 1069.098 C 842.332 1065.592 840.15 1063.738 838.562 1066.489 C 832.189 1077.528 821.952 1077.318 816.25 1066.03 C 812.209 1058.032 812.122 1058.094 827.75 1057.778 L 841.5 1057.5 L 841.813 1054.784 C 842.248 1051.01 839.342 1045.363 835.43 1042.379 C 831.962 1039.733 823.659 1038.407 819.243 1039.792 M 981.243 1039.792 C 973.251 1042.299 967.684 1051.447 967.742 1061.977 C 967.784 1069.721 968.759 1072.517 973.167 1077.538 C 978.578 1083.7 986.693 1085.762 992.901 1082.551 C 998.528 1079.641 1004.984 1070.007 1003.645 1066.518 C 1002.773 1064.245 1000.229 1064.689 999.452 1067.25 C 997.587 1073.402 990.712 1076.454 985.173 1073.59 C 981.066 1071.466 977.037 1066.006 976.321 1061.593 L 975.738 1058 L 989.869 1058 L 1004 1058 L 1003.978 1055.25 C 1003.944 1051.011 1000.572 1044.543 997.11 1042.078 C 993.805 1039.725 985.344 1038.506 981.243 1039.792 M 1035.5 1041.46 C 1031.148 1043.142 1029.5 1044.29 1029.5 1045.64 C 1029.5 1047.057 1030.123 1047.428 1032.119 1047.196 C 1035.547 1046.797 1035.969 1048.488 1035.986 1062.685 C 1036.002 1075.182 1035.074 1079 1032.025 1079 C 1030.667 1079 1030 1079.659 1030 1081 C 1030 1082.873 1030.667 1083 1040.5 1083 C 1050.333 1083 1051 1082.873 1051 1081 C 1051 1079.741 1050.333 1079 1049.2 1079 C 1045.553 1079 1045 1077.008 1045 1063.868 L 1045 1051.136 L 1047.811 1049.135 C 1052.604 1045.722 1055.598 1045.456 1057.448 1048.281 C 1058.771 1050.3 1059.008 1053.21 1058.779 1064.619 L 1058.5 1078.5 L 1055.75 1078.816 C 1053.807 1079.04 1053 1079.7 1053 1081.066 C 1053 1082.861 1053.793 1083 1064 1083 C 1074.333 1083 1075 1082.879 1075 1081 C 1075 1079.741 1074.333 1079 1073.2 1079 C 1069.528 1079 1069 1077.028 1069 1063.32 C 1069 1047.386 1067.61 1042.57 1062.377 1040.384 C 1057.491 1038.343 1054.918 1038.666 1049.696 1041.978 L 1045 1044.956 L 1045 1041.978 C 1045 1038.328 1043.775 1038.261 1035.5 1041.46 M 1114.685 1039.964 C 1105.886 1042.77 1100.697 1051.058 1100.766 1062.193 C 1100.823 1071.281 1103.658 1077.193 1109.84 1081.113 C 1116.643 1085.428 1123.99 1084.717 1130.356 1079.129 C 1132.942 1076.86 1136 1070.58 1136 1067.54 C 1136 1064.03 1133.529 1064.309 1132.004 1067.991 C 1131.322 1069.636 1129.302 1071.886 1127.514 1072.991 C 1117.749 1079.026 1108.845 1069.699 1110.339 1055 C 1110.798 1050.476 1111.454 1049.001 1114.03 1046.691 C 1119.099 1042.147 1123.037 1043.481 1124.452 1050.221 C 1125.521 1055.313 1132.626 1056.436 1135.055 1051.897 C 1138.833 1044.838 1124.934 1036.696 1114.685 1039.964 M 1178.243 1039.792 C 1174.547 1040.951 1169.125 1045.831 1167.129 1049.795 C 1159.475 1064.992 1168.582 1084 1183.518 1084 C 1191.453 1084 1200 1075.737 1200 1068.066 C 1200 1064.414 1197.488 1063.836 1196.452 1067.25 C 1194.587 1073.402 1187.712 1076.454 1182.173 1073.59 C 1178.066 1071.466 1174.037 1066.006 1173.321 1061.593 L 1172.738 1058 L 1186.369 1058 L 1200 1058 L 1200 1053.95 C 1200 1045.641 1194.561 1040.117 1185.743 1039.469 C 1182.859 1039.257 1179.484 1039.402 1178.243 1039.792 M 670.699 1040.634 C 669.342 1041.991 670.035 1042.988 673.275 1044.341 C 677.135 1045.954 687.577 1060.222 686.381 1062.249 C 683.755 1066.701 674.253 1078.102 672.779 1078.57 C 671.801 1078.881 671 1080.004 671 1081.067 C 671 1082.806 671.754 1083 678.5 1083 C 685.333 1083 686 1082.822 686 1081 C 686 1079.9 685.352 1079 684.559 1079 C 681.723 1079 682.106 1077.178 686.121 1071.571 L 690.197 1065.879 L 692.674 1069.189 C 694.036 1071.01 695.821 1073.772 696.641 1075.327 C 698.038 1077.977 698.002 1078.187 696.065 1078.693 C 694.9 1078.998 694 1080.054 694 1081.117 C 694 1082.842 694.883 1083 704.5 1083 C 714.133 1083 715 1082.844 715 1081.108 C 715 1079.986 714.085 1078.98 712.75 1078.634 C 711.473 1078.302 708.123 1074.771 705 1070.463 C 695.674 1057.597 696.008 1058.989 700.652 1052.311 C 702.875 1049.115 706.103 1045.825 707.825 1045 C 709.548 1044.175 710.966 1042.713 710.978 1041.75 C 710.997 1040.238 709.987 1040 703.559 1040 C 695.5 1040 693.359 1041.233 696.809 1043.887 L 698.905 1045.5 L 696.004 1049.359 L 693.103 1053.218 L 691.055 1049.859 C 688.6 1045.831 688.449 1044 690.573 1044 C 691.533 1044 692.016 1043.317 691.812 1042.25 C 691.523 1040.745 690.071 1040.46 681.438 1040.217 C 675.916 1040.062 671.084 1040.249 670.699 1040.634 M 487.054 1045.442 C 485.034 1047.592 484.809 1048.663 485.174 1054.386 C 485.669 1062.166 487.659 1065 492.629 1065 C 498.434 1065 500.712 1057.32 497.38 1048.991 C 494.853 1042.675 490.923 1041.324 487.054 1045.442 M 817.507 1047.293 C 815.578 1049.222 814 1051.295 814 1051.9 C 814 1052.608 816.848 1053 822 1053 C 829.726 1053 830 1052.92 830 1050.655 C 830 1047.859 827.53 1045.413 823.757 1044.471 C 821.479 1043.903 820.418 1044.382 817.507 1047.293 M 981.11 1045.372 C 978.93 1046.602 976.123 1050.407 976.035 1052.25 C 976.016 1052.662 979.6 1053 984 1053 C 991.177 1053 992 1052.806 992 1051.111 C 992 1046.332 985.49 1042.901 981.11 1045.372 M 1178.11 1045.396 C 1175.933 1046.602 1173.123 1050.398 1173.035 1052.25 C 1173.016 1052.662 1176.6 1053 1181 1053 C 1189.294 1053 1189.939 1052.611 1188.379 1048.545 C 1187.789 1047.007 1183.005 1043.96 1181.3 1044.035 C 1180.86 1044.055 1179.425 1044.667 1178.11 1045.396 M 201.021 1048.183 C 195.46 1050.252 195 1051.429 195 1063.582 C 195 1074.569 195.067 1074.907 197.635 1076.927 C 206.286 1083.732 215.096 1073.048 212.211 1059.252 C 210.317 1050.202 206.293 1046.221 201.021 1048.183 M 481.584 1085.512 C 478.345 1090.456 479.924 1092.449 488.437 1094.159 C 498.264 1096.133 508 1092.751 508 1087.364 C 508 1084.553 507.038 1084.306 493.334 1083.61 C 483.423 1083.107 483.129 1083.154 481.584 1085.512" stroke-linecap="round"/>
</g>
		<g transform="matrix(1 0 0 1 -1.9389 330.038)" id="959171">
<path style="stroke: none; stroke-width: 1; stroke-dasharray: none; stroke-linecap: butt; stroke-dashoffset: 0; stroke-linejoin: miter; stroke-miterlimit: 4; is-custom-font: none; font-file-url: none; fill: rgb(164,172,172); fill-rule: evenodd; opacity: 1;" transform=" translate(-598.061, -880.538)" d="M 315.228 798.072 L 315.5 817.293 L 328 820.739 C 361.986 830.11 405.195 844.948 431.659 856.336 C 472.567 873.938 520.022 904.927 564.75 943.248 L 574 951.172 L 574 963.912 C 574 976.31 574.069 976.716 576.578 979.076 C 579.101 981.448 579.578 981.507 598.934 981.807 L 618.711 982.114 L 621.856 979.468 L 625 976.822 L 625 963.532 L 625 950.242 L 632.084 943.559 C 646.046 930.389 676.857 907.038 699 892.846 C 724.969 876.203 747.563 863.853 776.5 850.484 C 791.653 843.484 821.316 832.513 839.5 827.183 C 854.689 822.731 874.759 818 878.456 818 L 881 818 L 881 798.481 L 881 778.962 L 878.75 779.44 C 812.043 793.618 751.667 815.974 704.812 843.848 C 672.067 863.327 627.032 895.85 604.281 916.448 L 599.587 920.698 L 589.543 912.022 C 549.608 877.526 486.684 837.867 440 817.77 C 405.833 803.062 352.969 786.37 322 780.513 C 320.075 780.149 317.703 779.626 316.728 779.351 C 315.07 778.883 314.974 780.083 315.228 798.072" stroke-linecap="round"/>
</g>
</g>
</g>
</svg>