<?xml version="1.0" encoding="UTF-8"?>
<svg xmlns="http://www.w3.org/2000/svg" xmlns:xlink="http://www.w3.org/1999/xlink" width="96" height="96" viewBox="0 0 96 96" version="1.1">
<g id="surface1">
<path style=" stroke:none;fill-rule:evenodd;fill:rgb(61.568627%,61.176471%,61.176471%);fill-opacity:1;" d="M 32.5 39 C 25.917969 45.601562 20.757812 51 21.03125 51 C 21.304688 51 26.917969 45.601562 33.5 39 C 40.082031 32.398438 45.242188 27 44.96875 27 C 44.695312 27 39.082031 32.398438 32.5 39 M 38.035156 53.933594 C 36.492188 56.816406 36.777344 59.488281 38.828125 61.34375 C 40.414062 62.78125 43.621094 63 63.128906 63 C 79.273438 63 85.9375 62.660156 86.800781 61.800781 C 88.351562 60.25 88.351562 54.75 86.800781 53.199219 C 85.933594 52.335938 79.097656 52 62.335938 52 C 40.355469 52 39.011719 52.105469 38.035156 53.933594 M 28 71.5 C 31.542969 75.074219 34.667969 78 34.941406 78 C 35.21875 78 32.542969 75.074219 29 71.5 C 25.457031 67.925781 22.332031 65 22.058594 65 C 21.78125 65 24.457031 67.925781 28 71.5 "/>
<path style=" stroke:none;fill-rule:evenodd;fill:rgb(90.588235%,66.666667%,16.470588%);fill-opacity:1;" d="M 48.921875 22.75 C 47.003906 24.8125 44.550781 27.578125 43.46875 28.898438 L 41.5 31.300781 L 44.242188 30.632812 C 48.34375 29.636719 52.773438 32.035156 59.46875 38.890625 C 65.929688 45.503906 68.613281 46.386719 72 43 C 75.546875 39.453125 74.542969 36.984375 66.25 28.839844 C 59.058594 21.769531 55.402344 19 53.269531 19 C 52.792969 19 50.835938 20.6875 48.921875 22.75 M 26 68.5 C 28.988281 71.523438 31.65625 74 31.933594 74 C 32.207031 74 29.988281 71.523438 27 68.5 C 24.011719 65.476562 21.34375 63 21.066406 63 C 20.792969 63 23.011719 65.476562 26 68.5 M 57.640625 77 C 50.972656 83.078125 49.464844 84 46.179688 84 C 44.101562 84 41.828125 83.4375 41.128906 82.75 C 40.105469 81.742188 39.988281 82.035156 40.539062 84.257812 C 41.4375 87.898438 38.902344 91.746094 35.273438 92.246094 L 32.5 92.628906 L 36.21875 94.3125 C 41.414062 96.671875 51.984375 96.5625 56.789062 94.101562 C 58.828125 93.054688 63.539062 89.050781 67.25 85.199219 C 74.429688 77.746094 75.539062 74.703125 72.171875 71.65625 C 68.710938 68.523438 65.742188 69.613281 57.640625 77 "/>
<path style=" stroke:none;fill-rule:evenodd;fill:rgb(4.705882%,3.921569%,2.745098%);fill-opacity:1;" d="M 32.839844 21.75 C 20.9375 33.710938 10.46875 44.953125 9.582031 46.734375 C 6.972656 51.957031 6.582031 58.046875 8.445312 64.460938 C 9.933594 69.578125 11.324219 71.453125 20.8125 81.117188 C 28.898438 89.351562 32.121094 92.003906 34.058594 92.003906 C 37.929688 92 40.332031 89.742188 40.332031 86.113281 C 40.332031 83.40625 39.011719 81.707031 31.363281 74.570312 C 25.929688 69.503906 21.664062 64.582031 20.542969 62.09375 C 17.152344 54.574219 18.289062 52.867188 42.507812 29.222656 C 55.558594 16.476562 64 7.492188 64 6.339844 C 64 2.882812 61.128906 0 57.683594 0 C 54.84375 0 52.042969 2.453125 32.839844 21.75 "/>
</g>
</svg>
