<svg data-v-423bf9ae="" xmlns="http://www.w3.org/2000/svg" viewBox="0 0 258.54383284824183 60" class="font"><!----><!----><defs data-v-423bf9ae=""><linearGradient data-v-423bf9ae="" gradientTransform="rotate(25)" id="7a4b8a88-e8b1-484c-a5da-d313e50aecfd" x1="0%" y1="0%" x2="100%" y2="0%"><stop data-v-423bf9ae="" offset="0%" style="stop-color: rgb(1, 100, 139); stop-opacity: 1;"></stop><stop data-v-423bf9ae="" offset="100%" style="stop-color: rgb(91, 208, 164); stop-opacity: 1;"></stop></linearGradient></defs><g data-v-423bf9ae="" id="c109ca54-8259-4228-8c92-72b7aaf561ad" fill="url(#7a4b8a88-e8b1-484c-a5da-d313e50aecfd)" transform="matrix(4.457652290486928,0,0,4.457652290486928,-5.750369411989141,-13.150074707912438)"><path d="M2.70 2.95L2.70 12.74L1.29 13.25L1.29 3.46L2.70 2.95ZM12.06 12.03L12.25 12.24L12.25 12.24Q12.09 12.57 11.88 12.75L11.88 12.75L11.88 12.75Q11.67 12.93 11.48 13.01L11.48 13.01L11.48 13.01Q11.25 13.10 11.02 13.12L11.02 13.12L11.02 13.12Q10.71 13.12 10.52 13.02L10.52 13.02L10.52 13.02Q10.32 12.93 10.21 12.77L10.21 12.77L10.21 12.77Q10.09 12.61 10.05 12.41L10.05 12.41L10.05 12.41Q10.00 12.22 10.00 12.01L10.00 12.01L10.00 9.15L10.00 9.15Q10.00 9.04 9.96 8.95L9.96 8.95L9.96 8.95Q9.92 8.87 9.85 8.85L9.85 8.85L9.85 8.85Q9.78 8.84 9.69 8.92L9.69 8.92L9.69 8.92Q9.59 9.00 9.48 9.21L9.48 9.21L9.48 9.21Q9.30 9.76 9.15 10.36L9.15 10.36L9.15 10.36Q9.02 10.88 8.91 11.54L8.91 11.54L8.91 11.54Q8.80 12.19 8.79 12.88L8.79 12.88L7.53 13.32L7.53 9.15L7.53 9.15Q7.53 9.04 7.49 8.95L7.49 8.95L7.49 8.95Q7.45 8.87 7.38 8.85L7.38 8.85L7.38 8.85Q7.31 8.84 7.21 8.92L7.21 8.92L7.21 8.92Q7.12 9.00 7.01 9.21L7.01 9.21L7.01 9.21Q6.81 9.79 6.66 10.41L6.66 10.41L6.66 10.41Q6.59 10.68 6.53 10.98L6.53 10.98L6.53 10.98Q6.47 11.28 6.42 11.60L6.42 11.60L6.42 11.60Q6.38 11.92 6.35 12.24L6.35 12.24L6.35 12.24Q6.32 12.56 6.33 12.88L6.33 12.88L5.09 13.32L5.09 8.72L5.09 8.72Q5.09 8.56 5.01 8.46L5.01 8.46L5.01 8.46Q4.94 8.37 4.82 8.36L4.82 8.36L4.82 8.36Q4.70 8.36 4.55 8.45L4.55 8.45L4.55 8.45Q4.41 8.54 4.27 8.74L4.27 8.74L4.09 8.53L4.09 8.53Q4.25 8.20 4.45 8.02L4.45 8.02L4.45 8.02Q4.66 7.84 4.86 7.76L4.86 7.76L4.86 7.76Q5.09 7.66 5.33 7.65L5.33 7.65L5.33 7.65Q5.63 7.65 5.82 7.75L5.82 7.75L5.82 7.75Q6.02 7.84 6.13 7.99L6.13 7.99L6.13 7.99Q6.24 8.15 6.29 8.35L6.29 8.35L6.29 8.35Q6.33 8.54 6.33 8.75L6.33 8.75L6.33 10.19L6.33 10.19Q6.45 9.58 6.70 9.11L6.70 9.11L6.70 9.11Q6.95 8.63 7.22 8.31L7.22 8.31L7.22 8.31Q7.49 7.98 7.75 7.82L7.75 7.82L7.75 7.82Q8.00 7.65 8.16 7.65L8.16 7.65L8.16 7.65Q8.36 7.65 8.48 7.71L8.48 7.71L8.48 7.71Q8.61 7.78 8.67 7.91L8.67 7.91L8.67 7.91Q8.74 8.04 8.77 8.23L8.77 8.23L8.77 8.23Q8.79 8.42 8.79 8.67L8.79 8.67L8.79 10.19L8.79 10.19Q8.92 9.58 9.16 9.11L9.16 9.11L9.16 9.11Q9.41 8.63 9.68 8.31L9.68 8.31L9.68 8.31Q9.95 7.98 10.21 7.82L10.21 7.82L10.21 7.82Q10.47 7.65 10.63 7.65L10.63 7.65L10.63 7.65Q11.02 7.65 11.14 7.91L11.14 7.91L11.14 7.91Q11.26 8.16 11.26 8.67L11.26 8.67L11.26 12.04L11.26 12.04Q11.26 12.21 11.33 12.30L11.33 12.30L11.33 12.30Q11.41 12.40 11.53 12.40L11.53 12.40L11.53 12.40Q11.64 12.41 11.78 12.32L11.78 12.32L11.78 12.32Q11.92 12.23 12.06 12.03L12.06 12.03ZM18.25 12.01L18.43 12.22L18.43 12.22Q18.35 12.40 18.22 12.56L18.22 12.56L18.22 12.56Q18.10 12.71 17.94 12.84L17.94 12.84L17.94 12.84Q17.78 12.96 17.59 13.03L17.59 13.03L17.59 13.03Q17.40 13.10 17.20 13.10L17.20 13.10L17.20 13.10Q16.66 13.10 16.42 12.81L16.42 12.81L16.42 12.81Q16.19 12.51 16.19 12.00L16.19 12.00L16.19 11.87L16.19 11.87Q16.06 12.11 15.91 12.34L15.91 12.34L15.91 12.34Q15.76 12.57 15.56 12.76L15.56 12.76L15.56 12.76Q15.37 12.94 15.13 13.06L15.13 13.06L15.13 13.06Q14.89 13.17 14.59 13.17L14.59 13.17L14.59 13.17Q14.15 13.17 13.81 13.00L13.81 13.00L13.81 13.00Q13.47 12.83 13.23 12.54L13.23 12.54L13.23 12.54Q13.00 12.25 12.89 11.86L12.89 11.86L12.89 11.86Q12.77 11.47 12.77 11.03L12.77 11.03L12.77 11.03Q12.77 10.44 12.98 9.85L12.98 9.85L12.98 9.85Q13.19 9.26 13.57 8.79L13.57 8.79L13.57 8.79Q13.95 8.33 14.48 8.04L14.48 8.04L14.48 8.04Q15.00 7.75 15.65 7.75L15.65 7.75L15.65 7.75Q15.91 7.75 16.17 7.79L16.17 7.79L16.17 7.79Q16.43 7.84 16.67 7.95L16.67 7.95L16.67 7.95Q16.91 8.05 17.10 8.22L17.10 8.22L17.10 8.22Q17.29 8.39 17.42 8.64L17.42 8.64L16.40 9.07L16.40 9.07Q16.32 8.94 16.21 8.82L16.21 8.82L16.21 8.82Q16.11 8.70 15.98 8.61L15.98 8.61L15.98 8.61Q15.85 8.52 15.71 8.47L15.71 8.47L15.71 8.47Q15.57 8.42 15.41 8.42L15.41 8.42L15.41 8.42Q15.05 8.42 14.78 8.63L14.78 8.63L14.78 8.63Q14.50 8.85 14.30 9.17L14.30 9.17L14.30 9.17Q14.11 9.50 14.01 9.86L14.01 9.86L14.01 9.86Q13.90 10.22 13.90 10.51L13.90 10.51L13.90 10.51Q13.90 10.77 13.96 11.10L13.96 11.10L13.96 11.10Q14.01 11.42 14.14 11.71L14.14 11.71L14.14 11.71Q14.27 12.00 14.48 12.20L14.48 12.20L14.48 12.20Q14.69 12.39 15.01 12.39L15.01 12.39L15.01 12.39Q15.26 12.39 15.45 12.28L15.45 12.28L15.45 12.28Q15.63 12.17 15.76 11.99L15.76 11.99L15.76 11.99Q15.89 11.81 15.98 11.57L15.98 11.57L15.98 11.57Q16.06 11.33 16.11 11.09L16.11 11.09L16.11 11.09Q16.15 10.84 16.17 10.60L16.17 10.60L16.17 10.60Q16.19 10.36 16.19 10.17L16.19 10.17L16.19 9.69L17.43 9.26L17.43 12.03L17.43 12.03Q17.43 12.17 17.50 12.28L17.50 12.28L17.50 12.28Q17.57 12.39 17.71 12.39L17.71 12.39L17.71 12.39Q17.88 12.39 18.02 12.27L18.02 12.27L18.02 12.27Q18.16 12.14 18.25 12.01L18.25 12.01ZM26.52 12.03L26.71 12.24L26.71 12.24Q26.56 12.57 26.35 12.75L26.35 12.75L26.35 12.75Q26.13 12.93 25.94 13.01L25.94 13.01L25.94 13.01Q25.72 13.10 25.48 13.12L25.48 13.12L25.48 13.12Q25.18 13.12 24.98 13.02L24.98 13.02L24.98 13.02Q24.79 12.93 24.67 12.77L24.67 12.77L24.67 12.77Q24.55 12.61 24.51 12.41L24.51 12.41L24.51 12.41Q24.47 12.22 24.47 12.01L24.47 12.01L24.47 9.15L24.47 9.15Q24.47 9.04 24.42 8.95L24.42 8.95L24.42 8.95Q24.38 8.87 24.32 8.85L24.32 8.85L24.32 8.85Q24.25 8.84 24.15 8.92L24.15 8.92L24.15 8.92Q24.06 9.00 23.95 9.21L23.95 9.21L23.95 9.21Q23.76 9.76 23.61 10.36L23.61 10.36L23.61 10.36Q23.48 10.88 23.38 11.54L23.38 11.54L23.38 11.54Q23.27 12.19 23.26 12.88L23.26 12.88L22.00 13.32L22.00 9.15L22.00 9.15Q22.00 9.04 21.96 8.95L21.96 8.95L21.96 8.95Q21.92 8.87 21.84 8.85L21.84 8.85L21.84 8.85Q21.77 8.84 21.68 8.92L21.68 8.92L21.68 8.92Q21.58 9.00 21.48 9.21L21.48 9.21L21.48 9.21Q21.27 9.79 21.12 10.41L21.12 10.41L21.12 10.41Q21.05 10.68 20.99 10.98L20.99 10.98L20.99 10.98Q20.93 11.28 20.89 11.60L20.89 11.60L20.89 11.60Q20.84 11.92 20.82 12.24L20.82 12.24L20.82 12.24Q20.79 12.56 20.79 12.88L20.79 12.88L19.55 13.32L19.55 8.72L19.55 8.72Q19.55 8.56 19.48 8.46L19.48 8.46L19.48 8.46Q19.40 8.37 19.28 8.36L19.28 8.36L19.28 8.36Q19.16 8.36 19.02 8.45L19.02 8.45L19.02 8.45Q18.87 8.54 18.74 8.74L18.74 8.74L18.55 8.53L18.55 8.53Q18.71 8.20 18.92 8.02L18.92 8.02L18.92 8.02Q19.13 7.84 19.33 7.76L19.33 7.76L19.33 7.76Q19.55 7.66 19.79 7.65L19.79 7.65L19.79 7.65Q20.09 7.65 20.29 7.75L20.29 7.75L20.29 7.75Q20.48 7.84 20.59 7.99L20.59 7.99L20.59 7.99Q20.71 8.15 20.75 8.35L20.75 8.35L20.75 8.35Q20.79 8.54 20.79 8.75L20.79 8.75L20.79 10.19L20.79 10.19Q20.92 9.58 21.16 9.11L21.16 9.11L21.16 9.11Q21.41 8.63 21.68 8.31L21.68 8.31L21.68 8.31Q21.95 7.98 22.21 7.82L22.21 7.82L22.21 7.82Q22.47 7.65 22.63 7.65L22.63 7.65L22.63 7.65Q22.83 7.65 22.95 7.71L22.95 7.71L22.95 7.71Q23.07 7.78 23.14 7.91L23.14 7.91L23.14 7.91Q23.21 8.04 23.23 8.23L23.23 8.23L23.23 8.23Q23.26 8.42 23.26 8.67L23.26 8.67L23.26 10.19L23.26 10.19Q23.39 9.58 23.63 9.11L23.63 9.11L23.63 9.11Q23.87 8.63 24.14 8.31L24.14 8.31L24.14 8.31Q24.42 7.98 24.68 7.82L24.68 7.82L24.68 7.82Q24.94 7.65 25.09 7.65L25.09 7.65L25.09 7.65Q25.48 7.65 25.60 7.91L25.60 7.91L25.60 7.91Q25.72 8.16 25.72 8.67L25.72 8.67L25.72 12.04L25.72 12.04Q25.72 12.21 25.80 12.30L25.80 12.30L25.80 12.30Q25.87 12.40 25.99 12.40L25.99 12.40L25.99 12.40Q26.11 12.41 26.25 12.32L26.25 12.32L26.25 12.32Q26.39 12.23 26.52 12.03L26.52 12.03ZM35.11 9.94L35.11 9.94L35.11 9.94Q35.11 10.63 34.83 11.20L34.83 11.20L34.83 11.20Q34.54 11.76 34.07 12.22L34.07 12.22L34.07 12.22Q33.59 12.67 32.98 13.01L32.98 13.01L32.98 13.01Q32.37 13.34 31.71 13.57L31.71 13.57L31.71 13.57Q31.05 13.80 30.39 13.92L30.39 13.92L30.39 13.92Q29.73 14.04 29.17 14.06L29.17 14.06L29.07 13.72L29.07 13.72Q29.52 13.62 30.03 13.47L30.03 13.47L30.03 13.47Q30.54 13.32 31.03 13.09L31.03 13.09L31.03 13.09Q31.53 12.87 31.98 12.58L31.98 12.58L31.98 12.58Q32.42 12.28 32.76 11.90L32.76 11.90L32.76 11.90Q33.11 11.53 33.31 11.06L33.31 11.06L33.31 11.06Q33.51 10.60 33.51 10.04L33.51 10.04L33.51 10.04Q33.51 9.62 33.31 9.27L33.31 9.27L33.31 9.27Q33.12 8.93 32.81 8.69L32.81 8.69L32.81 8.69Q32.50 8.44 32.10 8.31L32.10 8.31L32.10 8.31Q31.71 8.18 31.32 8.18L31.32 8.18L31.32 8.18Q30.84 8.18 30.39 8.29L30.39 8.29L30.39 8.29Q29.93 8.40 29.48 8.57L29.48 8.57L29.37 8.29L29.37 8.29Q29.67 8.16 30.02 7.96L30.02 7.96L30.02 7.96Q30.37 7.77 30.70 7.54L30.70 7.54L30.70 7.54Q31.03 7.30 31.33 7.02L31.33 7.02L31.33 7.02Q31.63 6.73 31.86 6.41L31.86 6.41L31.86 6.41Q32.09 6.08 32.22 5.73L32.22 5.73L32.22 5.73Q32.36 5.37 32.36 4.97L32.36 4.97L32.36 4.97Q32.36 4.72 32.28 4.51L32.28 4.51L32.28 4.51Q32.20 4.30 32.05 4.15L32.05 4.15L32.05 4.15Q31.90 3.99 31.69 3.91L31.69 3.91L31.69 3.91Q31.49 3.82 31.23 3.82L31.23 3.82L31.23 3.82Q30.82 3.82 30.51 4.00L30.51 4.00L30.51 4.00Q30.20 4.18 29.97 4.47L29.97 4.47L29.97 4.47Q29.74 4.76 29.59 5.14L29.59 5.14L29.59 5.14Q29.44 5.52 29.34 5.92L29.34 5.92L29.34 5.92Q29.25 6.32 29.21 6.70L29.21 6.70L29.21 6.70Q29.17 7.09 29.17 7.40L29.17 7.40L29.17 12.67L27.76 13.17L27.76 8.15L27.76 8.15Q27.76 7.49 27.91 6.86L27.91 6.86L27.91 6.86Q28.06 6.23 28.35 5.66L28.35 5.66L28.35 5.66Q28.63 5.10 29.04 4.63L29.04 4.63L29.04 4.63Q29.44 4.16 29.95 3.82L29.95 3.82L29.95 3.82Q30.46 3.48 31.07 3.29L31.07 3.29L31.07 3.29Q31.67 3.10 32.35 3.10L32.35 3.10L32.35 3.10Q32.66 3.10 32.94 3.18L32.94 3.18L32.94 3.18Q33.23 3.26 33.44 3.43L33.44 3.43L33.44 3.43Q33.66 3.60 33.79 3.86L33.79 3.86L33.79 3.86Q33.92 4.11 33.92 4.44L33.92 4.44L33.92 4.44Q33.92 4.81 33.77 5.16L33.77 5.16L33.77 5.16Q33.63 5.51 33.38 5.84L33.38 5.84L33.38 5.84Q33.13 6.18 32.82 6.48L32.82 6.48L32.82 6.48Q32.50 6.79 32.17 7.05L32.17 7.05L32.17 7.05Q31.83 7.31 31.49 7.51L31.49 7.51L31.49 7.51Q31.16 7.72 30.88 7.85L30.88 7.85L30.88 7.85Q31.58 7.69 32.31 7.69L32.31 7.69L32.31 7.69Q32.84 7.69 33.34 7.82L33.34 7.82L33.34 7.82Q33.84 7.94 34.24 8.21L34.24 8.21L34.24 8.21Q34.63 8.48 34.87 8.91L34.87 8.91L34.87 8.91Q35.11 9.34 35.11 9.94ZM36.10 4.61L37.54 4.12L37.18 6.61L36.51 6.82L36.10 4.61ZM38.30 12.03L38.49 12.24L38.49 12.24Q38.33 12.57 38.12 12.75L38.12 12.75L38.12 12.75Q37.91 12.93 37.72 13.01L37.72 13.01L37.72 13.01Q37.50 13.10 37.26 13.12L37.26 13.12L37.26 13.12Q36.96 13.12 36.76 13.02L36.76 13.02L36.76 13.02Q36.57 12.93 36.45 12.77L36.45 12.77L36.45 12.77Q36.33 12.61 36.29 12.41L36.29 12.41L36.29 12.41Q36.24 12.22 36.24 12.01L36.24 12.01L36.24 8.18L37.50 7.75L37.50 12.04L37.50 12.04Q37.50 12.21 37.58 12.30L37.58 12.30L37.58 12.30Q37.65 12.40 37.77 12.40L37.77 12.40L37.77 12.40Q37.89 12.41 38.03 12.32L38.03 12.32L38.03 12.32Q38.17 12.23 38.30 12.03L38.30 12.03ZM41.94 13.16L41.94 13.16L41.94 13.16Q41.70 13.16 41.48 13.09L41.48 13.09L41.48 13.09Q41.26 13.03 41.07 12.88L41.07 12.88L41.60 12.11L41.60 12.11Q41.73 12.29 41.91 12.39L41.91 12.39L41.91 12.39Q42.08 12.49 42.29 12.49L42.29 12.49L42.29 12.49Q42.51 12.49 42.67 12.38L42.67 12.38L42.67 12.38Q42.83 12.26 42.93 12.08L42.93 12.08L42.93 12.08Q43.04 11.89 43.11 11.67L43.11 11.67L43.11 11.67Q43.18 11.44 43.21 11.20L43.21 11.20L43.21 11.20Q43.24 10.97 43.26 10.76L43.26 10.76L43.26 10.76Q43.27 10.54 43.27 10.39L43.27 10.39L43.27 10.39Q43.27 10.10 43.19 9.77L43.19 9.77L43.19 9.77Q43.11 9.43 42.95 9.14L42.95 9.14L42.95 9.14Q42.79 8.85 42.54 8.65L42.54 8.65L42.54 8.65Q42.29 8.46 41.94 8.46L41.94 8.46L41.94 8.46Q41.70 8.46 41.53 8.58L41.53 8.58L41.53 8.58Q41.36 8.70 41.25 8.89L41.25 8.89L41.25 8.89Q41.14 9.08 41.07 9.33L41.07 9.33L41.07 9.33Q41.01 9.58 40.98 9.83L40.98 9.83L40.98 9.83Q40.95 10.08 40.94 10.32L40.94 10.32L40.94 10.32Q40.93 10.55 40.93 10.73L40.93 10.73L40.93 15.98L39.69 16.41L39.69 8.74L39.69 8.74Q39.69 8.60 39.62 8.49L39.62 8.49L39.62 8.49Q39.55 8.37 39.41 8.37L39.41 8.37L39.41 8.37Q39.24 8.37 39.10 8.50L39.10 8.50L39.10 8.50Q38.96 8.63 38.88 8.75L38.88 8.75L38.69 8.54L38.69 8.54Q38.77 8.37 38.90 8.21L38.90 8.21L38.90 8.21Q39.03 8.05 39.19 7.93L39.19 7.93L39.19 7.93Q39.35 7.81 39.54 7.73L39.54 7.73L39.54 7.73Q39.72 7.66 39.93 7.66L39.93 7.66L39.93 7.66Q40.22 7.66 40.41 7.75L40.41 7.75L40.41 7.75Q40.61 7.83 40.72 7.99L40.72 7.99L40.72 7.99Q40.84 8.15 40.89 8.37L40.89 8.37L40.89 8.37Q40.93 8.59 40.93 8.85L40.93 8.85L40.93 8.85Q41.04 8.64 41.19 8.43L41.19 8.43L41.19 8.43Q41.34 8.21 41.52 8.04L41.52 8.04L41.52 8.04Q41.71 7.88 41.93 7.77L41.93 7.77L41.93 7.77Q42.15 7.66 42.42 7.66L42.42 7.66L42.42 7.66Q42.89 7.66 43.25 7.87L43.25 7.87L43.25 7.87Q43.62 8.08 43.87 8.42L43.87 8.42L43.87 8.42Q44.12 8.76 44.25 9.18L44.25 9.18L44.25 9.18Q44.38 9.60 44.38 10.04L44.38 10.04L44.38 10.04Q44.38 10.58 44.23 11.14L44.23 11.14L44.23 11.14Q44.07 11.69 43.77 12.14L43.77 12.14L43.77 12.14Q43.46 12.59 43.00 12.88L43.00 12.88L43.00 12.88Q42.55 13.16 41.94 13.16ZM47.72 12.03L47.91 12.24L47.91 12.24Q47.82 12.41 47.70 12.57L47.70 12.57L47.70 12.57Q47.57 12.73 47.41 12.85L47.41 12.85L47.41 12.85Q47.26 12.97 47.07 13.05L47.07 13.05L47.07 13.05Q46.88 13.12 46.68 13.12L46.68 13.12L46.68 13.12Q46.15 13.12 45.91 12.82L45.91 12.82L45.91 12.82Q45.66 12.52 45.66 12.01L45.66 12.01L45.66 3.67L46.92 3.23L46.92 12.04L46.92 12.04Q46.92 12.18 46.98 12.29L46.98 12.29L46.98 12.29Q47.04 12.41 47.20 12.41L47.20 12.41L47.20 12.41Q47.36 12.41 47.50 12.28L47.50 12.28L47.50 12.28Q47.64 12.15 47.72 12.03L47.72 12.03ZM50.83 13.19L50.83 13.19L50.83 13.19Q50.33 13.19 49.89 13.01L49.89 13.01L49.89 13.01Q49.44 12.83 49.12 12.51L49.12 12.51L49.12 12.51Q48.79 12.19 48.61 11.75L48.61 11.75L48.61 11.75Q48.42 11.32 48.42 10.81L48.42 10.81L48.42 10.81Q48.42 10.23 48.61 9.72L48.61 9.72L48.61 9.72Q48.80 9.21 49.14 8.80L49.14 8.80L49.14 8.80Q49.48 8.39 49.94 8.09L49.94 8.09L49.94 8.09Q50.40 7.79 50.94 7.62L50.94 7.62L51.14 7.85L51.14 7.85Q50.83 8.08 50.57 8.37L50.57 8.37L50.57 8.37Q50.30 8.66 50.10 9.00L50.10 9.00L50.10 9.00Q49.90 9.34 49.79 9.71L49.79 9.71L49.79 9.71Q49.67 10.08 49.67 10.47L49.67 10.47L49.67 10.47Q49.67 10.80 49.77 11.16L49.77 11.16L49.77 11.16Q49.86 11.53 50.05 11.83L50.05 11.83L50.05 11.83Q50.24 12.13 50.53 12.32L50.53 12.32L50.53 12.32Q50.83 12.52 51.21 12.52L51.21 12.52L51.21 12.52Q51.55 12.52 51.80 12.39L51.80 12.39L51.80 12.39Q52.05 12.27 52.21 12.06L52.21 12.06L52.21 12.06Q52.38 11.85 52.46 11.56L52.46 11.56L52.46 11.56Q52.54 11.28 52.54 10.96L52.54 10.96L52.54 10.96Q52.54 10.60 52.40 10.21L52.40 10.21L52.40 10.21Q52.25 9.82 52.00 9.50L52.00 9.50L52.00 9.50Q51.75 9.17 51.42 8.95L51.42 8.95L51.42 8.95Q51.08 8.73 50.70 8.70L50.70 8.70L50.70 8.70Q50.94 8.42 51.23 8.19L51.23 8.19L51.23 8.19Q51.52 7.96 51.81 7.75L51.81 7.75L51.81 7.75Q52.21 7.88 52.51 8.13L52.51 8.13L52.51 8.13Q52.81 8.38 53.02 8.71L53.02 8.71L53.02 8.71Q53.23 9.04 53.34 9.42L53.34 9.42L53.34 9.42Q53.45 9.81 53.45 10.21L53.45 10.21L53.45 10.21Q53.45 10.75 53.26 11.28L53.26 11.28L53.26 11.28Q53.07 11.81 52.73 12.24L52.73 12.24L52.73 12.24Q52.38 12.67 51.90 12.93L51.90 12.93L51.90 12.93Q51.42 13.19 50.83 13.19ZM59.29 10.32L59.29 10.32L59.29 10.32Q59.29 10.81 59.05 11.31L59.05 11.31L59.05 11.31Q58.82 11.81 58.43 12.23L58.43 12.23L58.43 12.23Q58.05 12.65 57.56 12.91L57.56 12.91L57.56 12.91Q57.07 13.17 56.57 13.17L56.57 13.17L56.57 13.17Q56.10 13.17 55.73 13.01L55.73 13.01L55.73 13.01Q55.37 12.85 55.13 12.57L55.13 12.57L55.13 12.57Q54.88 12.28 54.75 11.90L54.75 11.90L54.75 11.90Q54.63 11.51 54.63 11.06L54.63 11.06L54.63 3.67L55.88 3.23L55.88 11.29L55.88 11.29Q55.88 11.52 55.95 11.74L55.95 11.74L55.95 11.74Q56.01 11.97 56.13 12.15L56.13 12.15L56.13 12.15Q56.25 12.33 56.44 12.44L56.44 12.44L56.44 12.44Q56.63 12.56 56.89 12.56L56.89 12.56L56.89 12.56Q57.20 12.56 57.44 12.40L57.44 12.40L57.44 12.40Q57.67 12.25 57.84 12.01L57.84 12.01L57.84 12.01Q58.00 11.76 58.07 11.48L58.07 11.48L58.07 11.48Q58.15 11.19 58.15 10.92L58.15 10.92L58.15 10.92Q58.15 10.53 58.01 10.12L58.01 10.12L58.01 10.12Q57.86 9.71 57.60 9.39L57.60 9.39L57.60 9.39Q57.34 9.06 56.99 8.84L56.99 8.84L56.99 8.84Q56.64 8.62 56.25 8.59L56.25 8.59L57.38 7.75L57.38 7.75Q57.75 7.87 58.10 8.13L58.10 8.13L58.10 8.13Q58.44 8.39 58.71 8.74L58.71 8.74L58.71 8.74Q58.97 9.09 59.13 9.50L59.13 9.50L59.13 9.50Q59.29 9.91 59.29 10.32Z"></path></g><!----><!----></svg>