<svg xmlns="http://www.w3.org/2000/svg" xmlns:xlink="http://www.w3.org/1999/xlink" version="1.1" width="1000" height="1000" viewBox="0 0 1000 1000" xml:space="preserve">
<desc>Created with Fabric.js 3.5.0</desc>
<defs>
</defs>
<rect x="0" y="0" width="100%" height="100%" fill="rgba(255,255,204,0)"/>
<g transform="matrix(7.4333 0 0 7.4774 498.0311 502.9543)" id="938325">
<g style="" vector-effect="non-scaling-stroke">
		<g transform="matrix(1 0 0 1 0.4168 0)" id="svgPath">
<path style="stroke: none; stroke-width: 1; stroke-dasharray: none; stroke-linecap: butt; stroke-dashoffset: 0; stroke-linejoin: miter; stroke-miterlimit: 4; is-custom-font: none; font-file-url: none; fill: rgb(4,171,179); fill-rule: evenodd; opacity: 1;" transform=" translate(-67.4168, -67)" d="M 0.667 0.667 C -1.713 3.046 1.463 3.72 4.441 1.468 C 6.313 0.052 6.292 0 3.858 0 C 2.469 0 1.033 0.3 0.667 0.667 M 12.75 1.392 C 11.787 2.123 11 2.977 11 3.29 C 11 4.12 17.184 2.216 18.383 1.017 C 19.937 -0.537 14.845 -0.198 12.75 1.392 M 23.329 3.372 C 14.288 8.245 0.013 19.188 0.006 21.25 C 0.003 22.212 0.223 23 0.495 23 C 0.767 23 5.604 19.4 11.245 14.999 C 16.885 10.599 24.425 5.437 28 3.528 C 32.95 0.886 33.904 0.056 32 0.052 C 30.625 0.048 26.723 1.542 23.329 3.372 M 54.5 0.672 C 37.992 2.719 29.052 6.14 19.527 14.056 C 16.792 16.329 11.279 20.452 7.277 23.219 C 1.27 27.372 0.014 28.708 0.079 30.875 C 0.122 32.319 0.398 32.897 0.692 32.161 C 1.595 29.897 24.856 13.097 32.229 9.384 C 37.056 6.954 43.374 5.009 52.845 3.039 C 65.02 0.507 65.893 -0.741 54.5 0.672 M 84 1.711 C 87.575 2.528 95.35 4.728 101.278 6.599 C 112.86 10.254 114 10.479 114 9.109 C 114 6.829 89.579 -0.068 82.141 0.112 L 77.5 0.224 L 84 1.711 M 107 1.113 C 118.732 6.471 122.91 8.805 127.582 12.61 C 130.546 15.024 133.234 17 133.555 17 C 133.876 17 133.995 16.022 133.82 14.828 C 133.6 13.335 130.577 10.783 124.159 6.672 C 116.421 1.715 113.933 0.627 109.659 0.33 C 105.151 0.017 104.816 0.116 107 1.113 M 124 0.81 C 124 2.09 127.439 5 128.951 5 C 130.008 5 130.009 4.715 128.955 3.445 C 127.275 1.422 124 -0.32 124 0.81 M 61.5 5.065 C 51.937 6.345 37.558 10.547 31.505 13.83 C 24.51 17.624 5.499 32.48 2.343 36.617 C -1.88 42.154 0.592 41.835 6.406 36.093 C 9.352 33.183 12.659 30.285 13.755 29.651 C 14.851 29.018 19.093 25.923 23.181 22.774 C 31.333 16.494 42.455 10.968 51 8.953 C 58.864 7.097 82.7 7.334 91.765 9.357 C 103.812 12.046 127.67 22.488 131.038 26.545 C 132.727 28.581 134 28.356 134 26.022 C 134 24.189 121.804 13 119.805 13 C 118.661 13 118.809 14.409 120.087 15.687 C 122.755 18.355 118.688 17.746 112.732 14.587 C 104.652 10.3 84.929 4.931 75.583 4.474 C 71.687 4.284 65.35 4.55 61.5 5.065 M 1.655 7.829 C 0.026 9.629 -0.626 13 0.656 13 C 1.836 13 8 7.922 8 6.949 C 8 5.288 3.374 5.929 1.655 7.829 M 55.154 11.57 C 52.214 12.361 49.064 13.443 48.154 13.974 C 46.634 14.861 46.639 14.942 48.222 14.97 C 51.445 15.027 65 11.695 65 10.846 C 65 9.638 61.334 9.907 55.154 11.57 M 69 13.727 L 65.5 15.377 L 68.5 15.785 C 70.15 16.01 73.915 15.656 76.866 14.999 C 80.749 14.135 83.373 14.094 86.366 14.851 C 88.64 15.427 92.194 16.167 94.264 16.497 C 100.568 17.5 118.896 27.422 126.5 33.947 C 131.681 38.392 133.59 39.54 133.845 38.362 C 134.035 37.486 132.318 34.862 130.029 32.53 C 116.304 18.545 81.52 7.828 69 13.727 M 33.809 20.664 C 25.065 25.28 11.926 35.924 5.296 43.761 C -3.97 54.715 -0.408 53.509 11.25 41.744 C 19.569 33.349 24.599 29.19 30.558 25.78 C 42.84 18.75 45.569 14.456 33.809 20.664 M 49.322 18.326 C 41.056 21.379 46.337 21.989 55.5 19.039 L 61.5 17.108 L 57 17.13 C 54.525 17.142 51.07 17.68 49.322 18.326 M 71.5 19.507 C 70.95 19.698 66.563 20.384 61.75 21.031 C 56.938 21.678 53 22.61 53 23.103 C 53 24.391 56.495 24.213 64.5 22.517 C 73.489 20.613 79.238 20.625 88.792 22.566 C 101.963 25.242 111.225 30.467 123.389 42.081 C 131.519 49.842 134 51.727 134 50.143 C 134 49.005 132.087 45.89 129.75 43.222 C 120.354 32.494 106.677 23.983 93.356 20.573 C 87.968 19.194 74.308 18.527 71.5 19.507 M 41.531 23.949 C 41.165 24.543 38.982 25.981 36.682 27.146 C 29.711 30.675 22.275 35.931 20.568 38.537 C 18.108 42.291 20.137 41.538 29.211 35.329 C 33.77 32.21 39.427 28.918 41.781 28.013 C 45.953 26.409 46.013 26.322 44.131 24.618 C 42.849 23.458 41.974 23.233 41.531 23.949 M 63.477 25.988 C 50.975 27.826 39.794 32.545 29.359 40.389 C 21.766 46.097 5.289 63.263 6.891 63.797 C 7.539 64.013 12.666 59.502 18.284 53.772 C 34.292 37.448 51.36 28.248 67.479 27.257 C 76.564 26.698 92.099 29.48 98.698 32.846 C 106.577 36.865 115.493 44.655 124.343 55.249 C 133.07 65.698 133.479 66.041 134.163 63.482 C 134.737 61.338 134.258 60.092 131.733 57.156 C 125.725 50.172 112.344 37.333 107.935 34.322 C 97.051 26.892 79.593 23.619 63.477 25.988 M 61.5 30.903 C 60.4 31.29 57.25 32.643 54.5 33.91 C 51.75 35.177 46.936 37.341 43.803 38.72 C 38.923 40.866 33.35 45 35.336 45 C 35.692 45 41.274 42.544 47.741 39.543 C 54.209 36.542 62.358 33.421 65.852 32.608 C 69.345 31.795 72.458 30.876 72.768 30.565 C 73.568 29.765 63.912 30.054 61.5 30.903 M 76.5 33.97 C 62.558 36.87 52.412 40.839 46.673 45.637 C 45.119 46.936 42.714 48 41.33 48 C 39.745 48 38.638 48.668 38.341 49.803 C 38.076 50.817 36.051 52.24 33.715 53.053 C 28.925 54.721 23.303 61.896 20.127 70.396 C 17.457 77.542 10.318 113.721 9.5 124.25 C 8.935 131.525 9.064 133 10.265 133 C 11.385 133 11.839 130.815 12.29 123.25 C 13.206 107.871 20.867 74.15 25.523 65 C 27.904 60.322 33.549 54.216 34.559 55.226 C 34.878 55.545 34.177 57.693 33 60 C 31.823 62.307 31.178 64.488 31.567 64.847 C 31.956 65.206 32.479 64.925 32.729 64.223 C 33.651 61.639 40.957 53.172 45.166 49.81 C 51.415 44.818 55.932 42.433 65.603 39.02 C 75.824 35.412 82.55 35.153 91.11 38.037 C 99.563 40.884 103.576 43.668 111.444 52.138 C 117.809 58.991 121.569 64.196 130.096 77.961 L 133.479 83.421 L 134.182 79.461 C 134.98 74.963 135.085 70.903 134.357 72.692 C 134.09 73.347 129.406 68.325 123.946 61.531 C 113.599 48.654 106.298 42.037 97 37.109 C 88.287 32.491 85.591 32.079 76.5 33.97 M 75.5 40.069 C 68.149 41.325 59.308 44.594 53.929 48.045 C 48.951 51.24 40 60.18 40 61.957 C 40 64.413 42.901 62.607 47.684 57.173 C 56.606 47.038 73.899 39.851 83.953 42.1 C 94.325 44.42 108.544 57.729 115.898 72 C 118.307 76.675 121.701 82.3 123.44 84.5 C 125.179 86.7 127.928 90.632 129.549 93.238 C 133.201 99.111 135 100.012 135 95.969 C 135 94.336 134.55 93 134 93 C 133.45 93 133 92.412 133 91.694 C 133 90.976 131.846 88.839 130.435 86.944 C 129.024 85.05 124.897 78.584 121.265 72.575 C 112.445 57.983 103 48.069 93.608 43.544 C 85.217 39.501 82.206 38.924 75.5 40.069 M 11.004 47.615 C 6.542 51.646 1 59.09 1 61.052 C 1 62.207 13.646 49.19 15.342 46.289 C 17.063 43.345 15.05 43.96 11.004 47.615 M 68.465 47.886 C 58.74 51.389 53.41 55.303 46.681 63.882 C 37.767 75.248 34.026 85.323 34.012 98 C 34.002 107.149 36.342 122.742 37.969 124.369 C 39.907 126.307 40.374 123.875 39.177 118.078 C 37.188 108.448 36.549 91.05 37.966 85.14 C 39.336 79.432 47.073 66.721 52.85 60.689 C 60.634 52.561 74.388 47.182 82.653 49.034 C 89.954 50.671 94.775 54.908 87.75 53.514 C 84.929 52.954 85.226 53.294 90 56.086 C 93.025 57.856 97.412 60.865 99.75 62.772 C 103.33 65.694 103.999 65.946 103.996 64.37 C 103.987 59.965 96.161 51.615 88.3 47.625 C 84.061 45.473 74.826 45.594 68.465 47.886 M 28.843 48.909 C 24.001 52.718 9.445 68.202 7.255 71.874 C 4.834 75.934 0.965 89.69 1.056 93.91 C 1.087 95.334 2.601 91.677 4.421 85.782 C 8.074 73.945 10.566 69.166 12.222 70.822 C 12.937 71.537 12.136 75.523 9.637 83.679 C 4.982 98.872 4.26 102.918 3.586 117.629 C 3.28 124.3 2.75 130.488 2.408 131.379 C 1.994 132.459 2.322 133 3.393 133 C 4.386 133 5.009 132.14 5.023 130.75 C 5.127 120.409 7.423 102.166 9.862 92.306 C 11.468 85.813 13.067 78.55 13.416 76.167 C 14.285 70.23 17.974 63.31 23.696 56.884 C 33.03 46.403 34.062 44.804 28.843 48.909 M 64.052 56.987 C 57.637 61.109 51.366 67.612 48.906 72.694 C 47.732 75.12 47.001 77.335 47.283 77.616 C 47.565 77.898 50.558 74.837 53.935 70.814 C 60.692 62.764 67.547 57.241 71.848 56.38 C 75.478 55.654 80.453 57.795 88.523 63.553 C 96.36 69.146 98.25 71.83 108.907 92.5 C 117.106 108.404 120.762 113.932 129.406 123.5 C 133.228 127.731 133.929 128.163 133.962 126.311 C 133.983 125.107 132.214 122.058 130.03 119.535 C 123.723 112.247 120.708 107.403 113.516 93 C 103.568 73.077 99.385 67.214 91.265 61.815 C 81.186 55.113 78.591 53.993 73.3 54.064 C 69.799 54.111 67.296 54.902 64.052 56.987 M 68.308 62.194 C 65.624 63.492 64.479 66 66.571 66 C 68.207 66 76 62.264 76 61.48 C 76 60.608 70.541 61.116 68.308 62.194 M 72.826 67.255 C 68.551 69.867 65.544 73.453 63.473 78.409 C 61.363 83.461 61.369 110.79 63.481 113.559 C 64.763 115.239 65.097 115.298 65.966 114 C 67.248 112.083 67.258 109.81 65.999 106.498 C 65.449 105.051 64.947 98.971 64.883 92.989 C 64.784 83.674 65.084 81.457 66.97 77.562 C 70.677 69.904 77.916 66.354 83.713 69.352 C 89.448 72.317 96.007 81.499 99.933 92.058 C 105.438 106.863 123.846 133 128.767 133 C 129.965 133 129.577 132.146 127.293 129.75 C 120.812 122.956 112.854 110.404 104.041 93.08 C 92.782 70.949 87.887 64.997 80.949 65.005 C 78.103 65.008 75.176 65.819 72.826 67.255 M 34.553 70.75 C 28.337 80.167 25.954 96.059 28.345 112.139 C 30.687 127.882 31.972 133 33.583 133 C 35.321 133 35.365 133.752 33.11 124.91 C 32.071 120.834 30.706 112.704 30.078 106.841 C 28.759 94.542 29.749 87.847 34.823 74.75 C 36.474 70.487 37.646 67 37.427 67 C 37.208 67 35.914 68.688 34.553 70.75 M 26.063 74.563 C 23.97 80.155 23.908 81.793 25.833 80.603 C 26.964 79.904 29.468 70.134 28.71 69.377 C 28.427 69.094 27.236 71.427 26.063 74.563 M 59.488 71.377 C 57.717 74.081 56 79.535 56 82.458 C 56 84.166 56.178 84.234 57.337 82.964 C 58.676 81.498 63 71.498 63 69.867 C 63 68.182 61.026 69.031 59.488 71.377 M 1.667 70.667 C 1.3 71.033 1.029 72.271 1.063 73.417 C 1.122 75.332 1.204 75.307 2.085 73.105 C 3.064 70.657 2.861 69.472 1.667 70.667 M 108.041 71.917 C 107.983 75.357 116.893 91.619 125.855 104.428 C 131.982 113.186 133.566 114.908 133.83 113.099 C 134.037 111.682 132.446 108.288 129.555 103.979 C 127.023 100.204 122.436 92.4 119.363 86.636 C 116.29 80.872 112.495 74.659 110.929 72.828 C 108.16 69.592 108.08 69.567 108.041 71.917 M 73.808 75.75 C 68.761 81.158 68.04 88.647 70.882 106.146 C 72.151 113.96 72.909 116 74.542 116 C 76.113 116 76.07 115.594 72.803 99.699 C 70.538 88.678 70.914 82.65 74.123 78.57 C 75.368 76.988 77.144 76 78.744 76 C 82.377 76 89.187 83.321 90.87 89.035 C 91.593 91.491 95.262 99.8 99.025 107.5 C 106.797 123.408 113.785 133 117.603 133 C 119.891 133 119.707 132.592 114.673 126.488 C 108.282 118.74 100.354 104.748 95.412 92.491 C 93.445 87.613 90.483 81.656 88.83 79.253 C 84.153 72.456 78.182 71.063 73.808 75.75 M 49.654 85.673 C 48.727 91.283 48.861 95.859 49.897 94 C 51.23 91.607 52.014 84.624 51.112 83.173 C 50.556 82.28 50.08 83.097 49.654 85.673 M 76.017 87.25 C 76.05 97.078 79.778 110.671 85.622 122.271 C 89.749 130.462 91.687 132.727 94.986 133.211 C 96.644 133.455 98 133.569 98 133.467 C 98 133.364 96.537 131.714 94.75 129.799 C 88.899 123.533 81.579 103.637 78.545 85.75 C 77.609 80.231 75.997 81.188 76.017 87.25 M 82.032 84.059 C 82.014 85.466 82.661 87.491 83.468 88.559 C 84.883 90.429 84.938 90.407 84.968 87.941 C 84.986 86.534 84.339 84.509 83.532 83.441 C 82.117 81.571 82.062 81.593 82.032 84.059 M 42.983 86.137 C 41.053 89.193 40.906 90.504 41.37 100.5 C 41.867 111.204 43.407 118.942 46.521 126.396 C 47.766 129.376 48.363 129.876 49.773 129.123 C 51.324 128.294 51.441 126.816 50.925 114.608 C 50.609 107.133 50.022 100.689 49.621 100.287 C 48.302 98.969 47.117 102.344 47.808 105.453 C 49.678 113.873 47.728 121.098 44.975 115.952 C 43.47 113.141 43.437 94.973 44.925 88.617 C 46.345 82.552 45.738 81.777 42.983 86.137 M 22 85.417 C 22 86.287 22.712 87 23.583 87 C 24.454 87 24.989 86.466 24.771 85.813 C 24.153 83.958 22 83.651 22 85.417 M 21.006 94.481 C 19.688 98.477 19.966 102.865 22.434 117 C 23.347 122.225 24.318 127.963 24.592 129.75 C 24.894 131.721 25.671 133 26.564 133 C 27.578 133 27.878 132.298 27.524 130.75 C 25.194 120.564 22.894 103.52 23.157 98.397 C 23.537 91.018 22.67 89.44 21.006 94.481 M 85.515 97.157 C 87.138 104.751 95.537 121.87 101.26 129.25 C 103.234 131.796 104.965 133 106.651 133 C 109.131 133 109.13 132.995 105.586 128.67 C 103.635 126.289 101.063 122.127 99.87 119.42 C 98.678 116.714 96.762 113.518 95.614 112.317 C 94.466 111.116 92.396 106.616 91.013 102.317 C 89.205 96.693 87.981 94.404 86.65 94.157 C 85.043 93.86 84.894 94.253 85.515 97.157 M 55.276 110.25 C 55.889 128.27 57 132.626 61.139 133.234 C 62.713 133.465 64 133.564 64 133.454 C 64 133.344 63.04 131.084 61.867 128.432 C 59.537 123.165 57.018 108.559 57.007 100.25 C 57.003 97.041 56.564 95 55.878 95 C 55.076 95 54.904 99.339 55.276 110.25 M 17 122.8 C 17 130.534 17.316 133 18.308 133 C 19.321 133 19.523 130.913 19.202 123.75 C 18.625 110.859 17 110.158 17 122.8 M 65.517 121.924 C 65.163 123.533 65.424 126.683 66.095 128.924 C 67.144 132.425 67.71 133 70.104 133 L 72.892 133 L 71.049 127.75 C 67.504 117.656 66.651 116.758 65.517 121.924 M 75 121.833 C 75 124.453 75.977 125.083 78.196 123.895 C 79.737 123.07 79.888 122.571 78.942 121.43 C 77.272 119.418 75 119.651 75 121.833 M 78.883 127.358 C 77.248 130.946 78.315 132.701 82.423 133.181 C 86.501 133.657 86.49 133.681 84.202 129.073 C 82.039 124.718 80.336 124.169 78.883 127.358 M 40 130 C 40 132.523 40.392 133 42.469 133 C 44.391 133 44.799 132.613 44.313 131.25 C 42.587 126.408 40 125.658 40 130 M 51 133 C 51 133.55 51.45 134 52 134 C 52.55 134 53 133.55 53 133 C 53 132.45 52.55 132 52 132 C 51.45 132 51 132.45 51 133" stroke-linecap="round"/>
</g>
		<g transform="matrix(1 0 0 1 0.5316 -0.0542)" id="svgPath">
<path style="stroke: none; stroke-width: 1; stroke-dasharray: none; stroke-linecap: butt; stroke-dashoffset: 0; stroke-linejoin: miter; stroke-miterlimit: 4; is-custom-font: none; font-file-url: none; fill: none; fill-rule: evenodd; opacity: 1;" transform=" translate(-67.5316, -66.9458)" d="M 4.441 1.555 C 2.577 3.049 2.589 3.067 4.75 2.02 C 5.988 1.42 7 0.72 7 0.465 C 7 -0.3 6.481 -0.079 4.441 1.555 M 18.507 0.989 C 18.157 1.555 18.558 1.723 19.448 1.382 C 21.18 0.717 21.497 0 20.059 0 C 19.541 0 18.843 0.445 18.507 0.989 M 23.75 2.068 C 21.688 3.157 20 4.271 20 4.544 C 20 4.99 27.899 1.298 28.917 0.377 C 30.067 -0.664 27.064 0.319 23.75 2.068 M 33 1 C 32.175 1.533 31.95 1.969 32.5 1.969 C 33.05 1.969 34.175 1.533 35 1 C 35.825 0.467 36.05 0.031 35.5 0.031 C 34.95 0.031 33.825 0.467 33 1 M 50.75 0.706 C 51.987 0.944 54.013 0.944 55.25 0.706 C 56.487 0.467 55.475 0.272 53 0.272 C 50.525 0.272 49.513 0.467 50.75 0.706 M 63.5 0.922 C 61.829 1.304 65.286 1.584 71.307 1.554 C 77.251 1.524 81.076 1.207 79.807 0.85 C 76.808 0.004 67.332 0.047 63.5 0.922 M 88.75 0.662 C 89.438 0.94 90.563 0.94 91.25 0.662 C 91.938 0.385 91.375 0.158 90 0.158 C 88.625 0.158 88.063 0.385 88.75 0.662 M 104 1 C 104.825 1.533 105.95 1.969 106.5 1.969 C 107.05 1.969 106.825 1.533 106 1 C 105.175 0.467 104.05 0.031 103.5 0.031 C 102.95 0.031 103.175 0.467 104 1 M 127.694 2.468 C 129.584 4.131 130.01 4.957 129 4.999 C 127.849 5.046 127.925 5.308 129.325 6.122 C 130.329 6.706 131.36 6.974 131.616 6.717 C 132.259 6.074 127.05 0 125.855 0 C 125.324 0 126.151 1.111 127.694 2.468 M 132 0.378 C 132 0.585 132.685 1.324 133.523 2.019 C 134.796 3.076 134.943 3.014 134.416 1.641 C 133.878 0.24 132 -0.743 132 0.378 M 44.269 1.693 C 45.242 1.947 46.592 1.93 47.269 1.656 C 47.946 1.382 47.15 1.175 45.5 1.195 C 43.85 1.215 43.296 1.439 44.269 1.693 M 93.813 1.683 C 94.534 1.972 95.397 1.936 95.729 1.604 C 96.061 1.272 95.471 1.036 94.417 1.079 C 93.252 1.127 93.015 1.364 93.813 1.683 M 9.638 3.5 C 9.322 4.325 9.499 5 10.031 5 C 10.564 5 11 4.325 11 3.5 C 11 2.675 10.823 2 10.607 2 C 10.391 2 9.955 2.675 9.638 3.5 M 39.813 2.683 C 40.534 2.972 41.397 2.936 41.729 2.604 C 42.061 2.272 41.471 2.036 40.417 2.079 C 39.252 2.127 39.015 2.364 39.813 2.683 M 56.75 2.662 C 57.438 2.94 58.563 2.94 59.25 2.662 C 59.938 2.385 59.375 2.158 58 2.158 C 56.625 2.158 56.063 2.385 56.75 2.662 M 83.813 2.683 C 84.534 2.972 85.397 2.936 85.729 2.604 C 86.061 2.272 85.471 2.036 84.417 2.079 C 83.252 2.127 83.015 2.364 83.813 2.683 M 98.5 3 C 99.6 3.473 101.175 3.859 102 3.859 C 102.945 3.859 102.761 3.542 101.5 3 C 100.4 2.527 98.825 2.141 98 2.141 C 97.055 2.141 97.239 2.458 98.5 3 M 119.934 3.81 C 121.273 4.897 123.748 6.547 125.434 7.476 L 128.5 9.167 L 126.066 7.19 C 124.727 6.103 122.252 4.453 120.566 3.524 L 117.5 1.833 L 119.934 3.81 M 124 2.378 C 124 2.585 124.787 3.373 125.75 4.128 C 127.336 5.371 127.371 5.336 126.128 3.75 C 124.821 2.084 124 1.555 124 2.378 M 12.813 3.683 C 13.534 3.972 14.397 3.936 14.729 3.604 C 15.061 3.272 14.471 3.036 13.417 3.079 C 12.252 3.127 12.015 3.364 12.813 3.683 M 48.5 4 C 45.805 4.686 45.754 4.765 48 4.782 C 49.375 4.792 51.625 4.44 53 4 C 54.959 3.373 55.067 3.203 53.5 3.218 C 52.4 3.228 50.15 3.58 48.5 4 M 72.25 3.689 C 73.213 3.941 74.787 3.941 75.75 3.689 C 76.713 3.438 75.925 3.232 74 3.232 C 72.075 3.232 71.287 3.438 72.25 3.689 M 88.269 3.693 C 89.242 3.947 90.592 3.93 91.269 3.656 C 91.946 3.382 91.15 3.175 89.5 3.195 C 87.85 3.215 87.296 3.439 88.269 3.693 M 111.083 3.377 C 112.106 4.303 120 7.989 120 7.541 C 120 6.972 112.453 3 111.373 3 C 110.985 3 110.854 3.17 111.083 3.377 M 19.233 8.973 C 15.338 11.708 11.867 14.407 11.518 14.971 C 11.017 15.782 25.281 5.994 26.917 4.405 C 28.617 2.753 25.184 4.793 19.233 8.973 M 28.322 6.989 C 25.474 8.622 22.8 10.53 22.38 11.229 C 21.762 12.257 21.916 12.257 23.184 11.23 C 24.047 10.532 27.17 8.628 30.126 6.999 C 33.082 5.369 35.05 4.032 34.5 4.027 C 33.95 4.023 31.17 5.355 28.322 6.989 M 61.75 4.706 C 62.987 4.944 65.013 4.944 66.25 4.706 C 67.487 4.467 66.475 4.272 64 4.272 C 61.525 4.272 60.513 4.467 61.75 4.706 M 80.269 4.693 C 81.242 4.947 82.592 4.93 83.269 4.656 C 83.946 4.382 83.15 4.175 81.5 4.195 C 79.85 4.215 79.296 4.439 80.269 4.693 M 1.405 7.25 C -0.498 9.498 -0.498 9.498 1.579 7.75 C 3.776 5.9 8 5.359 8 6.928 C 8 7.438 6.538 9.057 4.75 10.526 L 1.5 13.196 L 4.719 11.401 C 9.731 8.606 10.225 5 5.596 5 C 4.339 5 2.453 6.012 1.405 7.25 M 14.15 8.006 C 11.868 9.66 10 11.258 10 11.557 C 10 12.027 15.634 8.192 18.45 5.805 C 20.819 3.798 17.891 5.296 14.15 8.006 M 38.5 6.464 C 34.556 8.27 35.448 8.301 41 6.552 C 43.475 5.772 44.6 5.124 43.5 5.112 C 42.4 5.1 40.15 5.708 38.5 6.464 M 55.269 5.693 C 56.242 5.947 57.592 5.93 58.269 5.656 C 58.946 5.382 58.15 5.175 56.5 5.195 C 54.85 5.215 54.296 5.439 55.269 5.693 M 85.813 5.683 C 86.534 5.972 87.397 5.936 87.729 5.604 C 88.061 5.272 87.471 5.036 86.417 5.079 C 85.252 5.127 85.015 5.364 85.813 5.683 M 99 6.5 C 103.566 8.258 105.362 8.232 101.5 6.464 C 99.85 5.708 97.825 5.104 97 5.121 C 96.175 5.138 97.075 5.759 99 6.5 M 110.25 6.658 C 114.319 8.346 115.001 9.592 112.25 10.311 C 110.933 10.655 111.057 10.797 112.75 10.884 C 116.006 11.052 115.571 8.347 112.05 6.526 C 110.427 5.687 108.514 5.023 107.8 5.052 C 107.085 5.08 108.188 5.803 110.25 6.658 M 43.15 8.123 C 34.051 11.004 35.973 11.29 45.502 8.472 C 49.901 7.171 52.6 6.108 51.5 6.11 C 50.4 6.111 46.643 7.017 43.15 8.123 M 89.813 6.683 C 90.534 6.972 91.397 6.936 91.729 6.604 C 92.061 6.272 91.471 6.036 90.417 6.079 C 89.252 6.127 89.015 6.364 89.813 6.683 M 67.75 7.723 C 69.537 7.945 72.463 7.945 74.25 7.723 C 76.037 7.502 74.575 7.32 71 7.32 C 67.425 7.32 65.963 7.502 67.75 7.723 M 94.5 7.865 C 95.6 8.347 98.075 9.026 100 9.375 C 102.403 9.811 102.873 9.735 101.5 9.135 C 100.4 8.653 97.925 7.974 96 7.625 C 93.597 7.189 93.127 7.265 94.5 7.865 M 53.083 8.36 C 53.313 8.558 55.975 8.972 59 9.28 C 62.423 9.628 63.745 9.519 62.5 8.99 C 60.584 8.176 52.222 7.616 53.083 8.36 M 80.75 8.706 C 81.987 8.944 84.013 8.944 85.25 8.706 C 86.487 8.467 85.475 8.272 83 8.272 C 80.525 8.272 79.513 8.467 80.75 8.706 M 106.5 9 C 109.249 10.181 110.828 10.181 109 9 C 108.175 8.467 106.825 8.055 106 8.086 C 105.011 8.122 105.181 8.433 106.5 9 M 121 8.35 C 121 8.581 122.18 9.543 123.623 10.489 C 125.066 11.434 125.941 11.713 125.567 11.109 C 124.854 9.955 121 7.626 121 8.35 M 49.813 9.683 C 50.534 9.972 51.397 9.936 51.729 9.604 C 52.061 9.272 51.471 9.036 50.417 9.079 C 49.252 9.127 49.015 9.364 49.813 9.683 M 88.75 9.662 C 89.438 9.94 90.563 9.94 91.25 9.662 C 91.938 9.385 91.375 9.158 90 9.158 C 88.625 9.158 88.063 9.385 88.75 9.662 M 44 11 C 42.172 12.181 43.751 12.181 46.5 11 C 47.819 10.433 47.989 10.122 47 10.086 C 46.175 10.055 44.825 10.467 44 11 M 56.75 10.662 C 57.438 10.94 58.563 10.94 59.25 10.662 C 59.938 10.385 59.375 10.158 58 10.158 C 56.625 10.158 56.063 10.385 56.75 10.662 M 98.46 12.011 C 101.738 13.057 104.575 13.759 104.764 13.569 C 105.268 13.065 95.918 9.991 94.072 10.054 C 93.207 10.083 95.182 10.964 98.46 12.011 M 26.441 12.555 C 24.577 14.049 24.589 14.067 26.75 13.02 C 27.988 12.42 29 11.72 29 11.465 C 29 10.7 28.481 10.921 26.441 12.555 M 48.25 12.973 C 45.913 14.034 44 15.422 44 16.058 C 44 16.701 44.702 16.945 45.582 16.607 C 46.452 16.273 48.139 15.955 49.332 15.9 C 51.302 15.81 51.271 15.735 49 15.087 C 46.663 14.419 46.793 14.268 51 12.765 C 53.475 11.881 54.825 11.132 54 11.101 C 53.175 11.07 50.587 11.912 48.25 12.973 M 70.25 12.031 C 69.013 12.529 68 13.202 68 13.527 C 68 13.852 68.563 13.77 69.25 13.344 C 69.938 12.918 73.875 12.284 78 11.936 L 85.5 11.302 L 79 11.214 C 75.425 11.166 71.487 11.534 70.25 12.031 M 132.733 12.124 C 133.412 12.808 134.219 13.115 134.526 12.807 C 134.834 12.499 134.279 11.94 133.293 11.564 C 131.868 11.022 131.753 11.136 132.733 12.124 M 6.405 14.25 L 4.5 16.5 L 6.75 14.595 C 7.988 13.547 9 12.535 9 12.345 C 9 11.545 8.195 12.136 6.405 14.25 M 17.924 14.75 L 15.5 17.5 L 18.25 15.076 C 20.82 12.81 21.459 12 20.674 12 C 20.495 12 19.258 13.238 17.924 14.75 M 31.507 12.989 C 31.157 13.555 31.558 13.723 32.448 13.382 C 34.18 12.717 34.497 12 33.059 12 C 32.541 12 31.843 12.445 31.507 12.989 M 38 13.5 C 36.625 14.286 35.95 14.929 36.5 14.929 C 37.05 14.929 38.625 14.286 40 13.5 C 41.375 12.714 42.05 12.071 41.5 12.071 C 40.95 12.071 39.375 12.714 38 13.5 M 56.5 13.523 C 53.666 14.251 52.583 14.816 54 14.827 C 55.375 14.838 58.3 14.253 60.5 13.528 C 65.605 11.845 63.039 11.842 56.5 13.523 M 88.5 13 C 90.15 13.42 92.4 13.772 93.5 13.782 C 95.067 13.797 94.959 13.627 93 13 C 91.625 12.56 89.375 12.208 88 12.218 C 85.754 12.235 85.805 12.314 88.5 13 M 118 13.059 C 118 13.641 118.47 13.828 119.044 13.473 C 119.618 13.118 120.855 13.429 121.794 14.164 C 123.331 15.367 123.364 15.326 122.128 13.75 C 120.618 11.825 118 11.387 118 13.059 M 129.437 14.75 C 131.052 16.538 133.077 17.964 133.937 17.921 C 135.283 17.853 135.292 17.766 134 17.296 C 133.175 16.996 131.15 15.569 129.5 14.125 L 126.5 11.5 L 129.437 14.75 M 111 13.49 C 111 14.175 117.123 17.21 117.58 16.753 C 117.797 16.536 116.406 15.61 114.487 14.695 C 112.569 13.781 111 13.239 111 13.49 M 78.786 14.548 C 78.485 14.849 75.372 15.467 71.869 15.921 C 67.114 16.537 66.514 16.762 69.5 16.809 C 71.7 16.843 76.2 16.263 79.5 15.52 C 83.773 14.557 84.613 14.143 82.417 14.084 C 80.721 14.038 79.087 14.246 78.786 14.548 M 99 15.5 C 103.566 17.258 105.362 17.232 101.5 15.464 C 99.85 14.708 97.825 14.104 97 14.121 C 96.175 14.138 97.075 14.759 99 15.5 M 109 15.917 C 110.925 16.923 113.625 18.035 115 18.389 C 116.375 18.742 115.08 17.899 112.122 16.516 C 105.92 13.615 103.825 13.213 109 15.917 M 24.306 17.573 L 21.5 20.146 L 24.75 17.885 C 26.538 16.641 28 15.484 28 15.312 C 28 14.523 26.894 15.2 24.306 17.573 M 29.696 17.978 C 27.113 19.616 25 21.172 25 21.437 C 25 21.701 27.25 20.519 30 18.809 C 34.41 16.068 35.726 15 34.696 15 C 34.528 15 32.278 16.34 29.696 17.978 M 119.333 16.456 C 119.333 17.257 119.716 17.676 120.183 17.387 C 120.65 17.098 120.774 16.443 120.457 15.931 C 119.649 14.623 119.333 14.77 119.333 16.456 M 128.5 19.343 C 133.623 24.036 135 24.798 135 22.941 C 135 22.359 134.581 22.141 134.069 22.457 C 133.557 22.774 132.876 22.608 132.555 22.089 C 132.235 21.571 130.066 19.71 127.736 17.954 C 123.853 15.028 123.917 15.144 128.5 19.343 M 5 20.084 L 0.5 24.163 L 5.25 20.461 C 9.414 17.216 10.648 15.993 9.75 16.003 C 9.613 16.004 7.475 17.841 5 20.084 M 18.872 17.75 C 17.629 19.336 17.664 19.371 19.25 18.128 C 20.916 16.821 21.445 16 20.622 16 C 20.415 16 19.627 16.788 18.872 17.75 M 53.083 16.367 C 54.05 17.218 63 17.679 63 16.877 C 63 16.395 60.675 16 57.833 16 C 54.992 16 52.854 16.165 53.083 16.367 M 89.083 16.361 C 89.313 16.559 91.525 16.989 94 17.317 C 97.005 17.714 97.835 17.617 96.5 17.026 C 94.59 16.18 88.215 15.609 89.083 16.361 M 11.5 19.588 L 8.5 22.165 L 11.75 20.015 C 13.538 18.832 15 17.669 15 17.432 C 15 16.683 14.577 16.944 11.5 19.588 M 35.75 18.572 C 31.873 20.675 32.312 21.401 36.25 19.399 C 40.02 17.481 40.687 16.985 39.417 17.04 C 38.913 17.062 37.263 17.751 35.75 18.572 M 38 20.909 C 36.075 22.784 35.405 23.839 36.511 23.252 C 38.699 22.092 42.574 18.138 41.911 17.744 C 41.685 17.61 39.925 19.034 38 20.909 M 48 18 C 46.172 19.181 47.751 19.181 50.5 18 C 51.819 17.433 51.989 17.122 51 17.086 C 50.175 17.055 48.825 17.467 48 18 M 106 18 C 106.825 18.533 107.95 18.969 108.5 18.969 C 109.05 18.969 108.825 18.533 108 18 C 107.175 17.467 106.05 17.031 105.5 17.031 C 104.95 17.031 105.175 17.467 106 18 M 76.776 18.733 C 79.128 18.945 82.728 18.942 84.776 18.727 C 86.824 18.512 84.9 18.339 80.5 18.343 C 76.1 18.346 74.424 18.522 76.776 18.733 M 99.083 18.385 C 100.101 19.323 118 27.968 118 27.52 C 118 26.965 100.441 18 99.353 18 C 98.976 18 98.854 18.173 99.083 18.385 M 14.872 20.75 C 13.629 22.336 13.664 22.371 15.25 21.128 C 16.916 19.821 17.445 19 16.622 19 C 16.415 19 15.627 19.788 14.872 20.75 M 43.09 21.574 C 41.765 22.971 39.402 24.775 37.84 25.583 C 36.278 26.39 35 27.276 35 27.551 C 35 28.342 40.799 25.134 41.542 23.932 C 41.973 23.234 43.061 23.649 44.605 25.099 C 45.922 26.336 47 26.868 47 26.281 C 47 25.694 46.325 24.955 45.5 24.638 C 42.869 23.629 43.888 22.005 47.25 21.85 C 50.299 21.71 50.329 21.675 47.733 21.282 C 46.211 21.052 45.225 20.445 45.542 19.932 C 46.549 18.303 45.576 18.954 43.09 21.574 M 67.25 19.689 C 68.213 19.941 69.787 19.941 70.75 19.689 C 71.713 19.438 70.925 19.232 69 19.232 C 67.075 19.232 66.287 19.438 67.25 19.689 M 91 20 C 94.419 21.095 97.048 21.095 94.5 20 C 93.4 19.527 91.6 19.154 90.5 19.17 C 88.892 19.194 88.99 19.356 91 20 M 118.083 19.373 C 119.112 20.294 125 22.999 125 22.551 C 125 21.975 119.456 19 118.383 19 C 117.989 19 117.854 19.168 118.083 19.373 M 16 23.616 C 13.525 25.548 10.825 27.845 10 28.72 C 9.175 29.595 11.313 28.19 14.75 25.597 C 18.188 23.004 21 20.684 21 20.442 C 21 19.747 20.765 19.896 16 23.616 M 60.25 20.689 C 61.212 20.941 62.788 20.941 63.75 20.689 C 64.713 20.438 63.925 20.232 62 20.232 C 60.075 20.232 59.288 20.438 60.25 20.689 M 54.75 21.662 C 55.438 21.94 56.563 21.94 57.25 21.662 C 57.938 21.385 57.375 21.158 56 21.158 C 54.625 21.158 54.063 21.385 54.75 21.662 M 72.728 21.722 C 74.503 21.943 77.653 21.946 79.728 21.73 C 81.802 21.513 80.35 21.333 76.5 21.328 C 72.65 21.324 70.952 21.501 72.728 21.722 M 114 21.393 C 114 21.609 114.698 22.054 115.552 22.382 C 116.442 22.723 116.843 22.555 116.493 21.989 C 115.906 21.038 114 20.583 114 21.393 M 7.177 26.294 C 4.25 28.608 1.362 31.4 0.76 32.5 C 0.102 33.703 0.836 33.305 2.603 31.5 C 4.218 29.85 7.33 27.061 9.52 25.303 C 11.709 23.544 13.275 22.102 13 22.097 C 12.725 22.093 10.105 23.981 7.177 26.294 M 19 25.96 C 16.525 28.135 14.088 29.934 13.585 29.957 C 12.507 30.008 -0.154 42 0.871 42 C 1.254 42 4.013 39.525 7 36.5 C 9.987 33.475 12.897 30.983 13.466 30.962 C 14.498 30.923 24.947 22.057 24 22.023 C 23.725 22.013 21.475 23.785 19 25.96 M 26.861 24.059 L 24.5 26.119 L 27.25 24.444 C 28.762 23.523 30 22.597 30 22.385 C 30 21.604 29.165 22.05 26.861 24.059 M 65.269 22.693 C 66.242 22.947 67.592 22.93 68.269 22.656 C 68.946 22.382 68.15 22.175 66.5 22.195 C 64.85 22.215 64.296 22.439 65.269 22.693 M 85.269 22.693 C 86.242 22.947 87.592 22.93 88.269 22.656 C 88.946 22.382 88.15 22.175 86.5 22.195 C 84.85 22.215 84.296 22.439 85.269 22.693 M 101 23 C 101.825 23.533 102.95 23.969 103.5 23.969 C 104.05 23.969 103.825 23.533 103 23 C 102.175 22.467 101.05 22.031 100.5 22.031 C 99.95 22.031 100.175 22.467 101 23 M 60.813 23.683 C 61.534 23.972 62.397 23.936 62.729 23.604 C 63.061 23.272 62.471 23.036 61.417 23.079 C 60.252 23.127 60.015 23.364 60.813 23.683 M 90.813 23.683 C 91.534 23.972 92.397 23.936 92.729 23.604 C 93.061 23.272 92.471 23.036 91.417 23.079 C 90.252 23.127 90.015 23.364 90.813 23.683 M 129.5 26.272 C 131.7 28.213 133.676 29.631 133.892 29.425 C 134.368 28.969 130.258 25.387 127.5 23.855 C 126.4 23.244 127.3 24.332 129.5 26.272 M 2.872 25.75 C 1.629 27.336 1.664 27.371 3.25 26.128 C 4.213 25.373 5 24.585 5 24.378 C 5 23.555 4.179 24.084 2.872 25.75 M 30.75 25.572 C 27.012 27.6 27.239 28.445 31 26.5 C 32.65 25.647 34 24.735 34 24.474 C 34 23.831 33.893 23.867 30.75 25.572 M 55.269 24.693 C 56.242 24.947 57.592 24.93 58.269 24.656 C 58.946 24.382 58.15 24.175 56.5 24.195 C 54.85 24.215 54.296 24.439 55.269 24.693 M 72.75 24.706 C 73.987 24.944 76.013 24.944 77.25 24.706 C 78.487 24.467 77.475 24.272 75 24.272 C 72.525 24.272 71.513 24.467 72.75 24.706 M 95.5 25 C 98.249 26.181 99.828 26.181 98 25 C 97.175 24.467 95.825 24.055 95 24.086 C 94.011 24.122 94.181 24.433 95.5 25 M 105.083 24.365 C 105.313 24.565 106.625 25.265 108 25.92 C 110.357 27.042 110.389 27.022 108.559 25.555 C 106.966 24.279 103.711 23.164 105.083 24.365 M 63.25 25.689 C 64.213 25.941 65.787 25.941 66.75 25.689 C 67.713 25.438 66.925 25.232 65 25.232 C 63.075 25.232 62.288 25.438 63.25 25.689 M 81.083 25.365 C 81.313 25.565 83.975 25.985 87 26.298 C 90.551 26.666 91.614 26.572 90 26.034 C 87.522 25.207 80.282 24.664 81.083 25.365 M 19.417 29.572 L 15.5 33.145 L 19.75 29.905 C 23.633 26.945 24.581 26 23.667 26 C 23.483 26 21.571 27.608 19.417 29.572 M 57.813 26.683 C 58.534 26.972 59.397 26.936 59.729 26.604 C 60.061 26.272 59.471 26.036 58.417 26.079 C 57.252 26.127 57.015 26.364 57.813 26.683 M 102 27.5 C 103.375 28.286 104.95 28.929 105.5 28.929 C 106.05 28.929 105.375 28.286 104 27.5 C 102.625 26.714 101.05 26.071 100.5 26.071 C 99.95 26.071 100.625 26.714 102 27.5 M 53.813 27.683 C 54.534 27.972 55.397 27.936 55.729 27.604 C 56.061 27.272 55.471 27.036 54.417 27.079 C 53.252 27.127 53.015 27.364 53.813 27.683 M 71.5 28.03 C 76.45 28.418 83.132 29.276 86.348 29.937 C 89.564 30.597 92.381 30.953 92.607 30.727 C 93.565 29.768 75.572 27.013 69.32 27.162 L 62.5 27.324 L 71.5 28.03 M 97.441 29.023 C 100.158 30.084 102.54 30.794 102.732 30.601 C 103.21 30.124 95.267 26.988 93.73 27.047 C 93.053 27.073 94.723 27.962 97.441 29.023 M 111 27.43 C 111 27.705 111.9 28.411 113 29 C 114.1 29.589 115 29.845 115 29.57 C 115 29.295 114.1 28.589 113 28 C 111.9 27.411 111 27.155 111 27.43 M 48 29 C 46.172 30.181 47.751 30.181 50.5 29 C 51.819 28.433 51.989 28.122 51 28.086 C 50.175 28.055 48.825 28.467 48 29 M 58.75 28.662 C 59.438 28.94 60.563 28.94 61.25 28.662 C 61.938 28.385 61.375 28.158 60 28.158 C 58.625 28.158 58.063 28.385 58.75 28.662 M 119 28.259 C 119 28.495 121.362 30.657 124.25 33.066 C 127.138 35.474 128.868 36.653 128.096 35.685 C 126.545 33.739 119 27.581 119 28.259 M 129.5 32 C 131.648 34.2 133.631 36 133.906 36 C 134.181 36 132.648 34.2 130.5 32 C 128.352 29.8 126.369 28 126.094 28 C 125.819 28 127.352 29.8 129.5 32 M 20.424 32.458 C 18.183 34.338 14.207 38.492 11.588 41.688 L 6.828 47.5 L 11.392 42.5 C 13.901 39.75 18.103 35.597 20.727 33.271 C 26.435 28.213 26.209 27.606 20.424 32.458 M 29.441 30.555 C 27.577 32.049 27.589 32.067 29.75 31.02 C 30.988 30.42 32 29.72 32 29.465 C 32 28.7 31.481 28.921 29.441 30.555 M 36.441 30.555 C 34.577 32.049 34.589 32.067 36.75 31.02 C 37.987 30.42 39 29.72 39 29.465 C 39 28.7 38.481 28.921 36.441 30.555 M 51.5 30.945 C 49.3 31.986 47.95 32.841 48.5 32.845 C 49.864 32.854 57.755 29.161 56.5 29.1 C 55.95 29.074 53.7 29.904 51.5 30.945 M 68.5 29.922 C 73.809 30.568 73.079 31.259 65.703 32.567 C 63.615 32.937 62.117 33.45 62.374 33.707 C 62.631 33.964 65.352 33.654 68.421 33.016 C 72.05 32.263 74 31.359 74 30.429 C 74 29.352 72.708 29.039 68.75 29.157 L 63.5 29.314 L 68.5 29.922 M 107.5 29.663 C 110.055 32.083 116.333 36.177 114.817 34.435 C 113.891 33.371 111.641 31.649 109.817 30.608 C 107.993 29.567 106.95 29.142 107.5 29.663 M 4.437 33.25 L 1.5 36.5 L 4.75 33.563 C 7.779 30.825 8.46 30 7.687 30 C 7.515 30 6.052 31.462 4.437 33.25 M 40.75 32.068 C 38.688 33.157 37 34.271 37 34.544 C 37 34.99 44.899 31.298 45.917 30.377 C 47.067 29.336 44.064 30.319 40.75 32.068 M 60.813 30.683 C 61.534 30.972 62.397 30.936 62.729 30.604 C 63.061 30.272 62.471 30.036 61.417 30.079 C 60.252 30.127 60.015 30.364 60.813 30.683 M 116 30.22 C 116 30.416 118.138 32.333 120.75 34.48 C 123.362 36.627 124.6 37.349 123.5 36.084 C 121.556 33.848 116 29.504 116 30.22 M 55 33 C 53.075 34.054 51.86 34.935 52.3 34.958 C 53.359 35.014 59 32.081 59 31.474 C 59 30.82 58.941 30.842 55 33 M 94.083 31.377 C 95.106 32.303 103 35.989 103 35.541 C 103 34.972 95.453 31 94.373 31 C 93.985 31 93.854 31.17 94.083 31.377 M 105.976 32.706 C 107.338 33.693 110.038 35.83 111.976 37.455 L 115.5 40.41 L 112.795 37.447 C 111.307 35.818 108.607 33.681 106.795 32.699 C 103.622 30.979 103.592 30.979 105.976 32.706 M 24.872 33.75 C 23.629 35.336 23.664 35.371 25.25 34.128 C 26.916 32.821 27.445 32 26.622 32 C 26.415 32 25.627 32.788 24.872 33.75 M 31.872 33.75 C 30.629 35.336 30.664 35.371 32.25 34.128 C 33.212 33.373 34 32.585 34 32.378 C 34 31.555 33.179 32.084 31.872 33.75 M 80.269 32.693 C 81.242 32.947 82.592 32.93 83.269 32.656 C 83.946 32.382 83.15 32.175 81.5 32.195 C 79.85 32.215 79.296 32.439 80.269 32.693 M 85.813 32.683 C 86.534 32.972 87.397 32.936 87.729 32.604 C 88.061 32.272 87.471 32.036 86.417 32.079 C 85.252 32.127 85.015 32.364 85.813 32.683 M 7.083 40.687 C 3.188 44.916 0 48.775 0 49.264 C 0 49.753 1.204 48.656 2.675 46.827 C 4.146 44.997 7.618 41.138 10.391 38.25 C 13.163 35.362 15.147 33 14.799 33 C 14.452 33 10.979 36.459 7.083 40.687 M 42.75 34.572 C 38.873 36.675 39.312 37.401 43.25 35.399 C 47.02 33.481 47.687 32.985 46.417 33.04 C 45.913 33.062 44.263 33.751 42.75 34.572 M 72 34 C 70.02 34.634 69.916 34.801 71.5 34.801 C 72.6 34.801 74.625 34.44 76 34 C 77.98 33.366 78.084 33.199 76.5 33.199 C 75.4 33.199 73.375 33.56 72 34 M 53.5 36.926 C 45.635 40.755 46.895 40.848 55.114 37.046 C 58.626 35.421 61.05 34.073 60.5 34.049 C 59.95 34.025 56.8 35.32 53.5 36.926 M 96.874 36.999 C 99.83 38.628 102.953 40.532 103.816 41.23 C 105.084 42.257 105.238 42.257 104.62 41.229 C 103.756 39.792 94.033 34.014 92.5 34.027 C 91.95 34.032 93.918 35.369 96.874 36.999 M 19.907 38.25 C 18.681 40.038 16.738 42.327 15.589 43.337 C 14.44 44.347 14.063 44.883 14.75 44.528 C 17.849 42.927 15.373 46.652 8 54.684 C 3.6 59.478 0 63.794 0 64.276 C 0 64.759 1.214 63.656 2.697 61.827 C 4.18 59.997 8.005 55.726 11.197 52.337 C 14.389 48.947 17.005 45.572 17.011 44.837 C 17.018 44.101 18.743 42.676 20.846 41.67 C 22.948 40.663 25.981 38.737 27.584 37.39 C 29.925 35.423 29.525 35.538 25.554 37.97 C 19.333 41.781 18.303 41.788 21 38 C 22.175 36.35 22.911 35 22.636 35 C 22.361 35 21.133 36.462 19.907 38.25 M 48 36 C 47.175 36.533 46.95 36.969 47.5 36.969 C 48.05 36.969 49.175 36.533 50 36 C 50.825 35.467 51.05 35.031 50.5 35.031 C 49.95 35.031 48.825 35.467 48 36 M 62.188 36.683 C 59.816 37.522 58.052 38.385 58.268 38.601 C 58.484 38.817 61.099 38.128 64.08 37.07 C 67.061 36.012 68.825 35.149 68 35.152 C 67.175 35.155 64.559 35.844 62.188 36.683 M 75.728 36.722 C 77.503 36.943 80.653 36.946 82.728 36.73 C 84.802 36.513 83.35 36.333 79.5 36.328 C 75.65 36.324 73.952 36.501 75.728 36.722 M 125.448 44.719 C 130.369 49.789 134.607 53.726 134.865 53.469 C 135.122 53.211 135.132 52.888 134.887 52.75 C 134.641 52.612 130.403 48.675 125.47 44 L 116.5 35.5 L 125.448 44.719 M 41.75 38.572 C 37.873 40.675 38.312 41.401 42.25 39.399 C 46.02 37.481 46.687 36.985 45.417 37.04 C 44.913 37.062 43.263 37.751 41.75 38.572 M 87.813 37.683 C 88.534 37.972 89.397 37.936 89.729 37.604 C 90.061 37.272 89.471 37.036 88.417 37.079 C 87.252 37.127 87.015 37.364 87.813 37.683 M 131.232 39 C 131.919 40.1 132.893 41 133.396 41 C 133.898 41 133.495 40.1 132.5 39 C 131.505 37.9 130.531 37 130.337 37 C 130.142 37 130.545 37.9 131.232 39 M 65.5 39 C 64.181 39.567 64.011 39.878 65 39.914 C 65.825 39.945 67.175 39.533 68 39 C 69.828 37.819 68.249 37.819 65.5 39 M 108.5 40 C 109.495 41.1 110.535 42 110.81 42 C 111.085 42 110.495 41.1 109.5 40 C 108.505 38.9 107.465 38 107.19 38 C 106.915 38 107.505 38.9 108.5 40 M 16.878 50.878 C 10.345 57.41 5 63.26 5 63.878 C 5 66.24 8.752 64.843 12.054 61.25 L 15.5 57.5 L 11.837 60.862 C 9.822 62.711 7.572 64.014 6.837 63.757 C 6.008 63.467 10.131 58.675 17.689 51.145 C 24.394 44.465 29.626 39 29.317 39 C 29.008 39 23.41 44.345 16.878 50.878 M 51.999 40.94 C 50.073 41.959 47.602 43.852 46.506 45.146 L 44.514 47.5 L 47.007 45.365 C 48.378 44.191 51.3 42.299 53.5 41.16 C 55.7 40.02 57.05 39.088 56.5 39.088 C 55.95 39.088 53.925 39.922 51.999 40.94 M 75.25 39.689 C 76.213 39.941 77.787 39.941 78.75 39.689 C 79.713 39.438 78.925 39.232 77 39.232 C 75.075 39.232 74.287 39.438 75.25 39.689 M 83.813 39.683 C 84.534 39.972 85.397 39.936 85.729 39.604 C 86.061 39.272 85.471 39.036 84.417 39.079 C 83.252 39.127 83.015 39.364 83.813 39.683 M 129.556 43.063 C 131.725 45.573 133.703 47.47 133.951 47.279 C 134.199 47.088 132.424 45.034 130.007 42.716 L 125.611 38.5 L 129.556 43.063 M 45 41 C 44.099 41.582 43.975 41.975 44.691 41.985 C 45.346 41.993 46.16 41.55 46.5 41 C 47.267 39.758 46.921 39.758 45 41 M 60 41 C 59.175 41.533 58.95 41.969 59.5 41.969 C 60.05 41.969 61.175 41.533 62 41 C 62.825 40.467 63.05 40.031 62.5 40.031 C 61.95 40.031 60.825 40.467 60 41 M 70.813 40.683 C 71.534 40.972 72.397 40.936 72.729 40.604 C 73.061 40.272 72.471 40.036 71.417 40.079 C 70.252 40.127 70.015 40.364 70.813 40.683 M 96 40.393 C 96 40.609 96.698 41.054 97.552 41.382 C 98.442 41.723 98.843 41.555 98.493 40.989 C 97.906 40.038 96 39.583 96 40.393 M 122.455 47 C 132.175 57.545 133.991 59.28 129.259 53.5 C 127.007 50.75 123 46.475 120.354 44 C 117.226 41.074 117.961 42.124 122.455 47 M 35.655 42.829 C 33.708 44.98 33.551 46 35.167 46 C 35.808 46 36.032 45.699 35.664 45.331 C 35.297 44.963 35.741 43.838 36.653 42.831 C 37.564 41.824 38.085 41 37.81 41 C 37.535 41 36.565 41.823 35.655 42.829 M 63.5 42.464 C 59.638 44.232 61.434 44.258 66 42.5 C 67.925 41.759 68.825 41.138 68 41.121 C 67.175 41.104 65.15 41.708 63.5 42.464 M 78.813 41.683 C 79.534 41.972 80.397 41.936 80.729 41.604 C 81.061 41.272 80.471 41.036 79.417 41.079 C 78.252 41.127 78.015 41.364 78.813 41.683 M 95.318 44.21 C 98.882 46.143 104.096 50.492 108.775 55.433 C 112.976 59.87 115.467 62.15 114.31 60.5 C 110.825 55.527 99.737 45.417 95.27 43.138 C 88.761 39.817 88.8 40.673 95.318 44.21 M 28.405 44.25 L 26.5 46.5 L 28.75 44.595 C 29.988 43.547 31 42.535 31 42.345 C 31 41.545 30.195 42.136 28.405 44.25 M 39 43.5 C 37.625 44.286 36.95 44.929 37.5 44.929 C 38.05 44.929 39.625 44.286 41 43.5 C 42.375 42.714 43.05 42.071 42.5 42.071 C 41.95 42.071 40.375 42.714 39 43.5 M 55.507 42.989 C 55.157 43.555 55.558 43.723 56.448 43.382 C 58.18 42.717 58.497 42 57.059 42 C 56.541 42 55.843 42.445 55.507 42.989 M 73.75 42.662 C 74.438 42.94 75.563 42.94 76.25 42.662 C 76.938 42.385 76.375 42.158 75 42.158 C 73.625 42.158 73.063 42.385 73.75 42.662 M 82.75 42.662 C 83.438 42.94 84.563 42.94 85.25 42.662 C 85.938 42.385 85.375 42.158 84 42.158 C 82.625 42.158 82.063 42.385 82.75 42.662 M 100 42.153 C 100.275 42.386 103.875 45.697 108 49.511 L 115.5 56.445 L 109.5 50.15 C 106.2 46.688 102.6 43.377 101.5 42.792 C 100.4 42.207 99.725 41.92 100 42.153 M 107.5 44 C 108.495 45.1 109.535 46 109.81 46 C 110.085 46 109.495 45.1 108.5 44 C 107.505 42.9 106.465 42 106.19 42 C 105.915 42 106.505 42.9 107.5 44 M 118.965 50 C 122.99 54.675 127.881 60.625 129.835 63.223 C 131.788 65.821 133.58 67.754 133.815 67.518 C 134.321 67.012 117.267 46.403 113.939 43.5 C 112.679 42.4 114.94 45.325 118.965 50 M 66.5 44.464 C 62.638 46.232 64.434 46.258 69 44.5 C 70.925 43.759 71.825 43.138 71 43.121 C 70.175 43.104 68.15 43.708 66.5 44.464 M 87.083 43.365 C 87.313 43.565 88.625 44.265 90 44.92 C 92.357 46.042 92.389 46.022 90.559 44.555 C 88.966 43.279 85.711 42.164 87.083 43.365 M 8.453 49.25 L 4.5 53.5 L 8.75 49.547 C 11.088 47.373 13 45.46 13 45.297 C 13 44.54 12.129 45.298 8.453 49.25 M 48.861 47.059 L 46.5 49.119 L 49.25 47.444 C 50.763 46.523 52 45.597 52 45.385 C 52 44.604 51.165 45.05 48.861 47.059 M 71.5 45.95 C 70.338 46.42 72.431 46.565 76.5 46.297 C 85.645 45.694 87.04 45.16 79.5 45.149 C 76.2 45.144 72.6 45.505 71.5 45.95 M 19.966 51.75 L 14.5 57.5 L 20.25 52.034 C 25.592 46.956 26.458 46 25.716 46 C 25.56 46 22.972 48.587 19.966 51.75 M 52.861 48.059 L 50.5 50.119 L 53.25 48.444 C 54.763 47.523 56 46.597 56 46.385 C 56 45.604 55.165 46.05 52.861 48.059 M 86.083 46.365 C 86.313 46.565 87.625 47.265 89 47.92 C 91.357 49.042 91.389 49.022 89.559 47.555 C 87.966 46.279 84.711 45.164 86.083 46.365 M 111 46.313 C 111 46.485 112.463 47.948 114.25 49.563 L 117.5 52.5 L 114.563 49.25 C 111.825 46.221 111 45.54 111 46.313 M 3.405 49.25 L 1.5 51.5 L 3.75 49.595 C 4.988 48.547 6 47.535 6 47.345 C 6 46.545 5.195 47.136 3.405 49.25 M 27.342 49.319 L 25.5 51.5 L 27.756 49.589 C 32.139 45.878 31.015 48.824 25.835 54.624 C 22.95 57.856 22.073 59.15 23.887 57.5 C 25.701 55.85 28.458 52.906 30.013 50.957 C 32.498 47.843 32.619 47.397 31.013 47.276 C 30.007 47.2 28.356 48.12 27.342 49.319 M 40.75 47.662 C 41.438 47.94 42.563 47.94 43.25 47.662 C 43.938 47.385 43.375 47.158 42 47.158 C 40.625 47.158 40.063 47.385 40.75 47.662 M 66 48 C 65.175 48.533 64.95 48.969 65.5 48.969 C 66.05 48.969 67.175 48.533 68 48 C 68.825 47.467 69.05 47.031 68.5 47.031 C 67.95 47.031 66.825 47.467 66 48 M 77.813 48.683 C 78.534 48.972 79.397 48.936 79.729 48.604 C 80.061 48.272 79.471 48.036 78.417 48.079 C 77.252 48.127 77.015 48.364 77.813 48.683 M 103.12 55.5 C 108.002 60.772 112.019 66.398 114.903 72 C 117.309 76.675 120.69 82.3 122.415 84.5 C 124.14 86.7 126.784 90.412 128.29 92.75 C 129.796 95.088 131.253 97 131.528 97 C 132.199 97 127.31 89.467 123.415 84.5 C 121.69 82.3 118.313 76.675 115.91 72 C 112.678 65.711 109.483 61.419 103.627 55.5 L 95.712 47.5 L 103.12 55.5 M 39.984 54.707 C 37.115 57.847 34.298 61.447 33.724 62.707 C 33.149 63.968 32.301 65 31.839 65 C 30.619 65 30.77 64.371 33.07 59.863 C 34.208 57.632 34.878 55.545 34.559 55.226 C 33.834 54.5 28.18 59.808 26.81 62.5 C 26.251 63.6 27.241 62.789 29.012 60.699 C 32.702 56.341 33.872 56.413 31.574 60.857 C 29.611 64.653 29.585 66 31.474 66 C 32.285 66 33.619 64.704 34.437 63.121 C 35.256 61.537 38.238 57.712 41.064 54.621 C 43.889 51.529 45.976 49 45.701 49 C 45.426 49 42.853 51.568 39.984 54.707 M 60.441 50.555 C 58.611 52.022 58.643 52.042 61 50.92 C 64.061 49.462 64.628 49 63.358 49 C 62.821 49 61.509 49.7 60.441 50.555 M 72.75 49.662 C 73.438 49.94 74.563 49.94 75.25 49.662 C 75.938 49.385 75.375 49.158 74 49.158 C 72.625 49.158 72.063 49.385 72.75 49.662 M 81.75 49.662 C 82.438 49.94 83.563 49.94 84.25 49.662 C 84.938 49.385 84.375 49.158 83 49.158 C 81.625 49.158 81.063 49.385 81.75 49.662 M 96.276 52.942 C 101.167 57.302 104 61.581 104 64.605 C 104 66.149 103.798 66.13 101.858 64.405 C 99.724 62.507 99.722 62.508 101.099 64.75 C 104.198 69.796 106.452 65.672 103.585 60.2 C 102.182 57.521 97.341 52.644 93.5 50.04 C 92.4 49.294 93.649 50.6 96.276 52.942 M 34.25 51.584 C 29.966 53.458 30.103 54.088 34.5 52.739 C 36.425 52.148 38 51.29 38 50.832 C 38 50.374 37.888 50.037 37.75 50.082 C 37.612 50.126 36.038 50.803 34.25 51.584 M 44.069 55.521 C 41.197 58.557 39.031 61.595 39.256 62.271 C 40.213 65.143 42.941 63.651 48.371 57.283 L 54.157 50.5 L 48.285 56.75 C 42.755 62.637 40 64.363 40 61.94 C 40 61.357 42.315 58.432 45.145 55.44 C 47.975 52.448 50.065 50 49.79 50 C 49.515 50 46.94 52.484 44.069 55.521 M 86 50.393 C 86 50.609 86.698 51.054 87.552 51.382 C 88.442 51.723 88.843 51.555 88.493 50.989 C 87.906 50.038 86 49.583 86 50.393 M 16.506 59.797 C 12.109 64.375 8.105 68.881 7.608 69.81 C 7.112 70.74 6.894 71.275 7.124 71 C 7.354 70.725 11.549 66.341 16.445 61.257 C 21.342 56.174 25.157 51.893 24.924 51.744 C 24.691 51.595 20.903 55.219 16.506 59.797 M 63.75 52.572 C 59.873 54.675 60.312 55.401 64.25 53.399 C 68.02 51.481 68.687 50.985 67.417 51.04 C 66.912 51.062 65.263 51.751 63.75 52.572 M 55.405 54.25 L 53.5 56.5 L 55.75 54.595 C 57.864 52.805 58.455 52 57.655 52 C 57.465 52 56.453 53.013 55.405 54.25 M 84 52.98 C 84 53.518 85.847 54.902 88.105 56.053 C 90.362 57.205 91.947 57.723 91.626 57.204 C 91.305 56.685 89.689 55.7 88.034 55.014 C 86.379 54.329 85.271 53.37 85.572 52.884 C 85.872 52.398 85.641 52 85.059 52 C 84.477 52 84 52.441 84 52.98 M 89 53 C 87.718 53.828 87.754 53.972 89.25 53.985 C 90.213 53.993 91 53.55 91 53 C 91 51.78 90.887 51.78 89 53 M 74 53.928 C 80.113 54.632 81.448 55.25 91.5 62.031 C 96.642 65.499 99.546 68.378 102.441 72.876 C 106.413 79.047 108.074 80.912 105.89 76.75 C 102.631 70.538 97.829 65.288 91.5 61.018 C 81.231 54.089 78.673 52.982 73.3 53.147 L 68.5 53.294 L 74 53.928 M 120.934 57.75 C 123.343 60.638 125.505 63 125.741 63 C 126.419 63 120.261 55.455 118.315 53.904 C 117.347 53.132 118.526 54.862 120.934 57.75 M 1.959 57.058 C 0.762 58.739 -0.051 60.282 0.153 60.486 C 0.357 60.69 1.535 59.314 2.771 57.428 C 5.558 53.177 4.927 52.889 1.959 57.058 M 27.763 55.75 C 25.459 58.356 20 67.243 20 68.387 C 20 68.934 21.609 66.709 23.575 63.441 C 25.541 60.174 27.861 56.712 28.73 55.75 C 29.599 54.788 30.085 54 29.81 54 C 29.535 54 28.614 54.788 27.763 55.75 M 62.946 56.829 C 60.501 58.385 57.825 60.488 57 61.501 C 56.175 62.515 57.572 61.804 60.105 59.922 C 62.638 58.04 65.563 55.964 66.605 55.309 C 67.647 54.654 68.251 54.091 67.946 54.059 C 67.641 54.026 65.391 55.273 62.946 56.829 M 54.88 58.728 C 49.532 63.559 41.037 76.128 38.811 82.5 C 37.595 85.982 37.104 90.232 37.192 96.5 L 37.319 105.5 L 37.991 95 C 38.368 89.118 39.36 82.886 40.247 80.83 C 42.896 74.693 51.642 62.462 56.128 58.623 C 58.455 56.63 60.055 55 59.683 55 C 59.31 55 57.149 56.677 54.88 58.728 M 48.317 60.75 C 42.754 67.578 41.699 69 42.198 69 C 42.442 69 44.985 66.075 47.85 62.5 C 50.715 58.925 52.862 56 52.622 56 C 52.383 56 50.445 58.138 48.317 60.75 M 74.282 57.092 C 76.363 57.581 79.4 58.673 81.032 59.517 C 82.665 60.361 84 60.793 84 60.477 C 84 59.403 75.512 56.044 73 56.122 C 71.154 56.18 71.489 56.434 74.282 57.092 M 66.872 58.75 C 65.603 60.369 65.65 60.39 67.5 59.033 C 68.6 58.226 69.688 57.439 69.917 57.283 C 70.146 57.127 69.863 57 69.289 57 C 68.715 57 67.627 57.788 66.872 58.75 M 117.957 60.75 C 119.815 63.087 121.515 65 121.735 65 C 122.442 65 118.157 59.373 116.337 57.911 C 115.37 57.135 116.1 58.413 117.957 60.75 M 93 58.277 C 93 58.468 94.463 59.695 96.25 61.003 C 98.261 62.475 98.96 62.717 98.082 61.637 C 96.751 59.997 93 57.517 93 58.277 M 67.75 61.572 C 66.237 62.393 65.007 63.612 65.015 64.282 C 65.026 65.133 65.252 65.169 65.765 64.4 C 66.983 62.577 70.694 60.998 73.684 61.032 C 76.376 61.062 76.415 61.128 74.559 62.532 C 73.491 63.339 73.064 64 73.609 64 C 74.798 64 77 61.922 77 60.8 C 77 59.458 70.673 59.986 67.75 61.572 M 19.243 62.25 C 17.565 64.345 13.863 72.105 14.192 72.84 C 14.361 73.219 15.884 70.711 17.576 67.265 C 20.731 60.84 20.985 60.076 19.243 62.25 M 85 61.378 C 85 61.585 85.787 62.373 86.75 63.128 C 88.336 64.371 88.371 64.336 87.128 62.75 C 85.821 61.084 85 60.555 85 61.378 M 59.405 64.25 L 57.5 66.5 L 59.75 64.595 C 61.864 62.805 62.455 62 61.655 62 C 61.465 62 60.453 63.013 59.405 64.25 M 52.323 66.25 C 51.209 67.487 49.94 69.175 49.502 70 C 48.658 71.591 48.888 71.374 52.939 66.75 C 54.264 65.237 55.124 64 54.849 64 C 54.574 64 53.437 65.013 52.323 66.25 M 73.25 65.989 C 71.463 67.079 70 68.196 70 68.471 C 70 68.746 71.463 68.079 73.25 66.989 C 78.293 63.914 84.136 64.344 88.715 68.127 L 92.5 71.254 L 88.765 67.627 C 85.654 64.606 84.316 64.001 80.765 64.004 C 78.279 64.006 75.144 64.834 73.25 65.989 M 129.632 68.5 C 131.721 71.25 133.503 73.632 133.592 73.793 C 133.68 73.954 134.017 73.397 134.34 72.555 C 134.664 71.713 134.539 71.131 134.063 71.262 C 133.587 71.393 131.54 69.7 129.516 67.5 L 125.834 63.5 L 129.632 68.5 M 67 66 C 64.673 66.745 64.651 66.808 66.691 66.9 C 67.896 66.955 69.16 66.55 69.5 66 C 69.84 65.45 69.979 65.045 69.809 65.1 C 69.639 65.155 68.375 65.56 67 66 M 34.582 69.304 C 31.88 72.847 28.967 79.122 29.052 81.218 C 29.081 81.923 29.985 80.25 31.063 77.5 C 32.856 72.921 37.785 65.529 36.73 69 C 35.211 74.001 35.134 75.252 36.536 72.195 C 37.369 70.378 37.811 68.504 37.519 68.031 C 37.227 67.558 37.553 66.943 38.244 66.664 C 39.157 66.296 39.173 66.136 38.301 66.079 C 37.641 66.036 35.968 67.487 34.582 69.304 M 95.333 70.163 C 97.212 72.728 102.651 82.374 107.418 91.6 C 112.185 100.826 117.529 110.248 119.293 112.538 C 125.454 120.538 133.496 129.837 133.902 129.431 C 134.127 129.206 131.522 125.884 128.113 122.048 C 119.698 112.58 116.861 108.145 107.198 89.356 C 102.632 80.477 97.325 71.477 95.405 69.356 L 91.915 65.5 L 95.333 70.163 M 2.089 68.833 C 1.348 70.218 1.462 70.667 2.554 70.667 C 3.349 70.667 4 69.842 4 68.833 C 4 67.825 3.791 67 3.535 67 C 3.28 67 2.629 67.825 2.089 68.833 M 22.128 73.654 C 20.074 80.638 18.587 87.304 19.486 85.5 C 20.513 83.441 24.88 67.546 24.518 67.185 C 24.311 66.978 23.236 69.889 22.128 73.654 M 52.119 72.75 C 47.967 77.346 47.033 77.998 47.467 76 C 48.006 73.52 48.001 73.518 46.848 75.76 C 45.346 78.679 46.472 79.787 48.8 77.681 C 50.474 76.166 50.737 76.165 52.239 77.668 C 53.484 78.913 53.817 78.966 53.655 77.897 C 53.539 77.129 53.14 76.015 52.769 75.421 C 52.397 74.828 53.455 72.69 55.12 70.671 C 59.753 65.05 57.94 66.306 52.119 72.75 M 120.074 70.5 C 121.309 72.7 122.749 74.95 123.274 75.5 C 124.772 77.069 121.347 70.734 119.49 68.5 C 118.576 67.4 118.839 68.3 120.074 70.5 M 28.71 70 C 28.998 71.1 29.406 72 29.617 72 C 29.827 72 30 71.1 30 70 C 30 68.9 29.592 68 29.094 68 C 28.595 68 28.423 68.9 28.71 70 M 59.872 69.75 C 58.624 71.341 58.661 71.374 60.274 70.107 C 62.688 68.213 63.581 69.428 62.125 72.625 C 61.465 74.073 61.106 75.44 61.328 75.661 C 61.55 75.883 62.285 74.727 62.962 73.092 C 64.83 68.582 62.643 66.217 59.872 69.75 M 78.269 68.693 C 79.242 68.947 80.592 68.93 81.269 68.656 C 81.946 68.382 81.15 68.175 79.5 68.195 C 77.85 68.215 77.296 68.439 78.269 68.693 M 71.5 71.588 L 68.5 74.165 L 72 71.906 C 76.49 69.009 76.501 68.999 75.417 69.005 C 74.912 69.008 73.15 70.17 71.5 71.588 M 107.1 71.75 C 107.199 74.495 107.201 74.495 107.886 72.037 C 108.566 69.599 108.603 69.614 111.481 73.537 C 115.33 78.781 116.82 80.235 114.518 76.5 C 109.51 68.374 106.917 66.714 107.1 71.75 M 126.515 73.767 C 128.067 76.664 129.937 79.532 130.67 80.141 C 131.403 80.75 130.444 78.658 128.539 75.494 C 124.032 68.011 122.925 67.066 126.515 73.767 M 9.863 71.761 C 8.645 73.316 8.677 73.362 10.166 72.197 C 11.579 71.093 11.904 71.169 12.3 72.697 C 12.707 74.265 12.783 74.279 12.884 72.809 C 13.054 70.326 11.43 69.763 9.863 71.761 M 18.624 71.539 C 18.281 72.432 18.029 73.689 18.063 74.332 C 18.098 74.974 18.558 74.422 19.085 73.105 C 19.612 71.787 19.864 70.531 19.645 70.312 C 19.426 70.093 18.966 70.645 18.624 71.539 M 38.45 75.099 C 37.028 77.904 36.033 80.367 36.238 80.571 C 36.443 80.776 37.818 78.482 39.295 75.472 C 40.771 72.462 41.766 70 41.506 70 C 41.246 70 39.871 72.295 38.45 75.099 M 88.78 74.254 C 92.778 79.031 94.918 82.931 101.395 97.25 C 103.324 101.513 105.126 105 105.401 105 C 105.907 105 101.069 93.952 96.274 84.158 C 94.836 81.22 91.666 76.72 89.23 74.158 L 84.802 69.5 L 88.78 74.254 M 65.783 72.75 C 63.741 75.091 61.991 78.566 62.039 80.184 C 62.061 80.908 62.756 79.938 63.583 78.03 C 64.411 76.121 65.813 73.759 66.699 72.78 C 67.585 71.801 68.085 71 67.81 71 C 67.535 71 66.623 71.787 65.783 72.75 M 5.459 73.067 C 5.096 73.653 5.014 74.348 5.276 74.61 C 5.538 74.872 6.019 74.392 6.345 73.543 C 7.021 71.781 6.445 71.471 5.459 73.067 M 57.459 73.067 C 57.096 73.653 57.014 74.348 57.276 74.61 C 57.538 74.872 58.019 74.392 58.345 73.543 C 59.021 71.781 58.445 71.471 57.459 73.067 M 77.083 72.356 C 77.313 72.552 79.075 73.002 81 73.355 C 83.462 73.807 84.055 73.706 83 73.014 C 81.644 72.125 76.092 71.508 77.083 72.356 M 92 72.378 C 92 72.585 92.787 73.373 93.75 74.128 C 95.336 75.371 95.371 75.336 94.128 73.75 C 92.821 72.084 92 71.555 92 72.378 M 28.079 74.583 C 28.127 75.748 28.364 75.985 28.683 75.188 C 28.972 74.466 28.936 73.603 28.604 73.271 C 28.272 72.939 28.036 73.529 28.079 74.583 M 72.924 75.75 L 70.5 78.5 L 73.25 76.076 C 75.82 73.81 76.459 73 75.674 73 C 75.495 73 74.258 74.237 72.924 75.75 M 6.612 78.624 C 5.726 81.227 5.033 83.839 5.073 84.428 C 5.113 85.018 6.012 83.061 7.07 80.08 C 8.128 77.099 8.821 74.487 8.609 74.276 C 8.398 74.065 7.499 76.021 6.612 78.624 M 24.098 77.149 C 23.494 78.881 23 80.681 23 81.149 C 23 82.329 25.746 82.22 26.493 81.011 C 26.852 80.43 26.417 80.286 25.437 80.663 C 23.778 81.299 23.833 80.336 25.744 75.25 C 26.003 74.563 25.985 74 25.705 74 C 25.425 74 24.702 75.417 24.098 77.149 M 87.51 77.5 C 91.517 83.066 92.625 84.098 90.392 80.183 C 89.351 78.359 87.629 76.109 86.565 75.183 C 85.44 74.204 85.835 75.173 87.51 77.5 M 1.079 75.668 C 1.036 76.311 0.741 77.661 0.424 78.668 C -0.123 80.409 -0.094 80.412 0.995 78.712 C 1.626 77.729 1.92 76.379 1.65 75.712 C 1.295 74.837 1.136 74.825 1.079 75.668 M 9.105 82.105 C 7.855 85.988 7.009 89.343 7.226 89.56 C 7.443 89.777 8.644 86.778 9.895 82.895 C 11.145 79.012 11.991 75.657 11.774 75.44 C 11.557 75.223 10.356 78.222 9.105 82.105 M 13.232 78 C 13.232 79.925 13.438 80.713 13.689 79.75 C 13.941 78.787 13.941 77.213 13.689 76.25 C 13.438 75.287 13.232 76.075 13.232 78 M 66.449 78.468 C 65.652 80.375 65.045 82.963 65.1 84.218 C 65.165 85.679 65.523 85.13 66.097 82.69 C 66.59 80.595 67.461 78.007 68.032 76.94 C 68.603 75.873 68.807 75 68.484 75 C 68.162 75 67.246 76.561 66.449 78.468 M 108 75.367 C 108 76.45 112.97 86 113.534 86 C 113.809 86 112.847 83.638 111.397 80.75 C 108.607 75.197 108 74.235 108 75.367 M 3.624 77.539 C 3.281 78.432 3.029 79.689 3.063 80.332 C 3.098 80.974 3.558 80.422 4.085 79.105 C 4.612 77.787 4.864 76.531 4.645 76.312 C 4.426 76.093 3.966 76.645 3.624 77.539 M 17.079 77.583 C 17.127 78.748 17.364 78.985 17.683 78.188 C 17.972 77.466 17.936 76.603 17.604 76.271 C 17.272 75.939 17.036 76.529 17.079 77.583 M 32.04 82.605 C 30.918 86.238 30.025 90.176 30.055 91.355 C 30.085 92.535 30.946 90.35 31.968 86.5 C 32.989 82.65 34.138 78.713 34.52 77.75 C 34.901 76.787 34.959 76 34.647 76 C 34.335 76 33.162 78.972 32.04 82.605 M 55.446 79.435 C 54.543 84.25 56.886 87.345 58.416 83.359 C 58.966 81.926 58.831 81.894 57.359 83.109 C 55.809 84.387 55.727 84.156 56.348 80.25 C 57.152 75.193 56.374 74.49 55.446 79.435 M 74.073 78.635 C 72.933 80.084 72.001 81.997 72.002 82.885 C 72.002 83.773 72.79 82.925 73.752 81 C 74.981 78.539 76.39 77.313 78.5 76.868 C 81.452 76.247 81.457 76.235 78.823 76.118 C 77.029 76.039 75.461 76.87 74.073 78.635 M 59.624 78.539 C 58.659 81.053 58.943 81.702 60.122 79.675 C 60.706 78.671 60.973 77.639 60.715 77.382 C 60.458 77.124 59.966 77.645 59.624 78.539 M 84.597 79.941 C 85.75 81.348 87.437 83.613 88.347 84.973 C 89.256 86.332 90 86.953 90 86.351 C 90 85.749 88.313 83.485 86.25 81.32 C 84.188 79.154 83.443 78.534 84.597 79.941 M 124.887 78.75 C 125.414 79.713 127.455 82.749 129.423 85.497 C 131.39 88.245 133 91.058 133 91.747 C 133 92.436 133.45 93 134 93 C 134.55 93 135 92.325 135 91.5 C 135 90.675 134.659 90 134.242 90 C 133.825 90 131.501 87.075 129.076 83.5 C 124.88 77.312 122.825 74.982 124.887 78.75 M 69.624 80.539 C 69.281 81.432 69.029 82.689 69.063 83.332 C 69.098 83.974 69.558 83.422 70.085 82.105 C 70.612 80.787 70.864 79.531 70.645 79.312 C 70.426 79.093 69.966 79.645 69.624 80.539 M 104.098 93.25 C 111.732 108.546 119.308 120.671 125.921 128.178 C 129.876 132.666 129.951 132.873 127.771 133.291 C 126.151 133.603 126.458 133.767 128.843 133.864 L 132.185 134 L 127.56 128.856 C 120.572 121.084 112.994 109.07 105.098 93.25 C 101.187 85.412 97.762 79 97.487 79 C 97.212 79 100.187 85.412 104.098 93.25 M 16.158 82 C 16.158 83.375 16.385 83.938 16.662 83.25 C 16.94 82.563 16.94 81.438 16.662 80.75 C 16.385 80.063 16.158 80.625 16.158 82 M 119.5 87 C 121.439 90.85 123.25 94 123.525 94 C 123.8 94 122.439 90.85 120.5 87 C 118.561 83.15 116.75 80 116.475 80 C 116.2 80 117.561 83.15 119.5 87 M 50.638 82.5 C 50.955 83.325 51.391 84 51.607 84 C 51.823 84 52 83.325 52 82.5 C 52 81.675 51.564 81 51.031 81 C 50.499 81 50.322 81.675 50.638 82.5 M 75.409 82.377 C 75.118 83.134 75.051 85.947 75.26 88.627 L 75.64 93.5 L 75.82 87.833 C 75.929 84.385 76.489 81.969 77.25 81.662 C 78.229 81.267 78.222 81.141 77.219 81.079 C 76.514 81.036 75.699 81.62 75.409 82.377 M 81 83.777 C 81 86.676 83.429 91 85.057 91 C 86.366 91 86.238 86.616 84.839 83.547 C 83.279 80.123 81 80.26 81 83.777 M 2.079 83.583 C 2.127 84.748 2.364 84.985 2.683 84.188 C 2.972 83.466 2.936 82.603 2.604 82.271 C 2.272 81.939 2.036 82.529 2.079 83.583 M 12.079 83.583 C 12.127 84.748 12.364 84.985 12.683 84.188 C 12.972 83.466 12.936 82.603 12.604 82.271 C 12.272 81.939 12.036 82.529 12.079 83.583 M 34.571 84.571 C 34.204 86.037 34.096 87.429 34.331 87.665 C 34.567 87.9 35.061 86.894 35.429 85.429 C 35.796 83.963 35.904 82.571 35.669 82.335 C 35.433 82.1 34.939 83.106 34.571 84.571 M 42.184 85.886 C 40.368 89.118 40.03 91.18 40.175 98.136 L 40.351 106.5 L 40.925 97.448 C 41.319 91.245 42.058 87.546 43.273 85.698 C 45.664 82.059 46.188 82.3 45.567 86.75 C 45.151 89.73 45.224 89.986 45.922 88 C 48.301 81.232 45.644 79.729 42.184 85.886 M 61.4 96.5 C 61.401 104.75 61.556 107.992 61.744 103.704 C 61.932 99.417 61.931 92.667 61.742 88.704 C 61.552 84.742 61.399 88.25 61.4 96.5 M 82.032 84.059 C 82.014 85.466 82.661 87.491 83.468 88.559 C 84.883 90.429 84.938 90.407 84.968 87.941 C 84.986 86.534 84.339 84.509 83.532 83.441 C 82.117 81.571 82.062 81.593 82.032 84.059 M 108.564 83.293 C 108.94 84.279 109.499 84.834 109.807 84.526 C 110.115 84.219 109.808 83.412 109.124 82.733 C 108.136 81.753 108.022 81.868 108.564 83.293 M 21.38 84.452 C 20.676 86.286 21.7 88 23.5 88 C 25.558 88 26.338 86.112 24.964 84.456 C 23.425 82.603 22.09 82.601 21.38 84.452 M 28.158 85 C 28.158 86.375 28.385 86.938 28.662 86.25 C 28.94 85.563 28.94 84.438 28.662 83.75 C 28.385 83.063 28.158 83.625 28.158 85 M 49.158 85 C 49.158 86.375 49.385 86.938 49.662 86.25 C 49.94 85.563 49.94 84.438 49.662 83.75 C 49.385 83.063 49.158 83.625 49.158 85 M 78.67 86.5 C 79.428 91.443 80.005 92.285 79.985 88.417 C 79.976 86.813 79.539 84.825 79.013 84 C 78.362 82.979 78.252 83.776 78.67 86.5 M 22 85.417 C 22 86.287 22.712 87 23.583 87 C 24.454 87 24.989 86.466 24.771 85.813 C 24.153 83.958 22 83.651 22 85.417 M 14.204 89.938 C 13.542 92.806 13.036 96.131 13.079 97.326 C 13.123 98.522 13.795 96.575 14.573 93 C 15.351 89.425 15.857 86.1 15.698 85.611 C 15.538 85.123 14.866 87.069 14.204 89.938 M 68.32 91 C 68.32 94.575 68.502 96.037 68.723 94.25 C 68.945 92.463 68.945 89.537 68.723 87.75 C 68.502 85.963 68.32 87.425 68.32 91 M 71.272 89 C 71.272 91.475 71.467 92.487 71.706 91.25 C 71.944 90.013 71.944 87.987 71.706 86.75 C 71.467 85.513 71.272 86.525 71.272 89 M 1.158 88 C 1.158 89.375 1.385 89.938 1.662 89.25 C 1.94 88.563 1.94 87.438 1.662 86.75 C 1.385 86.063 1.158 86.625 1.158 88 M 11.079 87.583 C 11.127 88.748 11.364 88.985 11.683 88.188 C 11.972 87.466 11.936 86.603 11.604 86.271 C 11.272 85.939 11.036 86.529 11.079 87.583 M 93.031 86.5 C 93.031 87.05 93.467 88.175 94 89 C 94.533 89.825 94.969 90.05 94.969 89.5 C 94.969 88.95 94.533 87.825 94 87 C 93.467 86.175 93.031 85.95 93.031 86.5 M 110.564 87.293 C 110.94 88.279 111.499 88.834 111.807 88.526 C 112.115 88.219 111.808 87.412 111.124 86.733 C 110.136 85.753 110.022 85.868 110.564 87.293 M 18.158 89 C 18.158 90.375 18.385 90.938 18.662 90.25 C 18.94 89.563 18.94 88.438 18.662 87.75 C 18.385 87.063 18.158 87.625 18.158 89 M 51.15 89.168 C 51.067 90.636 50.741 92.661 50.424 93.668 C 49.881 95.4 49.911 95.403 50.988 93.724 C 51.615 92.748 51.942 90.723 51.714 89.224 L 51.3 86.5 L 51.15 89.168 M 115.5 90 C 116.353 91.65 117.276 93 117.551 93 C 117.826 93 117.353 91.65 116.5 90 C 115.647 88.35 114.724 87 114.449 87 C 114.174 87 114.647 88.35 115.5 90 M 27.272 92 C 27.272 94.475 27.467 95.487 27.706 94.25 C 27.944 93.013 27.944 90.987 27.706 89.75 C 27.467 88.513 27.272 89.525 27.272 92 M 48.252 91.5 C 48.263 93.7 48.468 94.482 48.707 93.238 C 48.946 91.994 48.937 90.194 48.687 89.238 C 48.437 88.282 48.241 89.3 48.252 91.5 M 2.571 91.571 C 2.204 93.037 2.096 94.429 2.331 94.665 C 2.567 94.9 3.061 93.894 3.429 92.429 C 3.796 90.963 3.904 89.571 3.669 89.335 C 3.433 89.1 2.939 90.106 2.571 91.571 M 33.365 98.5 C 33.368 104 33.536 106.122 33.738 103.216 C 33.941 100.311 33.939 95.811 33.734 93.216 C 33.528 90.622 33.363 93 33.365 98.5 M 10.079 91.583 C 10.127 92.748 10.364 92.985 10.683 92.188 C 10.972 91.466 10.936 90.603 10.604 90.271 C 10.272 89.939 10.036 90.529 10.079 91.583 M 112.564 91.293 C 112.94 92.279 113.499 92.834 113.807 92.526 C 114.115 92.219 113.808 91.412 113.124 90.733 C 112.136 89.753 112.022 89.868 112.564 91.293 M 5.128 95.405 C 4.508 97.869 4.037 100.699 4.083 101.693 C 4.129 102.687 4.81 100.843 5.595 97.595 C 6.381 94.348 6.851 91.518 6.64 91.307 C 6.429 91.096 5.749 92.94 5.128 95.405 M 20.624 92.539 C 20.281 93.432 20.029 94.689 20.063 95.332 C 20.098 95.974 20.558 95.422 21.085 94.105 C 21.612 92.787 21.864 91.531 21.645 91.312 C 21.426 91.093 20.966 91.645 20.624 92.539 M 23.326 99.748 L 23.255 108.5 L 23.929 100.5 C 24.299 96.1 24.331 92.162 23.999 91.748 C 23.667 91.334 23.364 94.934 23.326 99.748 M 44.252 94.5 C 44.263 96.7 44.468 97.482 44.707 96.238 C 44.946 94.994 44.937 93.194 44.687 92.238 C 44.437 91.282 44.241 92.3 44.252 94.5 M 95.031 91.5 C 95.031 92.05 95.467 93.175 96 94 C 96.533 94.825 96.969 95.05 96.969 94.5 C 96.969 93.95 96.533 92.825 96 92 C 95.467 91.175 95.031 90.95 95.031 91.5 M 15.249 102.624 C 14.011 108.606 13.027 114.4 13.062 115.5 C 13.098 116.6 14.229 112.325 15.576 106 C 16.923 99.675 17.907 93.881 17.762 93.124 C 17.618 92.367 16.487 96.642 15.249 102.624 M 80.199 93.5 C 80.199 94.6 80.56 96.625 81 98 C 81.634 99.98 81.801 100.084 81.801 98.5 C 81.801 97.4 81.44 95.375 81 94 C 80.366 92.02 80.199 91.916 80.199 93.5 M 55 94 C 55 94.55 55.45 95 56 95 C 56.55 95 57 94.55 57 94 C 57 93.45 56.55 93 56 93 C 55.45 93 55 93.45 55 94 M 65.149 98.5 C 65.144 101.8 65.505 105.4 65.95 106.5 C 66.42 107.662 66.565 105.569 66.297 101.5 C 65.694 92.355 65.16 90.96 65.149 98.5 M 84.07 94.75 C 84.109 95.713 84.558 97.4 85.068 98.5 C 85.761 99.996 85.844 99.657 85.398 97.157 C 84.885 94.286 85.061 93.863 86.65 94.157 C 87.974 94.403 89.211 96.685 91 102.183 C 92.375 106.409 93.8 110.159 94.167 110.517 C 95.286 111.609 90.185 95.928 88.928 94.414 C 87.25 92.391 83.985 92.617 84.07 94.75 M 9.079 95.583 C 9.127 96.748 9.364 96.985 9.683 96.188 C 9.972 95.466 9.936 94.603 9.604 94.271 C 9.272 93.939 9.036 94.529 9.079 95.583 M 29.252 97.5 C 29.263 99.7 29.468 100.482 29.707 99.238 C 29.946 97.994 29.937 96.194 29.687 95.238 C 29.437 94.282 29.241 95.3 29.252 97.5 M 72.158 96 C 72.158 97.375 72.385 97.938 72.662 97.25 C 72.94 96.563 72.94 95.438 72.662 94.75 C 72.385 94.063 72.158 94.625 72.158 96 M 76.195 96.5 C 76.215 98.15 76.439 98.704 76.693 97.731 C 76.947 96.758 76.93 95.408 76.656 94.731 C 76.382 94.054 76.175 94.85 76.195 96.5 M 92.084 94.5 C 92.084 95.05 92.946 97.075 94 99 C 95.054 100.925 95.916 102.05 95.916 101.5 C 95.916 100.95 95.054 98.925 94 97 C 92.946 95.075 92.084 93.95 92.084 94.5 M 114.564 95.293 C 114.94 96.279 115.499 96.834 115.807 96.526 C 116.115 96.219 115.808 95.412 115.124 94.733 C 114.136 93.753 114.022 93.868 114.564 95.293 M 125 97 C 125.589 98.1 126.295 99 126.57 99 C 126.845 99 126.589 98.1 126 97 C 125.411 95.9 124.705 95 124.43 95 C 124.155 95 124.411 95.9 125 97 M 0.5 100 C 0.116 102.274 0.011 104.345 0.268 104.601 C 0.524 104.857 1.034 103.192 1.4 100.9 C 1.766 98.608 1.871 96.538 1.632 96.299 C 1.394 96.06 0.884 97.726 0.5 100 M 54.385 108 C 54.385 114.875 54.545 117.688 54.74 114.25 C 54.936 110.813 54.936 105.188 54.74 101.75 C 54.545 98.313 54.385 101.125 54.385 108 M 97.031 96.5 C 97.031 97.05 97.467 98.175 98 99 C 98.533 99.825 98.969 100.05 98.969 99.5 C 98.969 98.95 98.533 97.825 98 97 C 97.467 96.175 97.031 95.95 97.031 96.5 M 19.286 101.5 C 19.294 104.25 19.488 105.256 19.718 103.736 C 19.947 102.216 19.941 99.966 19.704 98.736 C 19.467 97.506 19.279 98.75 19.286 101.5 M 57.31 102.5 C 57.315 105.8 57.502 107.029 57.725 105.232 C 57.947 103.435 57.943 100.735 57.715 99.232 C 57.486 97.729 57.304 99.2 57.31 102.5 M 7.672 100.891 C 7.302 102.738 7.049 105.206 7.11 106.375 C 7.17 107.544 7.618 106.475 8.105 104 C 8.592 101.525 8.845 99.057 8.667 98.516 C 8.489 97.974 8.041 99.043 7.672 100.891 M 26.232 101 C 26.232 102.925 26.438 103.713 26.689 102.75 C 26.941 101.787 26.941 100.213 26.689 99.25 C 26.438 98.287 26.232 99.075 26.232 101 M 69.702 103 C 70.015 106.025 70.435 108.688 70.635 108.917 C 71.336 109.718 70.793 102.478 69.966 100 C 69.428 98.386 69.334 99.449 69.702 103 M 118.092 102 C 122.055 110.173 133.092 124.575 134.394 123.272 C 135.345 122.322 135.102 113.971 134.132 114.25 C 133.655 114.388 132.274 113.375 131.064 112 C 129.29 109.983 129.361 110.27 131.432 113.482 C 132.844 115.672 133.98 118.597 133.955 119.982 C 133.913 122.329 133.615 122.171 129.571 117.659 C 127.184 114.996 123.717 110.147 121.866 106.884 C 117.403 99.015 115.368 96.382 118.092 102 M 132.5 99 C 132.84 99.55 133.316 100 133.559 100 C 133.802 100 134 99.55 134 99 C 134 98.45 133.523 98 132.941 98 C 132.359 98 132.16 98.45 132.5 99 M 47.492 100.014 C 47.111 100.629 47.07 101.403 47.4 101.733 C 47.73 102.063 48 101.808 48 101.167 C 48 99.064 49.857 99.946 50.28 102.25 C 50.659 104.313 50.685 104.299 50.596 102.077 C 50.492 99.454 48.61 98.204 47.492 100.014 M 73.199 100.5 C 73.199 101.6 73.56 103.625 74 105 C 74.634 106.98 74.801 107.084 74.801 105.5 C 74.801 104.4 74.44 102.375 74 101 C 73.366 99.02 73.199 98.916 73.199 100.5 M 12.158 102 C 12.158 103.375 12.385 103.938 12.662 103.25 C 12.94 102.563 12.94 101.438 12.662 100.75 C 12.385 100.063 12.158 100.625 12.158 102 M 43.195 102.5 C 43.215 104.15 43.439 104.704 43.693 103.731 C 43.947 102.758 43.93 101.408 43.656 100.731 C 43.382 100.054 43.175 100.85 43.195 102.5 M 77.079 101.583 C 77.127 102.748 77.364 102.985 77.683 102.188 C 77.972 101.466 77.936 100.603 77.604 100.271 C 77.272 99.939 77.036 100.529 77.079 101.583 M 127.636 101.25 C 129.523 104.377 134 110.226 134 109.564 C 134 108.722 127.864 100 127.271 100 C 127.057 100 127.221 100.563 127.636 101.25 M 82.079 102.583 C 82.127 103.748 82.364 103.985 82.683 103.188 C 82.972 102.466 82.936 101.603 82.604 101.271 C 82.272 100.939 82.036 101.529 82.079 102.583 M 30.286 106.5 C 30.294 109.25 30.488 110.256 30.718 108.736 C 30.947 107.216 30.941 104.966 30.704 103.736 C 30.467 102.506 30.279 103.75 30.286 106.5 M 96 103.358 C 96 104.445 102.967 118 103.525 118 C 103.8 118 102.392 114.737 100.395 110.75 C 96.65 103.269 96 102.176 96 103.358 M 102 107 C 103.122 109.2 104.266 111 104.541 111 C 104.816 111 104.122 109.2 103 107 C 101.878 104.8 100.734 103 100.459 103 C 100.184 103 100.878 104.8 102 107 M 126 106 C 127.175 107.65 128.361 109 128.636 109 C 128.911 109 128.175 107.65 127 106 C 125.825 104.35 124.639 103 124.364 103 C 124.089 103 124.825 104.35 126 106 M 3.36 113 C 3.36 118.225 3.529 120.362 3.735 117.75 C 3.941 115.138 3.941 110.862 3.735 108.25 C 3.529 105.638 3.36 107.775 3.36 113 M 47.747 110.417 C 48.277 116.918 48.196 117.29 46.405 116.607 C 44.952 116.054 44.776 116.159 45.663 117.054 C 48.576 119.99 49.915 113.875 47.974 106.5 C 47.499 104.696 47.409 106.258 47.747 110.417 M 78.079 105.583 C 78.127 106.748 78.364 106.985 78.683 106.188 C 78.972 105.466 78.936 104.603 78.604 104.271 C 78.272 103.939 78.036 104.529 78.079 105.583 M 87.071 104.5 C 87.071 105.05 87.714 106.625 88.5 108 C 89.286 109.375 89.929 110.05 89.929 109.5 C 89.929 108.95 89.286 107.375 88.5 106 C 87.714 104.625 87.071 103.95 87.071 104.5 M 11.158 107 C 11.158 108.375 11.385 108.938 11.662 108.25 C 11.94 107.563 11.94 106.438 11.662 105.75 C 11.385 105.063 11.158 105.625 11.158 107 M 83.075 106 C 83.071 107.441 85.892 113.166 85.965 111.865 C 85.984 111.515 85.343 109.715 84.539 107.865 C 83.736 106.014 83.077 105.175 83.075 106 M 27.252 109.5 C 27.263 111.7 27.468 112.482 27.707 111.238 C 27.946 109.994 27.937 108.194 27.687 107.238 C 27.437 106.282 27.241 107.3 27.252 109.5 M 38.1 110.083 C 38.155 112.513 38.562 115.625 39.005 117 C 39.488 118.5 39.592 116.9 39.265 113 C 38.628 105.404 37.956 103.722 38.1 110.083 M 107 108 C 107.589 109.1 108.295 110 108.57 110 C 108.845 110 108.589 109.1 108 108 C 107.411 106.9 106.705 106 106.43 106 C 106.155 106 106.411 106.9 107 108 M 20.17 108 C 20.186 108.825 20.56 110.625 21 112 C 21.644 114.01 21.806 114.108 21.83 112.5 C 21.846 111.4 21.473 109.6 21 108.5 C 20.473 107.275 20.152 107.081 20.17 108 M 41.161 109.5 C 41.157 111.15 41.747 114.3 42.472 116.5 C 44.193 121.721 44.213 120.014 42.52 112.5 C 41.676 108.755 41.165 107.628 41.161 109.5 M 44.272 111 C 44.272 113.475 44.467 114.487 44.706 113.25 C 44.944 112.013 44.944 109.987 44.706 108.75 C 44.467 107.513 44.272 108.525 44.272 111 M 51.294 117.86 C 51.27 125.555 50.906 128.445 49.881 129.095 C 49.084 129.599 48.977 129.976 49.628 129.985 C 51.968 130.016 52.483 127.205 51.913 117.5 L 51.326 107.5 L 51.294 117.86 M 75.232 111 C 75.232 112.925 75.438 113.713 75.689 112.75 C 75.941 111.787 75.941 110.213 75.689 109.25 C 75.438 108.287 75.232 109.075 75.232 111 M 79.573 110 C 79.941 111.375 80.659 113.175 81.169 114 C 81.813 115.042 81.892 114.737 81.427 113 C 81.059 111.625 80.341 109.825 79.831 109 C 79.187 107.958 79.108 108.263 79.573 110 M 6.328 115.5 C 6.333 119.35 6.513 120.802 6.73 118.728 C 6.946 116.653 6.943 113.503 6.722 111.728 C 6.501 109.952 6.324 111.65 6.328 115.5 M 24.195 111.5 C 24.215 113.15 24.439 113.704 24.693 112.731 C 24.947 111.758 24.93 110.408 24.656 109.731 C 24.382 109.054 24.175 109.85 24.195 111.5 M 34.195 111.5 C 34.215 113.15 34.439 113.704 34.693 112.731 C 34.947 111.758 34.93 110.408 34.656 109.731 C 34.382 109.054 34.175 109.85 34.195 111.5 M 58.252 112.5 C 58.263 114.7 58.468 115.482 58.707 114.238 C 58.946 112.994 58.937 111.194 58.687 110.238 C 58.437 109.282 58.241 110.3 58.252 112.5 M 67.079 110.583 C 67.127 111.748 67.364 111.985 67.683 111.188 C 67.972 110.466 67.936 109.603 67.604 109.271 C 67.272 108.939 67.036 109.529 67.079 110.583 M 10.079 111.583 C 10.127 112.748 10.364 112.985 10.683 112.188 C 10.972 111.466 10.936 110.603 10.604 110.271 C 10.272 109.939 10.036 110.529 10.079 111.583 M 71.09 111.559 C 70.968 114.34 73.344 117.406 75.087 116.717 C 76.141 116.3 76.062 116.138 74.779 116.079 C 73.728 116.031 72.691 114.733 72.119 112.75 C 71.492 110.578 71.15 110.183 71.09 111.559 M 110.965 114.932 C 112.069 117.095 113.402 119.13 113.929 119.456 C 114.455 119.781 113.748 118.012 112.357 115.524 C 109.252 109.967 108.206 109.523 110.965 114.932 M 16 123 C 16 133.931 16.015 134 18.389 134 C 20.762 134 20.775 133.94 20.307 125.25 C 19.667 113.368 18.945 112.275 19.316 123.75 C 19.546 130.855 19.313 133 18.308 133 C 17.317 133 17 130.559 17 122.941 C 17 116.49 17.359 113.104 18 113.5 C 18.55 113.84 19 113.641 19 113.059 C 19 112.477 18.325 112 17.5 112 C 16.258 112 16 113.889 16 123 M 62 112.686 C 62 114.284 64.76 116.266 65.956 115.527 C 66.53 115.172 66.993 114.346 66.985 113.691 C 66.975 112.968 66.575 113.09 65.966 114 C 65.097 115.298 64.763 115.239 63.481 113.559 C 62.666 112.491 62 112.099 62 112.686 M 96.75 113.833 C 97.713 114.842 98.677 115.528 98.893 115.357 C 99.483 114.892 96.886 112 95.878 112 C 95.395 112 95.787 112.825 96.75 113.833 M 107.171 116.09 C 108.435 118.339 111.849 123.064 114.757 126.59 C 119.745 132.638 119.905 133 117.581 133 C 115.791 133 114.008 131.564 111.06 127.75 C 104.115 118.762 103.6 118.179 105.549 121.5 C 106.517 123.15 109.082 126.638 111.248 129.25 C 114.294 132.924 115.845 134 118.093 134 C 119.692 134 121 133.755 121 133.456 C 121 133.157 118.768 130.23 116.04 126.952 C 113.311 123.674 109.894 118.968 108.445 116.496 C 105.152 110.878 104.043 110.524 107.171 116.09 M 31.195 115.5 C 31.215 117.15 31.439 117.704 31.693 116.731 C 31.947 115.758 31.93 114.408 31.656 113.731 C 31.382 113.054 31.175 113.85 31.195 115.5 M 86.065 113.212 C 85.902 114.998 93.255 128.906 95.258 130.602 L 97.5 132.5 L 95.625 130.283 C 94.594 129.064 92.035 124.564 89.94 120.283 C 87.844 116.002 86.1 112.82 86.065 113.212 M 9.31 119.5 C 9.315 122.8 9.502 124.029 9.725 122.232 C 9.947 120.435 9.943 117.735 9.715 116.232 C 9.486 114.729 9.304 116.2 9.31 119.5 M 28.195 116.5 C 28.215 118.15 28.439 118.704 28.693 117.731 C 28.947 116.758 28.93 115.408 28.656 114.731 C 28.382 114.054 28.175 114.85 28.195 116.5 M 22.232 118 C 22.232 119.925 22.438 120.713 22.689 119.75 C 22.941 118.787 22.941 117.213 22.689 116.25 C 22.438 115.287 22.232 116.075 22.232 118 M 25.237 117 C 25.237 118.375 25.58 120.85 26 122.5 C 26.681 125.176 26.763 125.23 26.763 123 C 26.763 121.625 26.42 119.15 26 117.5 C 25.319 114.824 25.237 114.77 25.237 117 M 35.465 118.99 C 35.712 121.704 36.591 124.077 37.687 124.99 C 38.716 125.847 39.447 127.694 39.378 129.262 C 39.261 131.911 39.275 131.919 39.7 129.453 C 40.225 126.414 42.007 126.691 43.735 130.079 C 44.603 131.78 44.975 132.001 44.985 130.823 C 44.993 129.9 43.987 128.325 42.75 127.323 C 41.314 126.16 40.544 124.5 40.622 122.738 C 40.733 120.208 40.707 120.187 40.305 122.488 C 39.473 127.262 37.438 125.512 35.978 118.765 L 35.055 114.5 L 35.465 118.99 M 82.026 116.283 C 81.981 117.632 87.11 127.348 89.663 130.75 C 91.449 133.13 92.824 133.96 94.801 133.85 L 97.5 133.7 L 94.823 133.291 C 91.528 132.787 90.726 131.838 85.897 122.741 C 83.782 118.759 82.041 115.852 82.026 116.283 M 59.395 120.119 C 59.855 123.934 63.963 134.371 64.71 133.623 C 64.951 133.383 64.432 131.803 63.558 130.113 C 62.684 128.423 61.292 124.668 60.464 121.77 C 59.324 117.779 59.065 117.378 59.395 120.119 M 95 121 C 96.122 123.2 97.266 125 97.541 125 C 97.816 125 97.122 123.2 96 121 C 94.878 118.8 93.734 117 93.459 117 C 93.184 117 93.878 118.8 95 121 M 99 117.373 C 99 118.599 102.928 125.837 103.929 126.456 C 104.455 126.781 103.71 124.899 102.274 122.274 C 99.305 116.847 99 116.391 99 117.373 M 12 125.5 C 12 131.36 11.685 133 10.56 133 C 9.633 133 8.981 131.665 8.728 129.25 L 8.336 125.5 L 8.168 129.75 C 8.013 133.661 8.199 134 10.5 134 C 12.958 134 13 133.867 13 126 C 13 121.6 12.775 118 12.5 118 C 12.225 118 12 121.375 12 125.5 M 66.782 118.844 C 67.486 119.291 68.928 121.872 69.985 124.579 C 71.042 127.285 71.918 128.825 71.931 128 C 71.974 125.417 68.161 117.999 66.799 118.015 C 65.748 118.028 65.745 118.186 66.782 118.844 M 32.199 120.5 C 32.199 121.6 32.56 123.625 33 125 C 33.634 126.98 33.801 127.084 33.801 125.5 C 33.801 124.4 33.44 122.375 33 121 C 32.366 119.02 32.199 118.916 32.199 120.5 M 74 121.441 C 74 122.784 74.385 124.12 74.856 124.411 C 75.326 124.702 75.499 123.828 75.239 122.47 C 74.714 119.724 76.604 119.112 79.002 121.25 C 80.194 122.313 80.206 122.239 79.079 120.75 C 77.059 118.08 74 118.496 74 121.441 M 29.218 122 C 29.208 123.375 29.56 125.625 30 127 C 30.627 128.959 30.797 129.067 30.782 127.5 C 30.772 126.4 30.42 124.15 30 122.5 C 29.314 119.805 29.235 119.754 29.218 122 M 64.624 121.539 C 64.281 122.432 64.039 123.914 64.086 124.832 C 64.133 125.749 64.568 125.173 65.053 123.55 C 65.996 120.394 65.662 118.832 64.624 121.539 M 55.195 123.5 C 55.215 125.15 55.439 125.704 55.693 124.731 C 55.947 123.758 55.93 122.408 55.656 121.731 C 55.382 121.054 55.175 121.85 55.195 123.5 M 120 126.5 C 122.987 129.525 125.657 132 125.932 132 C 126.207 132 123.987 129.525 121 126.5 C 118.013 123.475 115.343 121 115.068 121 C 114.793 121 117.013 123.475 120 126.5 M 23.252 125.5 C 23.263 127.7 23.468 128.482 23.707 127.238 C 23.946 125.994 23.937 124.194 23.687 123.238 C 23.437 122.282 23.241 123.3 23.252 125.5 M 1.986 126.25 C 1.979 128.037 1.701 130.512 1.37 131.75 C 0.857 133.664 1.158 134 3.383 134 C 5.896 134 5.993 133.792 5.82 128.75 L 5.64 123.5 L 5.265 128.25 C 5.026 131.285 4.422 133 3.592 133 C 2.637 133 2.42 131.679 2.774 128 C 3.038 125.25 2.972 123 2.627 123 C 2.282 123 1.994 124.463 1.986 126.25 M 78 124 C 76.945 124.682 76.882 124.974 77.785 124.985 C 78.779 124.997 78.817 125.474 77.95 127.093 C 77.334 128.244 77.102 130.269 77.434 131.593 C 77.946 133.631 78.609 133.98 81.769 133.868 L 85.5 133.737 L 82 133.118 C 78.331 132.47 77.879 131.138 79.33 125.25 C 79.964 122.679 79.997 122.709 78 124 M 45.031 124.5 C 45.031 125.05 45.467 126.175 46 127 C 46.533 127.825 46.969 128.05 46.969 127.5 C 46.969 126.95 46.533 125.825 46 125 C 45.467 124.175 45.031 123.95 45.031 124.5 M 81 124.378 C 81 124.585 81.787 125.373 82.75 126.128 C 84.336 127.371 84.371 127.336 83.128 125.75 C 81.821 124.084 81 123.555 81 124.378 M 27.195 128.5 C 27.215 130.15 27.439 130.704 27.693 129.731 C 27.947 128.758 27.93 127.408 27.656 126.731 C 27.382 126.054 27.175 126.85 27.195 128.5 M 99.867 128.589 C 102.856 133.116 104.504 134.173 108.013 133.818 L 111.157 133.5 L 107.832 130.5 C 104.759 127.727 104.69 127.708 106.928 130.25 L 109.349 133 L 106.771 133 C 105.026 133 103.167 131.79 101.011 129.25 C 98.52 126.316 98.272 126.172 99.867 128.589 M 56.086 128 C 56.055 128.825 56.467 130.175 57 131 C 58.181 132.828 58.181 131.249 57 128.5 C 56.433 127.181 56.122 127.011 56.086 128 M 65.086 128 C 65.055 128.825 65.467 130.175 66 131 C 67.181 132.828 67.181 131.249 66 128.5 C 65.433 127.181 65.122 127.011 65.086 128 M 24.116 131.75 C 24.025 133.514 24.54 134 26.5 134 C 27.875 134 29 133.592 29 133.094 C 29 132.595 28.141 132.412 27.091 132.686 C 25.809 133.022 25.026 132.58 24.707 131.343 C 24.32 129.842 24.21 129.917 24.116 131.75 M 31.318 131.5 C 31.588 134.165 36.035 134.957 35.921 132.32 C 35.875 131.269 35.629 131.029 35.338 131.75 C 34.595 133.59 32.226 133.27 31.631 131.25 C 31.229 129.887 31.16 129.942 31.318 131.5 M 85.564 132.293 C 85.94 133.279 86.499 133.834 86.807 133.526 C 87.115 133.219 86.808 132.412 86.124 131.733 C 85.136 130.753 85.022 130.868 85.564 132.293 M 53 133 C 53 133.55 53.477 134 54.059 134 C 54.641 134 54.84 133.55 54.5 133 C 54.16 132.45 53.684 132 53.441 132 C 53.198 132 53 132.45 53 133 M 41.25 133.689 C 42.212 133.941 43.788 133.941 44.75 133.689 C 45.712 133.438 44.925 133.232 43 133.232 C 41.075 133.232 40.288 133.438 41.25 133.689 M 59.269 133.693 C 60.242 133.947 61.592 133.93 62.269 133.656 C 62.946 133.382 62.15 133.175 60.5 133.195 C 58.85 133.215 58.296 133.439 59.269 133.693 M 68.762 133.707 C 70.006 133.946 71.806 133.937 72.762 133.687 C 73.718 133.437 72.7 133.241 70.5 133.252 C 68.3 133.263 67.518 133.468 68.762 133.707" stroke-linecap="round"/>
</g>
</g>
</g>
</svg>